<mxfile modified="2022-06-25T13:30:06.433Z" host="app.diagrams.net" agent="5.0 (Windows NT 10.0; Win64; x64) AppleWebKit/537.36 (KHTML, like Gecko) Chrome/103.0.5060.53 Safari/537.36" etag="4up1LFFON_427XKPFv_9" version="20.0.1" type="github" pages="10">
  <diagram id="l8hXMBHkgcEJcSW0mbfh" name="Archi">
    <mxGraphModel dx="818" dy="783" grid="1" gridSize="10" guides="1" tooltips="1" connect="1" arrows="1" fold="1" page="1" pageScale="1" pageWidth="1169" pageHeight="827" math="0" shadow="0">
      <root>
        <mxCell id="0" />
        <mxCell id="1" parent="0" />
        <mxCell id="8--HhbSZYtI3ddgJnD71-23" style="edgeStyle=none;rounded=0;orthogonalLoop=1;jettySize=auto;html=1;sourcePerimeterSpacing=5;endArrow=classic;endFill=0;targetPerimeterSpacing=5;fillColor=#dae8fc;strokeColor=#6c8ebf;startArrow=classic;startFill=0;strokeWidth=2;" parent="1" source="8--HhbSZYtI3ddgJnD71-16" target="OCNQ4nxU7mhjJ4FMxR7A-1" edge="1">
          <mxGeometry relative="1" as="geometry">
            <mxPoint x="322.6456310679612" y="273" as="targetPoint" />
          </mxGeometry>
        </mxCell>
        <mxCell id="8--HhbSZYtI3ddgJnD71-16" value="Client1 1" style="shape=image;verticalLabelPosition=middle;verticalAlign=middle;imageAspect=0;aspect=fixed;image=data:image/svg+xml,PHN2ZyB4bWxucz0iaHR0cDovL3d3dy53My5vcmcvMjAwMC9zdmciIHZlcnNpb249IjEiIHZpZXdCb3g9IjAgMCA0OCA0OCIgZW5hYmxlLWJhY2tncm91bmQ9Im5ldyAwIDAgNDggNDgiPiYjeGE7ICAgIDxwb2x5Z29uIGZpbGw9IiNGRjk4MDAiIHBvaW50cz0iMjQsMzcgMTksMzEgMTksMjUgMjksMjUgMjksMzEiLz4mI3hhOyAgICA8ZyBmaWxsPSIjRkZBNzI2Ij4mI3hhOyAgICAgICAgPGNpcmNsZSBjeD0iMzMiIGN5PSIxOSIgcj0iMiIvPiYjeGE7ICAgICAgICA8Y2lyY2xlIGN4PSIxNSIgY3k9IjE5IiByPSIyIi8+JiN4YTsgICAgPC9nPiYjeGE7ICAgIDxwYXRoIGZpbGw9IiNGRkI3NEQiIGQ9Ik0zMywxM2MwLTcuNi0xOC01LTE4LDBjMCwxLjEsMCw1LjksMCw3YzAsNSw0LDksOSw5czktNCw5LTlDMzMsMTguOSwzMywxNC4xLDMzLDEzeiIvPiYjeGE7ICAgIDxwYXRoIGZpbGw9IiM0MjQyNDIiIGQ9Ik0yNCw0Yy02LjEsMC0xMCw0LjktMTAsMTFjMCwwLjgsMCwyLjMsMCwyLjNsMiwxLjd2LTVsMTItNGw0LDR2NWwyLTEuN2MwLDAsMC0xLjUsMC0yLjNjMC00LTEtOC02LTlsLTEtMiBIMjR6Ii8+JiN4YTsgICAgPGcgZmlsbD0iIzc4NDcxOSI+JiN4YTsgICAgICAgIDxjaXJjbGUgY3g9IjI4IiBjeT0iMTkiIHI9IjEiLz4mI3hhOyAgICAgICAgPGNpcmNsZSBjeD0iMjAiIGN5PSIxOSIgcj0iMSIvPiYjeGE7ICAgIDwvZz4mI3hhOyAgICA8cG9seWdvbiBmaWxsPSIjZmZmIiBwb2ludHM9IjI0LDQzIDE5LDMxIDI0LDMyIDI5LDMxIi8+JiN4YTsgICAgPHBvbHlnb24gZmlsbD0iI0QzMkYyRiIgcG9pbnRzPSIyMywzNSAyMi4zLDM5LjUgMjQsNDMuNSAyNS43LDM5LjUgMjUsMzUgMjYsMzQgMjQsMzIgMjIsMzQiLz4mI3hhOyAgICA8cGF0aCBmaWxsPSIjNTQ2RTdBIiBkPSJNMjksMzFMMjksMzFsLTUsMTJsLTUtMTJjMCwwLTExLDItMTEsMTNoMzJDNDAsMzMsMjksMzEsMjksMzF6Ii8+JiN4YTs8L3N2Zz4=;labelBackgroundColor=#ffffff;labelPosition=left;align=right;" parent="1" vertex="1">
          <mxGeometry x="130" y="376" width="48" height="48" as="geometry" />
        </mxCell>
        <mxCell id="OCNQ4nxU7mhjJ4FMxR7A-1" value="Serveur applicatif" style="image;html=1;image=img/lib/clip_art/networking/Print_Server_128x128.png" parent="1" vertex="1">
          <mxGeometry x="585" y="360" width="80" height="80" as="geometry" />
        </mxCell>
        <mxCell id="OCNQ4nxU7mhjJ4FMxR7A-2" value="Client 2" style="shape=image;verticalLabelPosition=top;verticalAlign=bottom;imageAspect=0;aspect=fixed;image=data:image/svg+xml,PHN2ZyB4bWxucz0iaHR0cDovL3d3dy53My5vcmcvMjAwMC9zdmciIHZlcnNpb249IjEiIHZpZXdCb3g9IjAgMCA0OCA0OCIgZW5hYmxlLWJhY2tncm91bmQ9Im5ldyAwIDAgNDggNDgiPiYjeGE7ICAgIDxwb2x5Z29uIGZpbGw9IiNGRjk4MDAiIHBvaW50cz0iMjQsMzcgMTksMzEgMTksMjUgMjksMjUgMjksMzEiLz4mI3hhOyAgICA8ZyBmaWxsPSIjRkZBNzI2Ij4mI3hhOyAgICAgICAgPGNpcmNsZSBjeD0iMzMiIGN5PSIxOSIgcj0iMiIvPiYjeGE7ICAgICAgICA8Y2lyY2xlIGN4PSIxNSIgY3k9IjE5IiByPSIyIi8+JiN4YTsgICAgPC9nPiYjeGE7ICAgIDxwYXRoIGZpbGw9IiNGRkI3NEQiIGQ9Ik0zMywxM2MwLTcuNi0xOC01LTE4LDBjMCwxLjEsMCw1LjksMCw3YzAsNSw0LDksOSw5czktNCw5LTlDMzMsMTguOSwzMywxNC4xLDMzLDEzeiIvPiYjeGE7ICAgIDxwYXRoIGZpbGw9IiM0MjQyNDIiIGQ9Ik0yNCw0Yy02LjEsMC0xMCw0LjktMTAsMTFjMCwwLjgsMCwyLjMsMCwyLjNsMiwxLjd2LTVsMTItNGw0LDR2NWwyLTEuN2MwLDAsMC0xLjUsMC0yLjNjMC00LTEtOC02LTlsLTEtMiBIMjR6Ii8+JiN4YTsgICAgPGcgZmlsbD0iIzc4NDcxOSI+JiN4YTsgICAgICAgIDxjaXJjbGUgY3g9IjI4IiBjeT0iMTkiIHI9IjEiLz4mI3hhOyAgICAgICAgPGNpcmNsZSBjeD0iMjAiIGN5PSIxOSIgcj0iMSIvPiYjeGE7ICAgIDwvZz4mI3hhOyAgICA8cG9seWdvbiBmaWxsPSIjZmZmIiBwb2ludHM9IjI0LDQzIDE5LDMxIDI0LDMyIDI5LDMxIi8+JiN4YTsgICAgPHBvbHlnb24gZmlsbD0iI0QzMkYyRiIgcG9pbnRzPSIyMywzNSAyMi4zLDM5LjUgMjQsNDMuNSAyNS43LDM5LjUgMjUsMzUgMjYsMzQgMjQsMzIgMjIsMzQiLz4mI3hhOyAgICA8cGF0aCBmaWxsPSIjNTQ2RTdBIiBkPSJNMjksMzFMMjksMzFsLTUsMTJsLTUtMTJjMCwwLTExLDItMTEsMTNoMzJDNDAsMzMsMjksMzEsMjksMzF6Ii8+JiN4YTs8L3N2Zz4=;labelBackgroundColor=#ffffff;labelPosition=center;align=center;" parent="1" vertex="1">
          <mxGeometry x="340" y="180" width="48" height="48" as="geometry" />
        </mxCell>
        <mxCell id="OCNQ4nxU7mhjJ4FMxR7A-4" value="Client 3" style="shape=image;verticalLabelPosition=bottom;verticalAlign=top;imageAspect=0;aspect=fixed;image=data:image/svg+xml,PHN2ZyB4bWxucz0iaHR0cDovL3d3dy53My5vcmcvMjAwMC9zdmciIHZlcnNpb249IjEiIHZpZXdCb3g9IjAgMCA0OCA0OCIgZW5hYmxlLWJhY2tncm91bmQ9Im5ldyAwIDAgNDggNDgiPiYjeGE7ICAgIDxwb2x5Z29uIGZpbGw9IiNGRjk4MDAiIHBvaW50cz0iMjQsMzcgMTksMzEgMTksMjUgMjksMjUgMjksMzEiLz4mI3hhOyAgICA8ZyBmaWxsPSIjRkZBNzI2Ij4mI3hhOyAgICAgICAgPGNpcmNsZSBjeD0iMzMiIGN5PSIxOSIgcj0iMiIvPiYjeGE7ICAgICAgICA8Y2lyY2xlIGN4PSIxNSIgY3k9IjE5IiByPSIyIi8+JiN4YTsgICAgPC9nPiYjeGE7ICAgIDxwYXRoIGZpbGw9IiNGRkI3NEQiIGQ9Ik0zMywxM2MwLTcuNi0xOC01LTE4LDBjMCwxLjEsMCw1LjksMCw3YzAsNSw0LDksOSw5czktNCw5LTlDMzMsMTguOSwzMywxNC4xLDMzLDEzeiIvPiYjeGE7ICAgIDxwYXRoIGZpbGw9IiM0MjQyNDIiIGQ9Ik0yNCw0Yy02LjEsMC0xMCw0LjktMTAsMTFjMCwwLjgsMCwyLjMsMCwyLjNsMiwxLjd2LTVsMTItNGw0LDR2NWwyLTEuN2MwLDAsMC0xLjUsMC0yLjNjMC00LTEtOC02LTlsLTEtMiBIMjR6Ii8+JiN4YTsgICAgPGcgZmlsbD0iIzc4NDcxOSI+JiN4YTsgICAgICAgIDxjaXJjbGUgY3g9IjI4IiBjeT0iMTkiIHI9IjEiLz4mI3hhOyAgICAgICAgPGNpcmNsZSBjeD0iMjAiIGN5PSIxOSIgcj0iMSIvPiYjeGE7ICAgIDwvZz4mI3hhOyAgICA8cG9seWdvbiBmaWxsPSIjZmZmIiBwb2ludHM9IjI0LDQzIDE5LDMxIDI0LDMyIDI5LDMxIi8+JiN4YTsgICAgPHBvbHlnb24gZmlsbD0iI0QzMkYyRiIgcG9pbnRzPSIyMywzNSAyMi4zLDM5LjUgMjQsNDMuNSAyNS43LDM5LjUgMjUsMzUgMjYsMzQgMjQsMzIgMjIsMzQiLz4mI3hhOyAgICA8cGF0aCBmaWxsPSIjNTQ2RTdBIiBkPSJNMjksMzFMMjksMzFsLTUsMTJsLTUtMTJjMCwwLTExLDItMTEsMTNoMzJDNDAsMzMsMjksMzEsMjksMzF6Ii8+JiN4YTs8L3N2Zz4=;labelBackgroundColor=#ffffff;" parent="1" vertex="1">
          <mxGeometry x="340" y="580" width="48" height="48" as="geometry" />
        </mxCell>
        <mxCell id="OCNQ4nxU7mhjJ4FMxR7A-6" style="rounded=0;orthogonalLoop=1;jettySize=auto;html=1;sourcePerimeterSpacing=5;endArrow=classic;endFill=0;targetPerimeterSpacing=5;fillColor=#f8cecc;strokeColor=#B85450;strokeWidth=3;sketch=0;startArrow=classic;startFill=0;" parent="1" source="OCNQ4nxU7mhjJ4FMxR7A-4" target="OCNQ4nxU7mhjJ4FMxR7A-2" edge="1">
          <mxGeometry relative="1" as="geometry">
            <mxPoint x="310" y="554.2655601659751" as="sourcePoint" />
            <mxPoint x="522" y="410" as="targetPoint" />
          </mxGeometry>
        </mxCell>
        <mxCell id="OCNQ4nxU7mhjJ4FMxR7A-9" style="rounded=0;orthogonalLoop=1;jettySize=auto;html=1;sourcePerimeterSpacing=5;endArrow=classic;endFill=0;targetPerimeterSpacing=5;fillColor=#f8cecc;strokeColor=#B85450;strokeWidth=3;sketch=0;startArrow=classic;startFill=0;entryX=0;entryY=0.75;entryDx=0;entryDy=0;exitX=0.75;exitY=0;exitDx=0;exitDy=0;" parent="1" source="8--HhbSZYtI3ddgJnD71-16" target="OCNQ4nxU7mhjJ4FMxR7A-2" edge="1">
          <mxGeometry relative="1" as="geometry">
            <mxPoint x="374" y="585" as="sourcePoint" />
            <mxPoint x="374" y="243" as="targetPoint" />
          </mxGeometry>
        </mxCell>
        <mxCell id="OCNQ4nxU7mhjJ4FMxR7A-10" style="rounded=0;orthogonalLoop=1;jettySize=auto;html=1;sourcePerimeterSpacing=5;endArrow=classic;endFill=0;targetPerimeterSpacing=5;fillColor=#f8cecc;strokeColor=#B85450;strokeWidth=3;sketch=0;startArrow=classic;startFill=0;entryX=0;entryY=0.25;entryDx=0;entryDy=0;exitX=0.75;exitY=1;exitDx=0;exitDy=0;" parent="1" source="8--HhbSZYtI3ddgJnD71-16" target="OCNQ4nxU7mhjJ4FMxR7A-4" edge="1">
          <mxGeometry relative="1" as="geometry">
            <mxPoint x="176" y="386" as="sourcePoint" />
            <mxPoint x="350" y="226" as="targetPoint" />
          </mxGeometry>
        </mxCell>
        <mxCell id="OCNQ4nxU7mhjJ4FMxR7A-11" style="edgeStyle=none;rounded=0;orthogonalLoop=1;jettySize=auto;html=1;sourcePerimeterSpacing=5;endArrow=classic;endFill=0;targetPerimeterSpacing=5;fillColor=#dae8fc;strokeColor=#6c8ebf;startArrow=classic;startFill=0;strokeWidth=2;exitX=1;exitY=0.75;exitDx=0;exitDy=0;entryX=0;entryY=0.25;entryDx=0;entryDy=0;" parent="1" source="OCNQ4nxU7mhjJ4FMxR7A-2" target="OCNQ4nxU7mhjJ4FMxR7A-1" edge="1">
          <mxGeometry relative="1" as="geometry">
            <mxPoint x="193" y="410" as="sourcePoint" />
            <mxPoint x="590" y="410" as="targetPoint" />
          </mxGeometry>
        </mxCell>
        <mxCell id="OCNQ4nxU7mhjJ4FMxR7A-12" style="edgeStyle=none;rounded=0;orthogonalLoop=1;jettySize=auto;html=1;sourcePerimeterSpacing=5;endArrow=classic;endFill=0;targetPerimeterSpacing=5;fillColor=#dae8fc;strokeColor=#6c8ebf;startArrow=classic;startFill=0;strokeWidth=2;exitX=1;exitY=0.25;exitDx=0;exitDy=0;entryX=0;entryY=0.75;entryDx=0;entryDy=0;" parent="1" source="OCNQ4nxU7mhjJ4FMxR7A-4" target="OCNQ4nxU7mhjJ4FMxR7A-1" edge="1">
          <mxGeometry relative="1" as="geometry">
            <mxPoint x="398" y="226" as="sourcePoint" />
            <mxPoint x="595" y="390" as="targetPoint" />
          </mxGeometry>
        </mxCell>
      </root>
    </mxGraphModel>
  </diagram>
  <diagram id="ZCRary3nRKkpgATbthr1" name="Mesh-Old">
    <mxGraphModel dx="691" dy="453" grid="1" gridSize="10" guides="1" tooltips="1" connect="1" arrows="1" fold="1" page="1" pageScale="1" pageWidth="827" pageHeight="1169" math="0" shadow="0">
      <root>
        <mxCell id="0" />
        <mxCell id="1" parent="0" />
        <mxCell id="Wi44cTkCoxB98YSqqVmF-1" value="Client 2" style="shape=image;verticalLabelPosition=middle;verticalAlign=middle;imageAspect=0;aspect=fixed;image=data:image/svg+xml,PHN2ZyB4bWxucz0iaHR0cDovL3d3dy53My5vcmcvMjAwMC9zdmciIHZlcnNpb249IjEiIHZpZXdCb3g9IjAgMCA0OCA0OCIgZW5hYmxlLWJhY2tncm91bmQ9Im5ldyAwIDAgNDggNDgiPiYjeGE7ICAgIDxwb2x5Z29uIGZpbGw9IiNGRjk4MDAiIHBvaW50cz0iMjQsMzcgMTksMzEgMTksMjUgMjksMjUgMjksMzEiLz4mI3hhOyAgICA8ZyBmaWxsPSIjRkZBNzI2Ij4mI3hhOyAgICAgICAgPGNpcmNsZSBjeD0iMzMiIGN5PSIxOSIgcj0iMiIvPiYjeGE7ICAgICAgICA8Y2lyY2xlIGN4PSIxNSIgY3k9IjE5IiByPSIyIi8+JiN4YTsgICAgPC9nPiYjeGE7ICAgIDxwYXRoIGZpbGw9IiNGRkI3NEQiIGQ9Ik0zMywxM2MwLTcuNi0xOC01LTE4LDBjMCwxLjEsMCw1LjksMCw3YzAsNSw0LDksOSw5czktNCw5LTlDMzMsMTguOSwzMywxNC4xLDMzLDEzeiIvPiYjeGE7ICAgIDxwYXRoIGZpbGw9IiM0MjQyNDIiIGQ9Ik0yNCw0Yy02LjEsMC0xMCw0LjktMTAsMTFjMCwwLjgsMCwyLjMsMCwyLjNsMiwxLjd2LTVsMTItNGw0LDR2NWwyLTEuN2MwLDAsMC0xLjUsMC0yLjNjMC00LTEtOC02LTlsLTEtMiBIMjR6Ii8+JiN4YTsgICAgPGcgZmlsbD0iIzc4NDcxOSI+JiN4YTsgICAgICAgIDxjaXJjbGUgY3g9IjI4IiBjeT0iMTkiIHI9IjEiLz4mI3hhOyAgICAgICAgPGNpcmNsZSBjeD0iMjAiIGN5PSIxOSIgcj0iMSIvPiYjeGE7ICAgIDwvZz4mI3hhOyAgICA8cG9seWdvbiBmaWxsPSIjZmZmIiBwb2ludHM9IjI0LDQzIDE5LDMxIDI0LDMyIDI5LDMxIi8+JiN4YTsgICAgPHBvbHlnb24gZmlsbD0iI0QzMkYyRiIgcG9pbnRzPSIyMywzNSAyMi4zLDM5LjUgMjQsNDMuNSAyNS43LDM5LjUgMjUsMzUgMjYsMzQgMjQsMzIgMjIsMzQiLz4mI3hhOyAgICA8cGF0aCBmaWxsPSIjNTQ2RTdBIiBkPSJNMjksMzFMMjksMzFsLTUsMTJsLTUtMTJjMCwwLTExLDItMTEsMTNoMzJDNDAsMzMsMjksMzEsMjksMzF6Ii8+JiN4YTs8L3N2Zz4=;labelBackgroundColor=#ffffff;labelPosition=left;align=right;" parent="1" vertex="1">
          <mxGeometry x="140" y="496" width="48" height="48" as="geometry" />
        </mxCell>
        <mxCell id="Wi44cTkCoxB98YSqqVmF-2" value="Client 1" style="shape=image;verticalLabelPosition=top;verticalAlign=bottom;imageAspect=0;aspect=fixed;image=data:image/svg+xml,PHN2ZyB4bWxucz0iaHR0cDovL3d3dy53My5vcmcvMjAwMC9zdmciIHZlcnNpb249IjEiIHZpZXdCb3g9IjAgMCA0OCA0OCIgZW5hYmxlLWJhY2tncm91bmQ9Im5ldyAwIDAgNDggNDgiPiYjeGE7ICAgIDxwb2x5Z29uIGZpbGw9IiNGRjk4MDAiIHBvaW50cz0iMjQsMzcgMTksMzEgMTksMjUgMjksMjUgMjksMzEiLz4mI3hhOyAgICA8ZyBmaWxsPSIjRkZBNzI2Ij4mI3hhOyAgICAgICAgPGNpcmNsZSBjeD0iMzMiIGN5PSIxOSIgcj0iMiIvPiYjeGE7ICAgICAgICA8Y2lyY2xlIGN4PSIxNSIgY3k9IjE5IiByPSIyIi8+JiN4YTsgICAgPC9nPiYjeGE7ICAgIDxwYXRoIGZpbGw9IiNGRkI3NEQiIGQ9Ik0zMywxM2MwLTcuNi0xOC01LTE4LDBjMCwxLjEsMCw1LjksMCw3YzAsNSw0LDksOSw5czktNCw5LTlDMzMsMTguOSwzMywxNC4xLDMzLDEzeiIvPiYjeGE7ICAgIDxwYXRoIGZpbGw9IiM0MjQyNDIiIGQ9Ik0yNCw0Yy02LjEsMC0xMCw0LjktMTAsMTFjMCwwLjgsMCwyLjMsMCwyLjNsMiwxLjd2LTVsMTItNGw0LDR2NWwyLTEuN2MwLDAsMC0xLjUsMC0yLjNjMC00LTEtOC02LTlsLTEtMiBIMjR6Ii8+JiN4YTsgICAgPGcgZmlsbD0iIzc4NDcxOSI+JiN4YTsgICAgICAgIDxjaXJjbGUgY3g9IjI4IiBjeT0iMTkiIHI9IjEiLz4mI3hhOyAgICAgICAgPGNpcmNsZSBjeD0iMjAiIGN5PSIxOSIgcj0iMSIvPiYjeGE7ICAgIDwvZz4mI3hhOyAgICA8cG9seWdvbiBmaWxsPSIjZmZmIiBwb2ludHM9IjI0LDQzIDE5LDMxIDI0LDMyIDI5LDMxIi8+JiN4YTsgICAgPHBvbHlnb24gZmlsbD0iI0QzMkYyRiIgcG9pbnRzPSIyMywzNSAyMi4zLDM5LjUgMjQsNDMuNSAyNS43LDM5LjUgMjUsMzUgMjYsMzQgMjQsMzIgMjIsMzQiLz4mI3hhOyAgICA8cGF0aCBmaWxsPSIjNTQ2RTdBIiBkPSJNMjksMzFMMjksMzFsLTUsMTJsLTUtMTJjMCwwLTExLDItMTEsMTNoMzJDNDAsMzMsMjksMzEsMjksMzF6Ii8+JiN4YTs8L3N2Zz4=;labelBackgroundColor=#ffffff;labelPosition=center;align=center;" parent="1" vertex="1">
          <mxGeometry x="350" y="300" width="48" height="48" as="geometry" />
        </mxCell>
        <mxCell id="Wi44cTkCoxB98YSqqVmF-3" value="Client 3" style="shape=image;verticalLabelPosition=bottom;verticalAlign=top;imageAspect=0;aspect=fixed;image=data:image/svg+xml,PHN2ZyB4bWxucz0iaHR0cDovL3d3dy53My5vcmcvMjAwMC9zdmciIHZlcnNpb249IjEiIHZpZXdCb3g9IjAgMCA0OCA0OCIgZW5hYmxlLWJhY2tncm91bmQ9Im5ldyAwIDAgNDggNDgiPiYjeGE7ICAgIDxwb2x5Z29uIGZpbGw9IiNGRjk4MDAiIHBvaW50cz0iMjQsMzcgMTksMzEgMTksMjUgMjksMjUgMjksMzEiLz4mI3hhOyAgICA8ZyBmaWxsPSIjRkZBNzI2Ij4mI3hhOyAgICAgICAgPGNpcmNsZSBjeD0iMzMiIGN5PSIxOSIgcj0iMiIvPiYjeGE7ICAgICAgICA8Y2lyY2xlIGN4PSIxNSIgY3k9IjE5IiByPSIyIi8+JiN4YTsgICAgPC9nPiYjeGE7ICAgIDxwYXRoIGZpbGw9IiNGRkI3NEQiIGQ9Ik0zMywxM2MwLTcuNi0xOC01LTE4LDBjMCwxLjEsMCw1LjksMCw3YzAsNSw0LDksOSw5czktNCw5LTlDMzMsMTguOSwzMywxNC4xLDMzLDEzeiIvPiYjeGE7ICAgIDxwYXRoIGZpbGw9IiM0MjQyNDIiIGQ9Ik0yNCw0Yy02LjEsMC0xMCw0LjktMTAsMTFjMCwwLjgsMCwyLjMsMCwyLjNsMiwxLjd2LTVsMTItNGw0LDR2NWwyLTEuN2MwLDAsMC0xLjUsMC0yLjNjMC00LTEtOC02LTlsLTEtMiBIMjR6Ii8+JiN4YTsgICAgPGcgZmlsbD0iIzc4NDcxOSI+JiN4YTsgICAgICAgIDxjaXJjbGUgY3g9IjI4IiBjeT0iMTkiIHI9IjEiLz4mI3hhOyAgICAgICAgPGNpcmNsZSBjeD0iMjAiIGN5PSIxOSIgcj0iMSIvPiYjeGE7ICAgIDwvZz4mI3hhOyAgICA8cG9seWdvbiBmaWxsPSIjZmZmIiBwb2ludHM9IjI0LDQzIDE5LDMxIDI0LDMyIDI5LDMxIi8+JiN4YTsgICAgPHBvbHlnb24gZmlsbD0iI0QzMkYyRiIgcG9pbnRzPSIyMywzNSAyMi4zLDM5LjUgMjQsNDMuNSAyNS43LDM5LjUgMjUsMzUgMjYsMzQgMjQsMzIgMjIsMzQiLz4mI3hhOyAgICA8cGF0aCBmaWxsPSIjNTQ2RTdBIiBkPSJNMjksMzFMMjksMzFsLTUsMTJsLTUtMTJjMCwwLTExLDItMTEsMTNoMzJDNDAsMzMsMjksMzEsMjksMzF6Ii8+JiN4YTs8L3N2Zz4=;labelBackgroundColor=#ffffff;" parent="1" vertex="1">
          <mxGeometry x="350" y="700" width="48" height="48" as="geometry" />
        </mxCell>
        <mxCell id="Wi44cTkCoxB98YSqqVmF-4" style="rounded=0;orthogonalLoop=1;jettySize=auto;html=1;sourcePerimeterSpacing=5;endArrow=classic;endFill=1;targetPerimeterSpacing=5;fillColor=#f8cecc;strokeColor=#B85450;strokeWidth=3;sketch=0;startArrow=classic;startFill=1;" parent="1" source="Wi44cTkCoxB98YSqqVmF-3" target="Wi44cTkCoxB98YSqqVmF-2" edge="1">
          <mxGeometry relative="1" as="geometry">
            <mxPoint x="320" y="674.2655601659751" as="sourcePoint" />
            <mxPoint x="532" y="530" as="targetPoint" />
          </mxGeometry>
        </mxCell>
        <mxCell id="Wi44cTkCoxB98YSqqVmF-5" style="rounded=0;orthogonalLoop=1;jettySize=auto;html=1;sourcePerimeterSpacing=5;endArrow=classic;endFill=1;targetPerimeterSpacing=5;fillColor=#f8cecc;strokeColor=#B85450;strokeWidth=3;sketch=0;startArrow=classic;startFill=1;entryX=0;entryY=0.75;entryDx=0;entryDy=0;exitX=0.75;exitY=0;exitDx=0;exitDy=0;" parent="1" source="Wi44cTkCoxB98YSqqVmF-1" target="Wi44cTkCoxB98YSqqVmF-2" edge="1">
          <mxGeometry relative="1" as="geometry">
            <mxPoint x="384" y="705" as="sourcePoint" />
            <mxPoint x="384" y="363" as="targetPoint" />
          </mxGeometry>
        </mxCell>
        <mxCell id="Wi44cTkCoxB98YSqqVmF-6" style="rounded=0;orthogonalLoop=1;jettySize=auto;html=1;sourcePerimeterSpacing=5;endArrow=classic;endFill=1;targetPerimeterSpacing=5;fillColor=#f8cecc;strokeColor=#B85450;strokeWidth=3;sketch=0;startArrow=classic;startFill=1;entryX=0;entryY=0.25;entryDx=0;entryDy=0;exitX=0.75;exitY=1;exitDx=0;exitDy=0;" parent="1" source="Wi44cTkCoxB98YSqqVmF-1" target="Wi44cTkCoxB98YSqqVmF-3" edge="1">
          <mxGeometry relative="1" as="geometry">
            <mxPoint x="186" y="506" as="sourcePoint" />
            <mxPoint x="360" y="346" as="targetPoint" />
          </mxGeometry>
        </mxCell>
        <mxCell id="Wi44cTkCoxB98YSqqVmF-13" value="Client 4" style="shape=image;verticalLabelPosition=bottom;verticalAlign=top;imageAspect=0;aspect=fixed;image=data:image/svg+xml,PHN2ZyB4bWxucz0iaHR0cDovL3d3dy53My5vcmcvMjAwMC9zdmciIHZlcnNpb249IjEiIHZpZXdCb3g9IjAgMCA0OCA0OCIgZW5hYmxlLWJhY2tncm91bmQ9Im5ldyAwIDAgNDggNDgiPiYjeGE7ICAgIDxwb2x5Z29uIGZpbGw9IiNGRjk4MDAiIHBvaW50cz0iMjQsMzcgMTksMzEgMTksMjUgMjksMjUgMjksMzEiLz4mI3hhOyAgICA8ZyBmaWxsPSIjRkZBNzI2Ij4mI3hhOyAgICAgICAgPGNpcmNsZSBjeD0iMzMiIGN5PSIxOSIgcj0iMiIvPiYjeGE7ICAgICAgICA8Y2lyY2xlIGN4PSIxNSIgY3k9IjE5IiByPSIyIi8+JiN4YTsgICAgPC9nPiYjeGE7ICAgIDxwYXRoIGZpbGw9IiNGRkI3NEQiIGQ9Ik0zMywxM2MwLTcuNi0xOC01LTE4LDBjMCwxLjEsMCw1LjksMCw3YzAsNSw0LDksOSw5czktNCw5LTlDMzMsMTguOSwzMywxNC4xLDMzLDEzeiIvPiYjeGE7ICAgIDxwYXRoIGZpbGw9IiM0MjQyNDIiIGQ9Ik0yNCw0Yy02LjEsMC0xMCw0LjktMTAsMTFjMCwwLjgsMCwyLjMsMCwyLjNsMiwxLjd2LTVsMTItNGw0LDR2NWwyLTEuN2MwLDAsMC0xLjUsMC0yLjNjMC00LTEtOC02LTlsLTEtMiBIMjR6Ii8+JiN4YTsgICAgPGcgZmlsbD0iIzc4NDcxOSI+JiN4YTsgICAgICAgIDxjaXJjbGUgY3g9IjI4IiBjeT0iMTkiIHI9IjEiLz4mI3hhOyAgICAgICAgPGNpcmNsZSBjeD0iMjAiIGN5PSIxOSIgcj0iMSIvPiYjeGE7ICAgIDwvZz4mI3hhOyAgICA8cG9seWdvbiBmaWxsPSIjZmZmIiBwb2ludHM9IjI0LDQzIDE5LDMxIDI0LDMyIDI5LDMxIi8+JiN4YTsgICAgPHBvbHlnb24gZmlsbD0iI0QzMkYyRiIgcG9pbnRzPSIyMywzNSAyMi4zLDM5LjUgMjQsNDMuNSAyNS43LDM5LjUgMjUsMzUgMjYsMzQgMjQsMzIgMjIsMzQiLz4mI3hhOyAgICA8cGF0aCBmaWxsPSIjNTQ2RTdBIiBkPSJNMjksMzFMMjksMzFsLTUsMTJsLTUtMTJjMCwwLTExLDItMTEsMTNoMzJDNDAsMzMsMjksMzEsMjksMzF6Ii8+JiN4YTs8L3N2Zz4=;labelBackgroundColor=#ffffff;" parent="1" vertex="1">
          <mxGeometry x="550" y="496" width="48" height="48" as="geometry" />
        </mxCell>
        <mxCell id="Wi44cTkCoxB98YSqqVmF-14" style="rounded=0;orthogonalLoop=1;jettySize=auto;html=1;sourcePerimeterSpacing=5;endArrow=classic;endFill=1;targetPerimeterSpacing=5;fillColor=#f8cecc;strokeColor=#B85450;strokeWidth=3;sketch=0;startArrow=classic;startFill=1;exitX=0.25;exitY=0;exitDx=0;exitDy=0;entryX=1;entryY=0.75;entryDx=0;entryDy=0;" parent="1" source="Wi44cTkCoxB98YSqqVmF-13" target="Wi44cTkCoxB98YSqqVmF-2" edge="1">
          <mxGeometry relative="1" as="geometry">
            <mxPoint x="384" y="705" as="sourcePoint" />
            <mxPoint x="420" y="330" as="targetPoint" />
          </mxGeometry>
        </mxCell>
        <mxCell id="Wi44cTkCoxB98YSqqVmF-15" style="rounded=0;orthogonalLoop=1;jettySize=auto;html=1;sourcePerimeterSpacing=5;endArrow=classic;endFill=1;targetPerimeterSpacing=5;fillColor=#f8cecc;strokeColor=#B85450;strokeWidth=3;sketch=0;startArrow=classic;startFill=1;exitX=0.25;exitY=1;exitDx=0;exitDy=0;entryX=1;entryY=0.25;entryDx=0;entryDy=0;" parent="1" source="Wi44cTkCoxB98YSqqVmF-13" target="Wi44cTkCoxB98YSqqVmF-3" edge="1">
          <mxGeometry relative="1" as="geometry">
            <mxPoint x="572" y="506" as="sourcePoint" />
            <mxPoint x="408" y="346" as="targetPoint" />
          </mxGeometry>
        </mxCell>
        <mxCell id="Wi44cTkCoxB98YSqqVmF-16" style="rounded=0;orthogonalLoop=1;jettySize=auto;html=1;sourcePerimeterSpacing=5;endArrow=classic;endFill=1;targetPerimeterSpacing=5;fillColor=#f8cecc;strokeColor=#B85450;strokeWidth=3;sketch=0;startArrow=classic;startFill=1;entryX=1;entryY=0.5;entryDx=0;entryDy=0;exitX=0;exitY=0.5;exitDx=0;exitDy=0;" parent="1" source="Wi44cTkCoxB98YSqqVmF-13" target="Wi44cTkCoxB98YSqqVmF-1" edge="1">
          <mxGeometry relative="1" as="geometry">
            <mxPoint x="530" y="570" as="sourcePoint" />
            <mxPoint x="408" y="722" as="targetPoint" />
          </mxGeometry>
        </mxCell>
        <mxCell id="Wi44cTkCoxB98YSqqVmF-18" style="edgeStyle=none;rounded=0;sketch=0;orthogonalLoop=1;jettySize=auto;html=1;entryX=0;entryY=0.5;entryDx=0;entryDy=0;startArrow=classic;startFill=0;endArrow=classic;endFill=0;targetPerimeterSpacing=5;strokeColor=#B85450;strokeWidth=2;" parent="1" source="Wi44cTkCoxB98YSqqVmF-13" target="Wi44cTkCoxB98YSqqVmF-13" edge="1">
          <mxGeometry relative="1" as="geometry" />
        </mxCell>
        <mxCell id="M7LaGNzMcmaU3AppEqvR-1" value="flux entrant et sortant" style="edgeStyle=none;rounded=0;orthogonalLoop=1;jettySize=auto;html=1;sourcePerimeterSpacing=5;endArrow=classic;endFill=1;targetPerimeterSpacing=5;fillColor=#f8cecc;strokeColor=#b85450;startArrow=classic;startFill=1;strokeWidth=2;fontFamily=Verdana;labelPosition=right;verticalLabelPosition=middle;align=left;verticalAlign=middle;spacingRight=0;spacingLeft=40;" edge="1" parent="1">
          <mxGeometry relative="1" as="geometry">
            <mxPoint x="100" y="680" as="sourcePoint" />
            <mxPoint x="170" y="680" as="targetPoint" />
          </mxGeometry>
        </mxCell>
      </root>
    </mxGraphModel>
  </diagram>
  <diagram name="Mesh" id="UnGewAB02u_e6uLUFIX9">
    <mxGraphModel dx="576" dy="377" grid="1" gridSize="10" guides="1" tooltips="1" connect="1" arrows="1" fold="1" page="1" pageScale="1" pageWidth="827" pageHeight="1169" math="0" shadow="0">
      <root>
        <mxCell id="xSr_pIsiUR_l6VejRI4v-0" />
        <mxCell id="xSr_pIsiUR_l6VejRI4v-1" parent="xSr_pIsiUR_l6VejRI4v-0" />
        <mxCell id="xSr_pIsiUR_l6VejRI4v-2" value="Client 1" style="shape=image;verticalLabelPosition=bottom;verticalAlign=top;imageAspect=0;aspect=fixed;image=data:image/svg+xml,PHN2ZyB4bWxucz0iaHR0cDovL3d3dy53My5vcmcvMjAwMC9zdmciIHZlcnNpb249IjEiIHZpZXdCb3g9IjAgMCA0OCA0OCIgZW5hYmxlLWJhY2tncm91bmQ9Im5ldyAwIDAgNDggNDgiPiYjeGE7ICAgIDxwb2x5Z29uIGZpbGw9IiNGRjk4MDAiIHBvaW50cz0iMjQsMzcgMTksMzEgMTksMjUgMjksMjUgMjksMzEiLz4mI3hhOyAgICA8ZyBmaWxsPSIjRkZBNzI2Ij4mI3hhOyAgICAgICAgPGNpcmNsZSBjeD0iMzMiIGN5PSIxOSIgcj0iMiIvPiYjeGE7ICAgICAgICA8Y2lyY2xlIGN4PSIxNSIgY3k9IjE5IiByPSIyIi8+JiN4YTsgICAgPC9nPiYjeGE7ICAgIDxwYXRoIGZpbGw9IiNGRkI3NEQiIGQ9Ik0zMywxM2MwLTcuNi0xOC01LTE4LDBjMCwxLjEsMCw1LjksMCw3YzAsNSw0LDksOSw5czktNCw5LTlDMzMsMTguOSwzMywxNC4xLDMzLDEzeiIvPiYjeGE7ICAgIDxwYXRoIGZpbGw9IiM0MjQyNDIiIGQ9Ik0yNCw0Yy02LjEsMC0xMCw0LjktMTAsMTFjMCwwLjgsMCwyLjMsMCwyLjNsMiwxLjd2LTVsMTItNGw0LDR2NWwyLTEuN2MwLDAsMC0xLjUsMC0yLjNjMC00LTEtOC02LTlsLTEtMiBIMjR6Ii8+JiN4YTsgICAgPGcgZmlsbD0iIzc4NDcxOSI+JiN4YTsgICAgICAgIDxjaXJjbGUgY3g9IjI4IiBjeT0iMTkiIHI9IjEiLz4mI3hhOyAgICAgICAgPGNpcmNsZSBjeD0iMjAiIGN5PSIxOSIgcj0iMSIvPiYjeGE7ICAgIDwvZz4mI3hhOyAgICA8cG9seWdvbiBmaWxsPSIjZmZmIiBwb2ludHM9IjI0LDQzIDE5LDMxIDI0LDMyIDI5LDMxIi8+JiN4YTsgICAgPHBvbHlnb24gZmlsbD0iI0QzMkYyRiIgcG9pbnRzPSIyMywzNSAyMi4zLDM5LjUgMjQsNDMuNSAyNS43LDM5LjUgMjUsMzUgMjYsMzQgMjQsMzIgMjIsMzQiLz4mI3hhOyAgICA8cGF0aCBmaWxsPSIjNTQ2RTdBIiBkPSJNMjksMzFMMjksMzFsLTUsMTJsLTUtMTJjMCwwLTExLDItMTEsMTNoMzJDNDAsMzMsMjksMzEsMjksMzF6Ii8+JiN4YTs8L3N2Zz4=;labelBackgroundColor=#ffffff;labelPosition=center;align=center;fontFamily=Verdana;" parent="xSr_pIsiUR_l6VejRI4v-1" vertex="1">
          <mxGeometry x="200" y="496" width="48" height="48" as="geometry" />
        </mxCell>
        <mxCell id="xSr_pIsiUR_l6VejRI4v-3" value="Client 3" style="shape=image;verticalLabelPosition=top;verticalAlign=bottom;imageAspect=0;aspect=fixed;image=data:image/svg+xml,PHN2ZyB4bWxucz0iaHR0cDovL3d3dy53My5vcmcvMjAwMC9zdmciIHZlcnNpb249IjEiIHZpZXdCb3g9IjAgMCA0OCA0OCIgZW5hYmxlLWJhY2tncm91bmQ9Im5ldyAwIDAgNDggNDgiPiYjeGE7ICAgIDxwb2x5Z29uIGZpbGw9IiNGRjk4MDAiIHBvaW50cz0iMjQsMzcgMTksMzEgMTksMjUgMjksMjUgMjksMzEiLz4mI3hhOyAgICA8ZyBmaWxsPSIjRkZBNzI2Ij4mI3hhOyAgICAgICAgPGNpcmNsZSBjeD0iMzMiIGN5PSIxOSIgcj0iMiIvPiYjeGE7ICAgICAgICA8Y2lyY2xlIGN4PSIxNSIgY3k9IjE5IiByPSIyIi8+JiN4YTsgICAgPC9nPiYjeGE7ICAgIDxwYXRoIGZpbGw9IiNGRkI3NEQiIGQ9Ik0zMywxM2MwLTcuNi0xOC01LTE4LDBjMCwxLjEsMCw1LjksMCw3YzAsNSw0LDksOSw5czktNCw5LTlDMzMsMTguOSwzMywxNC4xLDMzLDEzeiIvPiYjeGE7ICAgIDxwYXRoIGZpbGw9IiM0MjQyNDIiIGQ9Ik0yNCw0Yy02LjEsMC0xMCw0LjktMTAsMTFjMCwwLjgsMCwyLjMsMCwyLjNsMiwxLjd2LTVsMTItNGw0LDR2NWwyLTEuN2MwLDAsMC0xLjUsMC0yLjNjMC00LTEtOC02LTlsLTEtMiBIMjR6Ii8+JiN4YTsgICAgPGcgZmlsbD0iIzc4NDcxOSI+JiN4YTsgICAgICAgIDxjaXJjbGUgY3g9IjI4IiBjeT0iMTkiIHI9IjEiLz4mI3hhOyAgICAgICAgPGNpcmNsZSBjeD0iMjAiIGN5PSIxOSIgcj0iMSIvPiYjeGE7ICAgIDwvZz4mI3hhOyAgICA8cG9seWdvbiBmaWxsPSIjZmZmIiBwb2ludHM9IjI0LDQzIDE5LDMxIDI0LDMyIDI5LDMxIi8+JiN4YTsgICAgPHBvbHlnb24gZmlsbD0iI0QzMkYyRiIgcG9pbnRzPSIyMywzNSAyMi4zLDM5LjUgMjQsNDMuNSAyNS43LDM5LjUgMjUsMzUgMjYsMzQgMjQsMzIgMjIsMzQiLz4mI3hhOyAgICA8cGF0aCBmaWxsPSIjNTQ2RTdBIiBkPSJNMjksMzFMMjksMzFsLTUsMTJsLTUtMTJjMCwwLTExLDItMTEsMTNoMzJDNDAsMzMsMjksMzEsMjksMzF6Ii8+JiN4YTs8L3N2Zz4=;labelBackgroundColor=#ffffff;labelPosition=center;align=center;fontFamily=Verdana;" parent="xSr_pIsiUR_l6VejRI4v-1" vertex="1">
          <mxGeometry x="336" y="351" width="48" height="48" as="geometry" />
        </mxCell>
        <mxCell id="xSr_pIsiUR_l6VejRI4v-4" value="Client 2" style="shape=image;verticalLabelPosition=bottom;verticalAlign=top;imageAspect=0;aspect=fixed;image=data:image/svg+xml,PHN2ZyB4bWxucz0iaHR0cDovL3d3dy53My5vcmcvMjAwMC9zdmciIHZlcnNpb249IjEiIHZpZXdCb3g9IjAgMCA0OCA0OCIgZW5hYmxlLWJhY2tncm91bmQ9Im5ldyAwIDAgNDggNDgiPiYjeGE7ICAgIDxwb2x5Z29uIGZpbGw9IiNGRjk4MDAiIHBvaW50cz0iMjQsMzcgMTksMzEgMTksMjUgMjksMjUgMjksMzEiLz4mI3hhOyAgICA8ZyBmaWxsPSIjRkZBNzI2Ij4mI3hhOyAgICAgICAgPGNpcmNsZSBjeD0iMzMiIGN5PSIxOSIgcj0iMiIvPiYjeGE7ICAgICAgICA8Y2lyY2xlIGN4PSIxNSIgY3k9IjE5IiByPSIyIi8+JiN4YTsgICAgPC9nPiYjeGE7ICAgIDxwYXRoIGZpbGw9IiNGRkI3NEQiIGQ9Ik0zMywxM2MwLTcuNi0xOC01LTE4LDBjMCwxLjEsMCw1LjksMCw3YzAsNSw0LDksOSw5czktNCw5LTlDMzMsMTguOSwzMywxNC4xLDMzLDEzeiIvPiYjeGE7ICAgIDxwYXRoIGZpbGw9IiM0MjQyNDIiIGQ9Ik0yNCw0Yy02LjEsMC0xMCw0LjktMTAsMTFjMCwwLjgsMCwyLjMsMCwyLjNsMiwxLjd2LTVsMTItNGw0LDR2NWwyLTEuN2MwLDAsMC0xLjUsMC0yLjNjMC00LTEtOC02LTlsLTEtMiBIMjR6Ii8+JiN4YTsgICAgPGcgZmlsbD0iIzc4NDcxOSI+JiN4YTsgICAgICAgIDxjaXJjbGUgY3g9IjI4IiBjeT0iMTkiIHI9IjEiLz4mI3hhOyAgICAgICAgPGNpcmNsZSBjeD0iMjAiIGN5PSIxOSIgcj0iMSIvPiYjeGE7ICAgIDwvZz4mI3hhOyAgICA8cG9seWdvbiBmaWxsPSIjZmZmIiBwb2ludHM9IjI0LDQzIDE5LDMxIDI0LDMyIDI5LDMxIi8+JiN4YTsgICAgPHBvbHlnb24gZmlsbD0iI0QzMkYyRiIgcG9pbnRzPSIyMywzNSAyMi4zLDM5LjUgMjQsNDMuNSAyNS43LDM5LjUgMjUsMzUgMjYsMzQgMjQsMzIgMjIsMzQiLz4mI3hhOyAgICA8cGF0aCBmaWxsPSIjNTQ2RTdBIiBkPSJNMjksMzFMMjksMzFsLTUsMTJsLTUtMTJjMCwwLTExLDItMTEsMTNoMzJDNDAsMzMsMjksMzEsMjksMzF6Ii8+JiN4YTs8L3N2Zz4=;labelBackgroundColor=#ffffff;align=center;labelPosition=center;fontFamily=Verdana;" parent="xSr_pIsiUR_l6VejRI4v-1" vertex="1">
          <mxGeometry x="480" y="496" width="48" height="48" as="geometry" />
        </mxCell>
        <mxCell id="xSr_pIsiUR_l6VejRI4v-5" style="rounded=0;orthogonalLoop=1;jettySize=auto;html=1;sourcePerimeterSpacing=5;endArrow=none;endFill=0;targetPerimeterSpacing=5;fillColor=#f8cecc;strokeColor=#B85450;strokeWidth=3;sketch=0;startArrow=classic;startFill=1;entryX=1;entryY=1;entryDx=0;entryDy=0;exitX=0;exitY=0;exitDx=0;exitDy=0;" parent="xSr_pIsiUR_l6VejRI4v-1" source="xSr_pIsiUR_l6VejRI4v-4" target="xSr_pIsiUR_l6VejRI4v-3" edge="1">
          <mxGeometry relative="1" as="geometry">
            <mxPoint x="320" y="674.2655601659751" as="sourcePoint" />
            <mxPoint x="532" y="530" as="targetPoint" />
          </mxGeometry>
        </mxCell>
        <mxCell id="xSr_pIsiUR_l6VejRI4v-6" style="rounded=0;orthogonalLoop=1;jettySize=auto;html=1;sourcePerimeterSpacing=5;endArrow=none;endFill=0;targetPerimeterSpacing=5;fillColor=#f8cecc;strokeColor=#B85450;strokeWidth=3;sketch=0;startArrow=classic;startFill=1;exitX=1;exitY=0;exitDx=0;exitDy=0;entryX=0;entryY=1;entryDx=0;entryDy=0;" parent="xSr_pIsiUR_l6VejRI4v-1" source="xSr_pIsiUR_l6VejRI4v-2" target="xSr_pIsiUR_l6VejRI4v-3" edge="1">
          <mxGeometry relative="1" as="geometry">
            <mxPoint x="384" y="705" as="sourcePoint" />
            <mxPoint x="340" y="400" as="targetPoint" />
          </mxGeometry>
        </mxCell>
        <mxCell id="xSr_pIsiUR_l6VejRI4v-7" style="rounded=0;orthogonalLoop=1;jettySize=auto;html=1;sourcePerimeterSpacing=5;endArrow=classic;endFill=1;targetPerimeterSpacing=5;fillColor=#f8cecc;strokeColor=#B85450;strokeWidth=3;sketch=0;startArrow=none;startFill=0;entryX=0;entryY=0.5;entryDx=0;entryDy=0;exitX=1;exitY=0.5;exitDx=0;exitDy=0;" parent="xSr_pIsiUR_l6VejRI4v-1" source="xSr_pIsiUR_l6VejRI4v-2" target="xSr_pIsiUR_l6VejRI4v-4" edge="1">
          <mxGeometry relative="1" as="geometry">
            <mxPoint x="186" y="506" as="sourcePoint" />
            <mxPoint x="360" y="346" as="targetPoint" />
          </mxGeometry>
        </mxCell>
        <mxCell id="xSr_pIsiUR_l6VejRI4v-12" style="edgeStyle=none;rounded=0;sketch=0;orthogonalLoop=1;jettySize=auto;html=1;entryX=0;entryY=0.5;entryDx=0;entryDy=0;startArrow=classic;startFill=0;endArrow=classic;endFill=0;targetPerimeterSpacing=5;strokeColor=#B85450;strokeWidth=2;" parent="xSr_pIsiUR_l6VejRI4v-1" edge="1">
          <mxGeometry relative="1" as="geometry">
            <mxPoint x="550" y="520" as="sourcePoint" />
            <mxPoint x="550" y="520" as="targetPoint" />
          </mxGeometry>
        </mxCell>
        <mxCell id="tnszPtPlgh6YmG32ltQc-0" value="flux" style="edgeStyle=none;rounded=0;orthogonalLoop=1;jettySize=auto;html=1;sourcePerimeterSpacing=5;endArrow=classic;endFill=1;targetPerimeterSpacing=5;fillColor=#f8cecc;strokeColor=#b85450;startArrow=none;startFill=0;strokeWidth=2;fontFamily=Verdana;labelPosition=right;verticalLabelPosition=middle;align=left;verticalAlign=middle;spacingRight=0;spacingLeft=40;" parent="xSr_pIsiUR_l6VejRI4v-1" edge="1">
          <mxGeometry relative="1" as="geometry">
            <mxPoint x="200" y="600" as="sourcePoint" />
            <mxPoint x="270" y="600" as="targetPoint" />
          </mxGeometry>
        </mxCell>
        <mxCell id="pybdTxwawAQm3cIJRQob-0" style="rounded=0;orthogonalLoop=1;jettySize=auto;html=1;sourcePerimeterSpacing=5;endArrow=none;endFill=0;targetPerimeterSpacing=5;fillColor=#f8cecc;strokeColor=#B85450;strokeWidth=3;sketch=0;startArrow=classic;startFill=1;entryX=0;entryY=0.5;entryDx=0;entryDy=0;exitX=1;exitY=0.5;exitDx=0;exitDy=0;" edge="1" parent="xSr_pIsiUR_l6VejRI4v-1">
          <mxGeometry relative="1" as="geometry">
            <mxPoint x="248" y="540.0000000000001" as="sourcePoint" />
            <mxPoint x="480" y="540.0000000000001" as="targetPoint" />
          </mxGeometry>
        </mxCell>
        <mxCell id="pybdTxwawAQm3cIJRQob-1" style="rounded=0;orthogonalLoop=1;jettySize=auto;html=1;sourcePerimeterSpacing=5;endArrow=classic;endFill=1;targetPerimeterSpacing=5;fillColor=#f8cecc;strokeColor=#B85450;strokeWidth=3;sketch=0;startArrow=none;startFill=0;exitX=0;exitY=0;exitDx=0;exitDy=0;" edge="1" parent="xSr_pIsiUR_l6VejRI4v-1">
          <mxGeometry relative="1" as="geometry">
            <mxPoint x="496" y="487" as="sourcePoint" />
            <mxPoint x="390" y="380" as="targetPoint" />
          </mxGeometry>
        </mxCell>
        <mxCell id="pybdTxwawAQm3cIJRQob-2" style="rounded=0;orthogonalLoop=1;jettySize=auto;html=1;sourcePerimeterSpacing=5;endArrow=classic;endFill=1;targetPerimeterSpacing=5;fillColor=#f8cecc;strokeColor=#B85450;strokeWidth=3;sketch=0;startArrow=none;startFill=0;" edge="1" parent="xSr_pIsiUR_l6VejRI4v-1">
          <mxGeometry relative="1" as="geometry">
            <mxPoint x="230" y="490" as="sourcePoint" />
            <mxPoint x="330" y="380" as="targetPoint" />
          </mxGeometry>
        </mxCell>
      </root>
    </mxGraphModel>
  </diagram>
  <diagram name="MCU" id="lLMCx2wW_2T32ZCofCM5">
    <mxGraphModel dx="834" dy="546" grid="1" gridSize="10" guides="1" tooltips="1" connect="1" arrows="1" fold="1" page="1" pageScale="1" pageWidth="827" pageHeight="1169" math="0" shadow="0">
      <root>
        <mxCell id="qw4WMUTWNBtu7uLmAK7z-0" />
        <mxCell id="qw4WMUTWNBtu7uLmAK7z-1" parent="qw4WMUTWNBtu7uLmAK7z-0" />
        <mxCell id="qw4WMUTWNBtu7uLmAK7z-2" style="edgeStyle=none;rounded=0;orthogonalLoop=1;jettySize=auto;html=1;sourcePerimeterSpacing=5;endArrow=classic;endFill=1;targetPerimeterSpacing=5;fillColor=#f8cecc;strokeColor=#b85450;startArrow=none;startFill=0;strokeWidth=2;exitX=1;exitY=0.25;exitDx=0;exitDy=0;entryX=-0.008;entryY=0.359;entryDx=0;entryDy=0;entryPerimeter=0;" parent="qw4WMUTWNBtu7uLmAK7z-1" source="qw4WMUTWNBtu7uLmAK7z-3" target="qw4WMUTWNBtu7uLmAK7z-4" edge="1">
          <mxGeometry relative="1" as="geometry">
            <mxPoint x="142.64563106796118" y="43" as="targetPoint" />
          </mxGeometry>
        </mxCell>
        <mxCell id="qw4WMUTWNBtu7uLmAK7z-3" value="Client 3" style="shape=image;verticalLabelPosition=bottom;verticalAlign=top;imageAspect=0;aspect=fixed;image=data:image/svg+xml,PHN2ZyB4bWxucz0iaHR0cDovL3d3dy53My5vcmcvMjAwMC9zdmciIHZlcnNpb249IjEiIHZpZXdCb3g9IjAgMCA0OCA0OCIgZW5hYmxlLWJhY2tncm91bmQ9Im5ldyAwIDAgNDggNDgiPiYjeGE7ICAgIDxwb2x5Z29uIGZpbGw9IiNGRjk4MDAiIHBvaW50cz0iMjQsMzcgMTksMzEgMTksMjUgMjksMjUgMjksMzEiLz4mI3hhOyAgICA8ZyBmaWxsPSIjRkZBNzI2Ij4mI3hhOyAgICAgICAgPGNpcmNsZSBjeD0iMzMiIGN5PSIxOSIgcj0iMiIvPiYjeGE7ICAgICAgICA8Y2lyY2xlIGN4PSIxNSIgY3k9IjE5IiByPSIyIi8+JiN4YTsgICAgPC9nPiYjeGE7ICAgIDxwYXRoIGZpbGw9IiNGRkI3NEQiIGQ9Ik0zMywxM2MwLTcuNi0xOC01LTE4LDBjMCwxLjEsMCw1LjksMCw3YzAsNSw0LDksOSw5czktNCw5LTlDMzMsMTguOSwzMywxNC4xLDMzLDEzeiIvPiYjeGE7ICAgIDxwYXRoIGZpbGw9IiM0MjQyNDIiIGQ9Ik0yNCw0Yy02LjEsMC0xMCw0LjktMTAsMTFjMCwwLjgsMCwyLjMsMCwyLjNsMiwxLjd2LTVsMTItNGw0LDR2NWwyLTEuN2MwLDAsMC0xLjUsMC0yLjNjMC00LTEtOC02LTlsLTEtMiBIMjR6Ii8+JiN4YTsgICAgPGcgZmlsbD0iIzc4NDcxOSI+JiN4YTsgICAgICAgIDxjaXJjbGUgY3g9IjI4IiBjeT0iMTkiIHI9IjEiLz4mI3hhOyAgICAgICAgPGNpcmNsZSBjeD0iMjAiIGN5PSIxOSIgcj0iMSIvPiYjeGE7ICAgIDwvZz4mI3hhOyAgICA8cG9seWdvbiBmaWxsPSIjZmZmIiBwb2ludHM9IjI0LDQzIDE5LDMxIDI0LDMyIDI5LDMxIi8+JiN4YTsgICAgPHBvbHlnb24gZmlsbD0iI0QzMkYyRiIgcG9pbnRzPSIyMywzNSAyMi4zLDM5LjUgMjQsNDMuNSAyNS43LDM5LjUgMjUsMzUgMjYsMzQgMjQsMzIgMjIsMzQiLz4mI3hhOyAgICA8cGF0aCBmaWxsPSIjNTQ2RTdBIiBkPSJNMjksMzFMMjksMzFsLTUsMTJsLTUtMTJjMCwwLTExLDItMTEsMTNoMzJDNDAsMzMsMjksMzEsMjksMzF6Ii8+JiN4YTs8L3N2Zz4=;labelBackgroundColor=#ffffff;labelPosition=center;align=center;fontFamily=Verdana;" parent="qw4WMUTWNBtu7uLmAK7z-1" vertex="1">
          <mxGeometry x="110" y="236" width="48" height="48" as="geometry" />
        </mxCell>
        <mxCell id="qw4WMUTWNBtu7uLmAK7z-4" value="Serveur applicatif" style="image;html=1;image=img/lib/clip_art/networking/Print_Server_128x128.png;labelPosition=center;verticalLabelPosition=top;align=center;verticalAlign=bottom;fontFamily=Verdana;" parent="qw4WMUTWNBtu7uLmAK7z-1" vertex="1">
          <mxGeometry x="254" y="220" width="80" height="80" as="geometry" />
        </mxCell>
        <mxCell id="qw4WMUTWNBtu7uLmAK7z-5" value="Client 2" style="shape=image;verticalLabelPosition=bottom;verticalAlign=top;imageAspect=0;aspect=fixed;image=data:image/svg+xml,PHN2ZyB4bWxucz0iaHR0cDovL3d3dy53My5vcmcvMjAwMC9zdmciIHZlcnNpb249IjEiIHZpZXdCb3g9IjAgMCA0OCA0OCIgZW5hYmxlLWJhY2tncm91bmQ9Im5ldyAwIDAgNDggNDgiPiYjeGE7ICAgIDxwb2x5Z29uIGZpbGw9IiNGRjk4MDAiIHBvaW50cz0iMjQsMzcgMTksMzEgMTksMjUgMjksMjUgMjksMzEiLz4mI3hhOyAgICA8ZyBmaWxsPSIjRkZBNzI2Ij4mI3hhOyAgICAgICAgPGNpcmNsZSBjeD0iMzMiIGN5PSIxOSIgcj0iMiIvPiYjeGE7ICAgICAgICA8Y2lyY2xlIGN4PSIxNSIgY3k9IjE5IiByPSIyIi8+JiN4YTsgICAgPC9nPiYjeGE7ICAgIDxwYXRoIGZpbGw9IiNGRkI3NEQiIGQ9Ik0zMywxM2MwLTcuNi0xOC01LTE4LDBjMCwxLjEsMCw1LjksMCw3YzAsNSw0LDksOSw5czktNCw5LTlDMzMsMTguOSwzMywxNC4xLDMzLDEzeiIvPiYjeGE7ICAgIDxwYXRoIGZpbGw9IiM0MjQyNDIiIGQ9Ik0yNCw0Yy02LjEsMC0xMCw0LjktMTAsMTFjMCwwLjgsMCwyLjMsMCwyLjNsMiwxLjd2LTVsMTItNGw0LDR2NWwyLTEuN2MwLDAsMC0xLjUsMC0yLjNjMC00LTEtOC02LTlsLTEtMiBIMjR6Ii8+JiN4YTsgICAgPGcgZmlsbD0iIzc4NDcxOSI+JiN4YTsgICAgICAgIDxjaXJjbGUgY3g9IjI4IiBjeT0iMTkiIHI9IjEiLz4mI3hhOyAgICAgICAgPGNpcmNsZSBjeD0iMjAiIGN5PSIxOSIgcj0iMSIvPiYjeGE7ICAgIDwvZz4mI3hhOyAgICA8cG9seWdvbiBmaWxsPSIjZmZmIiBwb2ludHM9IjI0LDQzIDE5LDMxIDI0LDMyIDI5LDMxIi8+JiN4YTsgICAgPHBvbHlnb24gZmlsbD0iI0QzMkYyRiIgcG9pbnRzPSIyMywzNSAyMi4zLDM5LjUgMjQsNDMuNSAyNS43LDM5LjUgMjUsMzUgMjYsMzQgMjQsMzIgMjIsMzQiLz4mI3hhOyAgICA8cGF0aCBmaWxsPSIjNTQ2RTdBIiBkPSJNMjksMzFMMjksMzFsLTUsMTJsLTUtMTJjMCwwLTExLDItMTEsMTNoMzJDNDAsMzMsMjksMzEsMjksMzF6Ii8+JiN4YTs8L3N2Zz4=;labelBackgroundColor=#ffffff;labelPosition=center;align=center;fontFamily=Verdana;" parent="qw4WMUTWNBtu7uLmAK7z-1" vertex="1">
          <mxGeometry x="430" y="236" width="48" height="48" as="geometry" />
        </mxCell>
        <mxCell id="qw4WMUTWNBtu7uLmAK7z-6" value="Client 1" style="shape=image;verticalLabelPosition=bottom;verticalAlign=top;imageAspect=0;aspect=fixed;image=data:image/svg+xml,PHN2ZyB4bWxucz0iaHR0cDovL3d3dy53My5vcmcvMjAwMC9zdmciIHZlcnNpb249IjEiIHZpZXdCb3g9IjAgMCA0OCA0OCIgZW5hYmxlLWJhY2tncm91bmQ9Im5ldyAwIDAgNDggNDgiPiYjeGE7ICAgIDxwb2x5Z29uIGZpbGw9IiNGRjk4MDAiIHBvaW50cz0iMjQsMzcgMTksMzEgMTksMjUgMjksMjUgMjksMzEiLz4mI3hhOyAgICA8ZyBmaWxsPSIjRkZBNzI2Ij4mI3hhOyAgICAgICAgPGNpcmNsZSBjeD0iMzMiIGN5PSIxOSIgcj0iMiIvPiYjeGE7ICAgICAgICA8Y2lyY2xlIGN4PSIxNSIgY3k9IjE5IiByPSIyIi8+JiN4YTsgICAgPC9nPiYjeGE7ICAgIDxwYXRoIGZpbGw9IiNGRkI3NEQiIGQ9Ik0zMywxM2MwLTcuNi0xOC01LTE4LDBjMCwxLjEsMCw1LjksMCw3YzAsNSw0LDksOSw5czktNCw5LTlDMzMsMTguOSwzMywxNC4xLDMzLDEzeiIvPiYjeGE7ICAgIDxwYXRoIGZpbGw9IiM0MjQyNDIiIGQ9Ik0yNCw0Yy02LjEsMC0xMCw0LjktMTAsMTFjMCwwLjgsMCwyLjMsMCwyLjNsMiwxLjd2LTVsMTItNGw0LDR2NWwyLTEuN2MwLDAsMC0xLjUsMC0yLjNjMC00LTEtOC02LTlsLTEtMiBIMjR6Ii8+JiN4YTsgICAgPGcgZmlsbD0iIzc4NDcxOSI+JiN4YTsgICAgICAgIDxjaXJjbGUgY3g9IjI4IiBjeT0iMTkiIHI9IjEiLz4mI3hhOyAgICAgICAgPGNpcmNsZSBjeD0iMjAiIGN5PSIxOSIgcj0iMSIvPiYjeGE7ICAgIDwvZz4mI3hhOyAgICA8cG9seWdvbiBmaWxsPSIjZmZmIiBwb2ludHM9IjI0LDQzIDE5LDMxIDI0LDMyIDI5LDMxIi8+JiN4YTsgICAgPHBvbHlnb24gZmlsbD0iI0QzMkYyRiIgcG9pbnRzPSIyMywzNSAyMi4zLDM5LjUgMjQsNDMuNSAyNS43LDM5LjUgMjUsMzUgMjYsMzQgMjQsMzIgMjIsMzQiLz4mI3hhOyAgICA8cGF0aCBmaWxsPSIjNTQ2RTdBIiBkPSJNMjksMzFMMjksMzFsLTUsMTJsLTUtMTJjMCwwLTExLDItMTEsMTNoMzJDNDAsMzMsMjksMzEsMjksMzF6Ii8+JiN4YTs8L3N2Zz4=;labelBackgroundColor=#ffffff;fontFamily=Verdana;" parent="qw4WMUTWNBtu7uLmAK7z-1" vertex="1">
          <mxGeometry x="270" y="380" width="48" height="48" as="geometry" />
        </mxCell>
        <mxCell id="qw4WMUTWNBtu7uLmAK7z-7" style="edgeStyle=none;rounded=0;orthogonalLoop=1;jettySize=auto;html=1;sourcePerimeterSpacing=5;endArrow=classic;endFill=1;targetPerimeterSpacing=5;fillColor=#f8cecc;strokeColor=#b85450;startArrow=none;startFill=0;strokeWidth=2;exitX=0;exitY=0.25;exitDx=0;exitDy=0;entryX=0.992;entryY=0.345;entryDx=0;entryDy=0;entryPerimeter=0;" parent="qw4WMUTWNBtu7uLmAK7z-1" source="qw4WMUTWNBtu7uLmAK7z-5" target="qw4WMUTWNBtu7uLmAK7z-4" edge="1">
          <mxGeometry relative="1" as="geometry">
            <mxPoint x="143" y="160" as="sourcePoint" />
            <mxPoint x="540" y="160" as="targetPoint" />
          </mxGeometry>
        </mxCell>
        <mxCell id="qw4WMUTWNBtu7uLmAK7z-8" style="edgeStyle=none;rounded=0;orthogonalLoop=1;jettySize=auto;html=1;sourcePerimeterSpacing=5;endArrow=classic;endFill=1;targetPerimeterSpacing=5;fillColor=#f8cecc;strokeColor=#b85450;startArrow=none;startFill=0;strokeWidth=2;exitX=0.75;exitY=0;exitDx=0;exitDy=0;" parent="qw4WMUTWNBtu7uLmAK7z-1" source="qw4WMUTWNBtu7uLmAK7z-6" edge="1">
          <mxGeometry relative="1" as="geometry">
            <mxPoint x="218" y="-4" as="sourcePoint" />
            <mxPoint x="306" y="300" as="targetPoint" />
          </mxGeometry>
        </mxCell>
        <mxCell id="qw4WMUTWNBtu7uLmAK7z-10" style="edgeStyle=none;rounded=0;orthogonalLoop=1;jettySize=auto;html=1;sourcePerimeterSpacing=5;endArrow=classic;endFill=1;targetPerimeterSpacing=5;fillColor=#dae8fc;strokeColor=#6c8ebf;startArrow=none;startFill=0;strokeWidth=10;exitX=0.5;exitY=1;exitDx=0;exitDy=0;entryX=0.5;entryY=0;entryDx=0;entryDy=0;" parent="qw4WMUTWNBtu7uLmAK7z-1" edge="1">
          <mxGeometry relative="1" as="geometry">
            <mxPoint x="280" y="300" as="sourcePoint" />
            <mxPoint x="280" y="380" as="targetPoint" />
          </mxGeometry>
        </mxCell>
        <mxCell id="qw4WMUTWNBtu7uLmAK7z-12" style="edgeStyle=none;rounded=0;orthogonalLoop=1;jettySize=auto;html=1;sourcePerimeterSpacing=5;endArrow=classic;endFill=1;targetPerimeterSpacing=5;fillColor=#dae8fc;strokeColor=#6c8ebf;startArrow=none;startFill=0;strokeWidth=10;exitX=0.007;exitY=0.649;exitDx=0;exitDy=0;exitPerimeter=0;entryX=1;entryY=0.75;entryDx=0;entryDy=0;" parent="qw4WMUTWNBtu7uLmAK7z-1" source="qw4WMUTWNBtu7uLmAK7z-4" target="qw4WMUTWNBtu7uLmAK7z-3" edge="1">
          <mxGeometry relative="1" as="geometry">
            <mxPoint x="254" y="280" as="sourcePoint" />
            <mxPoint x="160" y="280" as="targetPoint" />
          </mxGeometry>
        </mxCell>
        <mxCell id="qw4WMUTWNBtu7uLmAK7z-14" style="edgeStyle=none;rounded=0;orthogonalLoop=1;jettySize=auto;html=1;sourcePerimeterSpacing=5;endArrow=classic;endFill=1;targetPerimeterSpacing=5;fillColor=#dae8fc;strokeColor=#6c8ebf;startArrow=none;startFill=0;strokeWidth=10;" parent="qw4WMUTWNBtu7uLmAK7z-1" edge="1">
          <mxGeometry relative="1" as="geometry">
            <mxPoint x="340" y="270" as="sourcePoint" />
            <mxPoint x="430" y="270" as="targetPoint" />
          </mxGeometry>
        </mxCell>
        <mxCell id="qw4WMUTWNBtu7uLmAK7z-15" value="flux mixé" style="edgeStyle=none;rounded=0;orthogonalLoop=1;jettySize=auto;html=1;sourcePerimeterSpacing=5;endArrow=classic;endFill=1;targetPerimeterSpacing=5;fillColor=#dae8fc;strokeColor=#6c8ebf;startArrow=none;startFill=0;strokeWidth=10;fontFamily=Verdana;labelPosition=right;verticalLabelPosition=middle;align=left;verticalAlign=middle;spacingRight=0;spacingLeft=40;" parent="qw4WMUTWNBtu7uLmAK7z-1" edge="1">
          <mxGeometry relative="1" as="geometry">
            <mxPoint x="88" y="350" as="sourcePoint" />
            <mxPoint x="158" y="350" as="targetPoint" />
          </mxGeometry>
        </mxCell>
        <mxCell id="qw4WMUTWNBtu7uLmAK7z-16" value="flux original" style="edgeStyle=none;rounded=0;orthogonalLoop=1;jettySize=auto;html=1;sourcePerimeterSpacing=5;endArrow=classic;endFill=1;targetPerimeterSpacing=5;fillColor=#f8cecc;strokeColor=#b85450;startArrow=none;startFill=0;strokeWidth=2;fontFamily=Verdana;labelPosition=right;verticalLabelPosition=middle;align=left;verticalAlign=middle;spacingRight=0;spacingLeft=40;" parent="qw4WMUTWNBtu7uLmAK7z-1" edge="1">
          <mxGeometry relative="1" as="geometry">
            <mxPoint x="88" y="379.49" as="sourcePoint" />
            <mxPoint x="158" y="379.49" as="targetPoint" />
          </mxGeometry>
        </mxCell>
      </root>
    </mxGraphModel>
  </diagram>
  <diagram id="Ao6WqiiYYJvnr7iXg9I1" name="SFU">
    <mxGraphModel dx="484" dy="317" grid="1" gridSize="10" guides="1" tooltips="1" connect="1" arrows="1" fold="1" page="1" pageScale="1" pageWidth="827" pageHeight="1169" math="0" shadow="0">
      <root>
        <mxCell id="0" />
        <mxCell id="1" parent="0" />
        <mxCell id="nvavP_yNmH9J3yku74yw-1" style="edgeStyle=none;rounded=0;orthogonalLoop=1;jettySize=auto;html=1;sourcePerimeterSpacing=5;endArrow=classic;endFill=1;targetPerimeterSpacing=5;fillColor=#f8cecc;strokeColor=#b85450;startArrow=none;startFill=0;strokeWidth=2;exitX=1;exitY=0.25;exitDx=0;exitDy=0;entryX=-0.008;entryY=0.359;entryDx=0;entryDy=0;entryPerimeter=0;" parent="1" source="nvavP_yNmH9J3yku74yw-2" target="nvavP_yNmH9J3yku74yw-3" edge="1">
          <mxGeometry relative="1" as="geometry">
            <mxPoint x="142.64563106796118" y="43" as="targetPoint" />
          </mxGeometry>
        </mxCell>
        <mxCell id="nvavP_yNmH9J3yku74yw-2" value="Client 3" style="shape=image;verticalLabelPosition=bottom;verticalAlign=top;imageAspect=0;aspect=fixed;image=data:image/svg+xml,PHN2ZyB4bWxucz0iaHR0cDovL3d3dy53My5vcmcvMjAwMC9zdmciIHZlcnNpb249IjEiIHZpZXdCb3g9IjAgMCA0OCA0OCIgZW5hYmxlLWJhY2tncm91bmQ9Im5ldyAwIDAgNDggNDgiPiYjeGE7ICAgIDxwb2x5Z29uIGZpbGw9IiNGRjk4MDAiIHBvaW50cz0iMjQsMzcgMTksMzEgMTksMjUgMjksMjUgMjksMzEiLz4mI3hhOyAgICA8ZyBmaWxsPSIjRkZBNzI2Ij4mI3hhOyAgICAgICAgPGNpcmNsZSBjeD0iMzMiIGN5PSIxOSIgcj0iMiIvPiYjeGE7ICAgICAgICA8Y2lyY2xlIGN4PSIxNSIgY3k9IjE5IiByPSIyIi8+JiN4YTsgICAgPC9nPiYjeGE7ICAgIDxwYXRoIGZpbGw9IiNGRkI3NEQiIGQ9Ik0zMywxM2MwLTcuNi0xOC01LTE4LDBjMCwxLjEsMCw1LjksMCw3YzAsNSw0LDksOSw5czktNCw5LTlDMzMsMTguOSwzMywxNC4xLDMzLDEzeiIvPiYjeGE7ICAgIDxwYXRoIGZpbGw9IiM0MjQyNDIiIGQ9Ik0yNCw0Yy02LjEsMC0xMCw0LjktMTAsMTFjMCwwLjgsMCwyLjMsMCwyLjNsMiwxLjd2LTVsMTItNGw0LDR2NWwyLTEuN2MwLDAsMC0xLjUsMC0yLjNjMC00LTEtOC02LTlsLTEtMiBIMjR6Ii8+JiN4YTsgICAgPGcgZmlsbD0iIzc4NDcxOSI+JiN4YTsgICAgICAgIDxjaXJjbGUgY3g9IjI4IiBjeT0iMTkiIHI9IjEiLz4mI3hhOyAgICAgICAgPGNpcmNsZSBjeD0iMjAiIGN5PSIxOSIgcj0iMSIvPiYjeGE7ICAgIDwvZz4mI3hhOyAgICA8cG9seWdvbiBmaWxsPSIjZmZmIiBwb2ludHM9IjI0LDQzIDE5LDMxIDI0LDMyIDI5LDMxIi8+JiN4YTsgICAgPHBvbHlnb24gZmlsbD0iI0QzMkYyRiIgcG9pbnRzPSIyMywzNSAyMi4zLDM5LjUgMjQsNDMuNSAyNS43LDM5LjUgMjUsMzUgMjYsMzQgMjQsMzIgMjIsMzQiLz4mI3hhOyAgICA8cGF0aCBmaWxsPSIjNTQ2RTdBIiBkPSJNMjksMzFMMjksMzFsLTUsMTJsLTUtMTJjMCwwLTExLDItMTEsMTNoMzJDNDAsMzMsMjksMzEsMjksMzF6Ii8+JiN4YTs8L3N2Zz4=;labelBackgroundColor=#ffffff;labelPosition=center;align=center;fontFamily=Verdana;" parent="1" vertex="1">
          <mxGeometry x="110" y="236" width="48" height="48" as="geometry" />
        </mxCell>
        <mxCell id="nvavP_yNmH9J3yku74yw-3" value="Serveur applicatif" style="image;html=1;image=img/lib/clip_art/networking/Print_Server_128x128.png;labelPosition=center;verticalLabelPosition=top;align=center;verticalAlign=bottom;fontFamily=Verdana;" parent="1" vertex="1">
          <mxGeometry x="254" y="220" width="80" height="80" as="geometry" />
        </mxCell>
        <mxCell id="nvavP_yNmH9J3yku74yw-4" value="Client 2" style="shape=image;verticalLabelPosition=bottom;verticalAlign=top;imageAspect=0;aspect=fixed;image=data:image/svg+xml,PHN2ZyB4bWxucz0iaHR0cDovL3d3dy53My5vcmcvMjAwMC9zdmciIHZlcnNpb249IjEiIHZpZXdCb3g9IjAgMCA0OCA0OCIgZW5hYmxlLWJhY2tncm91bmQ9Im5ldyAwIDAgNDggNDgiPiYjeGE7ICAgIDxwb2x5Z29uIGZpbGw9IiNGRjk4MDAiIHBvaW50cz0iMjQsMzcgMTksMzEgMTksMjUgMjksMjUgMjksMzEiLz4mI3hhOyAgICA8ZyBmaWxsPSIjRkZBNzI2Ij4mI3hhOyAgICAgICAgPGNpcmNsZSBjeD0iMzMiIGN5PSIxOSIgcj0iMiIvPiYjeGE7ICAgICAgICA8Y2lyY2xlIGN4PSIxNSIgY3k9IjE5IiByPSIyIi8+JiN4YTsgICAgPC9nPiYjeGE7ICAgIDxwYXRoIGZpbGw9IiNGRkI3NEQiIGQ9Ik0zMywxM2MwLTcuNi0xOC01LTE4LDBjMCwxLjEsMCw1LjksMCw3YzAsNSw0LDksOSw5czktNCw5LTlDMzMsMTguOSwzMywxNC4xLDMzLDEzeiIvPiYjeGE7ICAgIDxwYXRoIGZpbGw9IiM0MjQyNDIiIGQ9Ik0yNCw0Yy02LjEsMC0xMCw0LjktMTAsMTFjMCwwLjgsMCwyLjMsMCwyLjNsMiwxLjd2LTVsMTItNGw0LDR2NWwyLTEuN2MwLDAsMC0xLjUsMC0yLjNjMC00LTEtOC02LTlsLTEtMiBIMjR6Ii8+JiN4YTsgICAgPGcgZmlsbD0iIzc4NDcxOSI+JiN4YTsgICAgICAgIDxjaXJjbGUgY3g9IjI4IiBjeT0iMTkiIHI9IjEiLz4mI3hhOyAgICAgICAgPGNpcmNsZSBjeD0iMjAiIGN5PSIxOSIgcj0iMSIvPiYjeGE7ICAgIDwvZz4mI3hhOyAgICA8cG9seWdvbiBmaWxsPSIjZmZmIiBwb2ludHM9IjI0LDQzIDE5LDMxIDI0LDMyIDI5LDMxIi8+JiN4YTsgICAgPHBvbHlnb24gZmlsbD0iI0QzMkYyRiIgcG9pbnRzPSIyMywzNSAyMi4zLDM5LjUgMjQsNDMuNSAyNS43LDM5LjUgMjUsMzUgMjYsMzQgMjQsMzIgMjIsMzQiLz4mI3hhOyAgICA8cGF0aCBmaWxsPSIjNTQ2RTdBIiBkPSJNMjksMzFMMjksMzFsLTUsMTJsLTUtMTJjMCwwLTExLDItMTEsMTNoMzJDNDAsMzMsMjksMzEsMjksMzF6Ii8+JiN4YTs8L3N2Zz4=;labelBackgroundColor=#ffffff;labelPosition=center;align=center;fontFamily=Verdana;" parent="1" vertex="1">
          <mxGeometry x="430" y="236" width="48" height="48" as="geometry" />
        </mxCell>
        <mxCell id="nvavP_yNmH9J3yku74yw-5" value="Client 1" style="shape=image;verticalLabelPosition=bottom;verticalAlign=top;imageAspect=0;aspect=fixed;image=data:image/svg+xml,PHN2ZyB4bWxucz0iaHR0cDovL3d3dy53My5vcmcvMjAwMC9zdmciIHZlcnNpb249IjEiIHZpZXdCb3g9IjAgMCA0OCA0OCIgZW5hYmxlLWJhY2tncm91bmQ9Im5ldyAwIDAgNDggNDgiPiYjeGE7ICAgIDxwb2x5Z29uIGZpbGw9IiNGRjk4MDAiIHBvaW50cz0iMjQsMzcgMTksMzEgMTksMjUgMjksMjUgMjksMzEiLz4mI3hhOyAgICA8ZyBmaWxsPSIjRkZBNzI2Ij4mI3hhOyAgICAgICAgPGNpcmNsZSBjeD0iMzMiIGN5PSIxOSIgcj0iMiIvPiYjeGE7ICAgICAgICA8Y2lyY2xlIGN4PSIxNSIgY3k9IjE5IiByPSIyIi8+JiN4YTsgICAgPC9nPiYjeGE7ICAgIDxwYXRoIGZpbGw9IiNGRkI3NEQiIGQ9Ik0zMywxM2MwLTcuNi0xOC01LTE4LDBjMCwxLjEsMCw1LjksMCw3YzAsNSw0LDksOSw5czktNCw5LTlDMzMsMTguOSwzMywxNC4xLDMzLDEzeiIvPiYjeGE7ICAgIDxwYXRoIGZpbGw9IiM0MjQyNDIiIGQ9Ik0yNCw0Yy02LjEsMC0xMCw0LjktMTAsMTFjMCwwLjgsMCwyLjMsMCwyLjNsMiwxLjd2LTVsMTItNGw0LDR2NWwyLTEuN2MwLDAsMC0xLjUsMC0yLjNjMC00LTEtOC02LTlsLTEtMiBIMjR6Ii8+JiN4YTsgICAgPGcgZmlsbD0iIzc4NDcxOSI+JiN4YTsgICAgICAgIDxjaXJjbGUgY3g9IjI4IiBjeT0iMTkiIHI9IjEiLz4mI3hhOyAgICAgICAgPGNpcmNsZSBjeD0iMjAiIGN5PSIxOSIgcj0iMSIvPiYjeGE7ICAgIDwvZz4mI3hhOyAgICA8cG9seWdvbiBmaWxsPSIjZmZmIiBwb2ludHM9IjI0LDQzIDE5LDMxIDI0LDMyIDI5LDMxIi8+JiN4YTsgICAgPHBvbHlnb24gZmlsbD0iI0QzMkYyRiIgcG9pbnRzPSIyMywzNSAyMi4zLDM5LjUgMjQsNDMuNSAyNS43LDM5LjUgMjUsMzUgMjYsMzQgMjQsMzIgMjIsMzQiLz4mI3hhOyAgICA8cGF0aCBmaWxsPSIjNTQ2RTdBIiBkPSJNMjksMzFMMjksMzFsLTUsMTJsLTUtMTJjMCwwLTExLDItMTEsMTNoMzJDNDAsMzMsMjksMzEsMjksMzF6Ii8+JiN4YTs8L3N2Zz4=;labelBackgroundColor=#ffffff;fontFamily=Verdana;" parent="1" vertex="1">
          <mxGeometry x="270" y="380" width="48" height="48" as="geometry" />
        </mxCell>
        <mxCell id="nvavP_yNmH9J3yku74yw-9" style="edgeStyle=none;rounded=0;orthogonalLoop=1;jettySize=auto;html=1;sourcePerimeterSpacing=5;endArrow=classic;endFill=1;targetPerimeterSpacing=5;fillColor=#f8cecc;strokeColor=#b85450;startArrow=none;startFill=0;strokeWidth=2;exitX=0;exitY=0.25;exitDx=0;exitDy=0;entryX=0.992;entryY=0.345;entryDx=0;entryDy=0;entryPerimeter=0;" parent="1" source="nvavP_yNmH9J3yku74yw-4" target="nvavP_yNmH9J3yku74yw-3" edge="1">
          <mxGeometry relative="1" as="geometry">
            <mxPoint x="143" y="160" as="sourcePoint" />
            <mxPoint x="540" y="160" as="targetPoint" />
          </mxGeometry>
        </mxCell>
        <mxCell id="nvavP_yNmH9J3yku74yw-10" style="edgeStyle=none;rounded=0;orthogonalLoop=1;jettySize=auto;html=1;sourcePerimeterSpacing=5;endArrow=classic;endFill=1;targetPerimeterSpacing=5;fillColor=#f8cecc;strokeColor=#b85450;startArrow=none;startFill=0;strokeWidth=2;exitX=0.75;exitY=0;exitDx=0;exitDy=0;" parent="1" source="nvavP_yNmH9J3yku74yw-5" edge="1">
          <mxGeometry relative="1" as="geometry">
            <mxPoint x="218" y="-4" as="sourcePoint" />
            <mxPoint x="306" y="300" as="targetPoint" />
          </mxGeometry>
        </mxCell>
        <mxCell id="EaBxQI_xwLweBcyJRziy-2" style="edgeStyle=none;rounded=0;orthogonalLoop=1;jettySize=auto;html=1;sourcePerimeterSpacing=5;endArrow=classic;endFill=1;targetPerimeterSpacing=5;fillColor=#dae8fc;strokeColor=#6c8ebf;startArrow=none;startFill=0;strokeWidth=2;exitX=0.5;exitY=1;exitDx=0;exitDy=0;entryX=0.5;entryY=0;entryDx=0;entryDy=0;" parent="1" edge="1">
          <mxGeometry relative="1" as="geometry">
            <mxPoint x="280" y="300" as="sourcePoint" />
            <mxPoint x="280" y="380" as="targetPoint" />
          </mxGeometry>
        </mxCell>
        <mxCell id="EaBxQI_xwLweBcyJRziy-3" style="edgeStyle=none;rounded=0;orthogonalLoop=1;jettySize=auto;html=1;sourcePerimeterSpacing=5;endArrow=classic;endFill=1;targetPerimeterSpacing=5;fillColor=#dae8fc;strokeColor=#6c8ebf;startArrow=none;startFill=0;strokeWidth=2;exitX=0;exitY=0.5;exitDx=0;exitDy=0;entryX=1;entryY=0.5;entryDx=0;entryDy=0;" parent="1" source="nvavP_yNmH9J3yku74yw-3" target="nvavP_yNmH9J3yku74yw-2" edge="1">
          <mxGeometry relative="1" as="geometry">
            <mxPoint x="210" y="240" as="sourcePoint" />
            <mxPoint x="210" y="320" as="targetPoint" />
          </mxGeometry>
        </mxCell>
        <mxCell id="EaBxQI_xwLweBcyJRziy-4" style="edgeStyle=none;rounded=0;orthogonalLoop=1;jettySize=auto;html=1;sourcePerimeterSpacing=5;endArrow=classic;endFill=1;targetPerimeterSpacing=5;fillColor=#dae8fc;strokeColor=#6c8ebf;startArrow=none;startFill=0;strokeWidth=2;exitX=0.016;exitY=0.673;exitDx=0;exitDy=0;entryX=1;entryY=0.75;entryDx=0;entryDy=0;exitPerimeter=0;" parent="1" source="nvavP_yNmH9J3yku74yw-3" target="nvavP_yNmH9J3yku74yw-2" edge="1">
          <mxGeometry relative="1" as="geometry">
            <mxPoint x="254" y="280" as="sourcePoint" />
            <mxPoint x="158" y="280" as="targetPoint" />
          </mxGeometry>
        </mxCell>
        <mxCell id="EaBxQI_xwLweBcyJRziy-5" style="edgeStyle=none;rounded=0;orthogonalLoop=1;jettySize=auto;html=1;sourcePerimeterSpacing=5;endArrow=classic;endFill=1;targetPerimeterSpacing=5;fillColor=#dae8fc;strokeColor=#6c8ebf;startArrow=none;startFill=0;strokeWidth=2;entryX=0;entryY=0.5;entryDx=0;entryDy=0;" parent="1" target="nvavP_yNmH9J3yku74yw-4" edge="1">
          <mxGeometry relative="1" as="geometry">
            <mxPoint x="340" y="260" as="sourcePoint" />
            <mxPoint x="370" y="320" as="targetPoint" />
          </mxGeometry>
        </mxCell>
        <mxCell id="EaBxQI_xwLweBcyJRziy-6" style="edgeStyle=none;rounded=0;orthogonalLoop=1;jettySize=auto;html=1;sourcePerimeterSpacing=5;endArrow=classic;endFill=1;targetPerimeterSpacing=5;fillColor=#dae8fc;strokeColor=#6c8ebf;startArrow=none;startFill=0;strokeWidth=2;" parent="1" edge="1">
          <mxGeometry relative="1" as="geometry">
            <mxPoint x="340" y="270" as="sourcePoint" />
            <mxPoint x="430" y="270" as="targetPoint" />
          </mxGeometry>
        </mxCell>
        <mxCell id="EaBxQI_xwLweBcyJRziy-7" value="flux selectionné" style="edgeStyle=none;rounded=0;orthogonalLoop=1;jettySize=auto;html=1;sourcePerimeterSpacing=5;endArrow=classic;endFill=1;targetPerimeterSpacing=5;fillColor=#dae8fc;strokeColor=#6c8ebf;startArrow=none;startFill=0;strokeWidth=2;fontFamily=Verdana;labelPosition=right;verticalLabelPosition=middle;align=left;verticalAlign=middle;spacingRight=0;spacingLeft=40;" parent="1" edge="1">
          <mxGeometry relative="1" as="geometry">
            <mxPoint x="88" y="350" as="sourcePoint" />
            <mxPoint x="158" y="350" as="targetPoint" />
          </mxGeometry>
        </mxCell>
        <mxCell id="EaBxQI_xwLweBcyJRziy-8" value="flux original" style="edgeStyle=none;rounded=0;orthogonalLoop=1;jettySize=auto;html=1;sourcePerimeterSpacing=5;endArrow=classic;endFill=1;targetPerimeterSpacing=5;fillColor=#f8cecc;strokeColor=#b85450;startArrow=none;startFill=0;strokeWidth=2;fontFamily=Verdana;labelPosition=right;verticalLabelPosition=middle;align=left;verticalAlign=middle;spacingRight=0;spacingLeft=40;" parent="1" edge="1">
          <mxGeometry relative="1" as="geometry">
            <mxPoint x="88" y="370" as="sourcePoint" />
            <mxPoint x="158" y="370" as="targetPoint" />
          </mxGeometry>
        </mxCell>
      </root>
    </mxGraphModel>
  </diagram>
  <diagram id="pESThc8IzJtPoRawGZMi" name="ArchiRéseaux">
    <mxGraphModel dx="908" dy="783" grid="1" gridSize="10" guides="1" tooltips="1" connect="1" arrows="1" fold="1" page="1" pageScale="1" pageWidth="827" pageHeight="1169" math="0" shadow="0">
      <root>
        <mxCell id="0" />
        <mxCell id="1" parent="0" />
        <mxCell id="i34brSMeZ09ndF8rUUBS-12" value="&lt;font face=&quot;Verdana&quot;&gt;Client 1&lt;/font&gt;" style="aspect=fixed;perimeter=ellipsePerimeter;html=1;align=center;shadow=0;dashed=0;spacingTop=3;image;image=img/lib/active_directory/laptop_client.svg;" parent="1" vertex="1">
          <mxGeometry x="310" y="400" width="45" height="50" as="geometry" />
        </mxCell>
        <mxCell id="i34brSMeZ09ndF8rUUBS-13" value="Client 2" style="aspect=fixed;perimeter=ellipsePerimeter;html=1;align=center;shadow=0;dashed=0;spacingTop=3;image;image=img/lib/active_directory/laptop_client.svg;fontFamily=Verdana;" parent="1" vertex="1">
          <mxGeometry x="414" y="400" width="45" height="50" as="geometry" />
        </mxCell>
        <mxCell id="i34brSMeZ09ndF8rUUBS-26" value="" style="endArrow=classic;dashed=1;html=1;dashPattern=1 3;strokeWidth=1;rounded=0;fontFamily=Verdana;exitX=0;exitY=0.25;exitDx=0;exitDy=0;startArrow=classic;startFill=1;endFill=1;entryX=0.5;entryY=1;entryDx=0;entryDy=0;" parent="1" source="i34brSMeZ09ndF8rUUBS-12" target="i34brSMeZ09ndF8rUUBS-4" edge="1">
          <mxGeometry width="50" height="50" relative="1" as="geometry">
            <mxPoint x="440" y="340" as="sourcePoint" />
            <mxPoint x="170" y="250" as="targetPoint" />
          </mxGeometry>
        </mxCell>
        <mxCell id="i34brSMeZ09ndF8rUUBS-27" value="" style="endArrow=classic;dashed=1;html=1;dashPattern=1 3;strokeWidth=1;rounded=0;fontFamily=Verdana;startArrow=classic;startFill=1;endFill=1;entryX=1;entryY=1;entryDx=0;entryDy=0;" parent="1" source="i34brSMeZ09ndF8rUUBS-13" target="i34brSMeZ09ndF8rUUBS-4" edge="1">
          <mxGeometry width="50" height="50" relative="1" as="geometry">
            <mxPoint x="322.3753882025019" y="423.8196601125012" as="sourcePoint" />
            <mxPoint x="176" y="230" as="targetPoint" />
          </mxGeometry>
        </mxCell>
        <mxCell id="i34brSMeZ09ndF8rUUBS-28" value="Authentification HTTPS" style="endArrow=classic;dashed=1;html=1;dashPattern=1 3;strokeWidth=1;rounded=0;fontFamily=Verdana;startArrow=classic;startFill=1;endFill=1;spacing=0;align=left;spacingLeft=50;" parent="1" edge="1">
          <mxGeometry width="50" height="50" relative="1" as="geometry">
            <mxPoint x="100" y="350.42" as="sourcePoint" />
            <mxPoint x="10" y="350" as="targetPoint" />
          </mxGeometry>
        </mxCell>
        <mxCell id="i34brSMeZ09ndF8rUUBS-29" value="" style="endArrow=classic;startArrow=classic;html=1;rounded=0;fontFamily=Verdana;exitX=0.75;exitY=0;exitDx=0;exitDy=0;fillColor=#dae8fc;strokeColor=#6c8ebf;entryX=0.5;entryY=1;entryDx=0;entryDy=0;" parent="1" source="i34brSMeZ09ndF8rUUBS-12" target="lQUY7VhDSAmw7bdiVElp-5" edge="1">
          <mxGeometry width="50" height="50" relative="1" as="geometry">
            <mxPoint x="330" y="400" as="sourcePoint" />
            <mxPoint x="384.16606558017816" y="257.77192673937816" as="targetPoint" />
          </mxGeometry>
        </mxCell>
        <mxCell id="i34brSMeZ09ndF8rUUBS-30" value="" style="endArrow=classic;startArrow=classic;html=1;rounded=0;fontFamily=Verdana;exitX=0.65;exitY=-0.06;exitDx=0;exitDy=0;fillColor=#dae8fc;strokeColor=#6c8ebf;exitPerimeter=0;" parent="1" source="i34brSMeZ09ndF8rUUBS-13" target="lQUY7VhDSAmw7bdiVElp-7" edge="1">
          <mxGeometry width="50" height="50" relative="1" as="geometry">
            <mxPoint x="352.2608514223775" y="412.4749582560519" as="sourcePoint" />
            <mxPoint x="410" y="250" as="targetPoint" />
          </mxGeometry>
        </mxCell>
        <mxCell id="i34brSMeZ09ndF8rUUBS-33" value="" style="endArrow=classic;startArrow=classic;html=1;rounded=0;fontFamily=Verdana;exitX=0;exitY=0.5;exitDx=0;exitDy=0;fillColor=#f8cecc;strokeColor=#b85450;" parent="1" source="i34brSMeZ09ndF8rUUBS-13" target="i34brSMeZ09ndF8rUUBS-12" edge="1">
          <mxGeometry width="50" height="50" relative="1" as="geometry">
            <mxPoint x="420" y="430" as="sourcePoint" />
            <mxPoint x="360" y="430" as="targetPoint" />
          </mxGeometry>
        </mxCell>
        <mxCell id="i34brSMeZ09ndF8rUUBS-34" value="Liaison Websocket + HTTPS" style="endArrow=classic;startArrow=classic;html=1;rounded=0;fontFamily=Verdana;align=left;spacing=0;spacingRight=0;spacingLeft=50;fillColor=#dae8fc;strokeColor=#6c8ebf;" parent="1" edge="1">
          <mxGeometry width="50" height="50" relative="1" as="geometry">
            <mxPoint x="100" y="370" as="sourcePoint" />
            <mxPoint x="10" y="370" as="targetPoint" />
          </mxGeometry>
        </mxCell>
        <mxCell id="dBggb8UtV4K5KdXcWgCk-1" value="Liaison Peer To Peer WebRTC" style="endArrow=classic;startArrow=classic;html=1;rounded=0;fontFamily=Verdana;align=left;spacing=0;spacingRight=0;spacingLeft=50;fillColor=#f8cecc;strokeColor=#b85450;" parent="1" edge="1">
          <mxGeometry width="50" height="50" relative="1" as="geometry">
            <mxPoint x="100" y="390" as="sourcePoint" />
            <mxPoint x="10" y="390" as="targetPoint" />
          </mxGeometry>
        </mxCell>
        <mxCell id="lQUY7VhDSAmw7bdiVElp-3" value="" style="group" parent="1" vertex="1" connectable="0">
          <mxGeometry x="200" y="190" width="82" height="92.86000000000001" as="geometry" />
        </mxCell>
        <mxCell id="i34brSMeZ09ndF8rUUBS-3" value="Serveur d&#39;authentification&lt;br&gt;Base de données utilisateur" style="aspect=fixed;perimeter=ellipsePerimeter;html=1;align=center;shadow=0;dashed=0;spacingTop=-128;image;image=img/lib/active_directory/generic_server.svg;fontFamily=Verdana;spacingRight=0;" parent="lQUY7VhDSAmw7bdiVElp-3" vertex="1">
          <mxGeometry width="52" height="92.86" as="geometry" />
        </mxCell>
        <mxCell id="i34brSMeZ09ndF8rUUBS-11" value="" style="group;fontFamily=Verdana;verticalAlign=top;spacing=0;spacingBottom=0;spacingTop=-20;" parent="lQUY7VhDSAmw7bdiVElp-3" vertex="1" connectable="0">
          <mxGeometry x="32" y="20" width="50" height="67" as="geometry" />
        </mxCell>
        <mxCell id="i34brSMeZ09ndF8rUUBS-4" value="" style="aspect=fixed;perimeter=ellipsePerimeter;html=1;align=center;shadow=0;dashed=0;spacingTop=3;image;image=img/lib/active_directory/database.svg;" parent="i34brSMeZ09ndF8rUUBS-11" vertex="1">
          <mxGeometry y="30" width="50" height="37" as="geometry" />
        </mxCell>
        <mxCell id="i34brSMeZ09ndF8rUUBS-5" value="" style="aspect=fixed;perimeter=ellipsePerimeter;html=1;align=center;shadow=0;dashed=0;spacingTop=3;image;image=img/lib/active_directory/database.svg;" parent="i34brSMeZ09ndF8rUUBS-11" vertex="1">
          <mxGeometry y="15" width="50" height="37" as="geometry" />
        </mxCell>
        <mxCell id="i34brSMeZ09ndF8rUUBS-6" value="" style="aspect=fixed;perimeter=ellipsePerimeter;html=1;align=center;shadow=0;dashed=0;spacingTop=3;image;image=img/lib/active_directory/database.svg;" parent="i34brSMeZ09ndF8rUUBS-11" vertex="1">
          <mxGeometry width="50" height="37" as="geometry" />
        </mxCell>
        <mxCell id="lQUY7VhDSAmw7bdiVElp-4" value="" style="group;verticalAlign=top;spacing=0;spacingTop=50;" parent="1" vertex="1" connectable="0">
          <mxGeometry x="440" y="190" width="82" height="92.86000000000001" as="geometry" />
        </mxCell>
        <mxCell id="lQUY7VhDSAmw7bdiVElp-5" value="Serveur applicatif&lt;br&gt;Base de données applicatives" style="aspect=fixed;perimeter=ellipsePerimeter;html=1;align=center;shadow=0;dashed=0;spacingTop=-128;image;image=img/lib/active_directory/generic_server.svg;fontFamily=Verdana;spacingRight=0;verticalAlign=top;" parent="lQUY7VhDSAmw7bdiVElp-4" vertex="1">
          <mxGeometry width="52" height="92.86" as="geometry" />
        </mxCell>
        <mxCell id="lQUY7VhDSAmw7bdiVElp-6" value="" style="group;fontFamily=Verdana;verticalAlign=top;spacing=0;spacingBottom=0;spacingTop=-20;" parent="lQUY7VhDSAmw7bdiVElp-4" vertex="1" connectable="0">
          <mxGeometry x="32" y="20" width="50" height="67" as="geometry" />
        </mxCell>
        <mxCell id="lQUY7VhDSAmw7bdiVElp-7" value="" style="aspect=fixed;perimeter=ellipsePerimeter;html=1;align=center;shadow=0;dashed=0;spacingTop=3;image;image=img/lib/active_directory/database.svg;" parent="lQUY7VhDSAmw7bdiVElp-6" vertex="1">
          <mxGeometry y="30" width="50" height="37" as="geometry" />
        </mxCell>
        <mxCell id="lQUY7VhDSAmw7bdiVElp-8" value="" style="aspect=fixed;perimeter=ellipsePerimeter;html=1;align=center;shadow=0;dashed=0;spacingTop=3;image;image=img/lib/active_directory/database.svg;" parent="lQUY7VhDSAmw7bdiVElp-6" vertex="1">
          <mxGeometry y="15" width="50" height="37" as="geometry" />
        </mxCell>
        <mxCell id="lQUY7VhDSAmw7bdiVElp-9" value="" style="aspect=fixed;perimeter=ellipsePerimeter;html=1;align=center;shadow=0;dashed=0;spacingTop=3;image;image=img/lib/active_directory/database.svg;" parent="lQUY7VhDSAmw7bdiVElp-6" vertex="1">
          <mxGeometry width="50" height="37" as="geometry" />
        </mxCell>
        <mxCell id="YsS6E5bcEtS5MtJrqZ3b-2" value="Serveur STUN" style="aspect=fixed;perimeter=ellipsePerimeter;html=1;align=center;shadow=0;dashed=0;spacingTop=-128;image;image=img/lib/active_directory/generic_server.svg;fontFamily=Verdana;spacingRight=0;" vertex="1" parent="1">
          <mxGeometry x="215" y="530" width="52" height="92.85" as="geometry" />
        </mxCell>
        <mxCell id="YsS6E5bcEtS5MtJrqZ3b-8" value="Serveur TURN" style="aspect=fixed;perimeter=ellipsePerimeter;html=1;align=center;shadow=0;dashed=0;spacingTop=-128;image;image=img/lib/active_directory/generic_server.svg;fontFamily=Verdana;spacingRight=0;" vertex="1" parent="1">
          <mxGeometry x="470" y="530" width="52" height="92.85" as="geometry" />
        </mxCell>
      </root>
    </mxGraphModel>
  </diagram>
  <diagram id="j86ApQk66UkSsxV92oqd" name="ArchiProjet">
    <mxGraphModel dx="818" dy="783" grid="1" gridSize="10" guides="1" tooltips="1" connect="1" arrows="1" fold="1" page="1" pageScale="1" pageWidth="827" pageHeight="1169" math="0" shadow="0">
      <root>
        <mxCell id="0" />
        <mxCell id="1" parent="0" />
        <mxCell id="u7gukwI63atf-cLFvjPH-1" value="Holopenspace" style="rounded=1;whiteSpace=wrap;html=1;" parent="1" vertex="1">
          <mxGeometry x="120" y="120" width="120" height="60" as="geometry" />
        </mxCell>
        <mxCell id="u7gukwI63atf-cLFvjPH-2" value="Box" style="rounded=1;whiteSpace=wrap;html=1;" parent="1" vertex="1">
          <mxGeometry x="300" y="120" width="120" height="60" as="geometry" />
        </mxCell>
        <mxCell id="u7gukwI63atf-cLFvjPH-4" value="Core" style="rounded=1;whiteSpace=wrap;html=1;" parent="1" vertex="1">
          <mxGeometry x="210" y="220" width="120" height="60" as="geometry" />
        </mxCell>
        <mxCell id="u7gukwI63atf-cLFvjPH-8" value="" style="endArrow=none;html=1;rounded=0;" parent="1" edge="1">
          <mxGeometry width="50" height="50" relative="1" as="geometry">
            <mxPoint x="180" y="200" as="sourcePoint" />
            <mxPoint x="250" y="200" as="targetPoint" />
          </mxGeometry>
        </mxCell>
        <mxCell id="u7gukwI63atf-cLFvjPH-9" value="" style="endArrow=none;html=1;rounded=0;" parent="1" edge="1">
          <mxGeometry width="50" height="50" relative="1" as="geometry">
            <mxPoint x="290" y="200" as="sourcePoint" />
            <mxPoint x="360" y="200" as="targetPoint" />
          </mxGeometry>
        </mxCell>
        <mxCell id="u7gukwI63atf-cLFvjPH-11" value="" style="endArrow=none;html=1;rounded=0;exitX=0.5;exitY=0;exitDx=0;exitDy=0;" parent="1" edge="1">
          <mxGeometry width="50" height="50" relative="1" as="geometry">
            <mxPoint x="250" y="220" as="sourcePoint" />
            <mxPoint x="250" y="200" as="targetPoint" />
          </mxGeometry>
        </mxCell>
        <mxCell id="u7gukwI63atf-cLFvjPH-12" value="" style="endArrow=none;html=1;rounded=0;exitX=0.5;exitY=0;exitDx=0;exitDy=0;" parent="1" edge="1">
          <mxGeometry width="50" height="50" relative="1" as="geometry">
            <mxPoint x="290" y="220" as="sourcePoint" />
            <mxPoint x="290" y="200" as="targetPoint" />
          </mxGeometry>
        </mxCell>
        <mxCell id="u7gukwI63atf-cLFvjPH-14" value="" style="endArrow=none;html=1;rounded=0;exitX=0.5;exitY=0;exitDx=0;exitDy=0;" parent="1" edge="1">
          <mxGeometry width="50" height="50" relative="1" as="geometry">
            <mxPoint x="360" y="200" as="sourcePoint" />
            <mxPoint x="360" y="180" as="targetPoint" />
          </mxGeometry>
        </mxCell>
        <mxCell id="u7gukwI63atf-cLFvjPH-15" value="" style="endArrow=none;html=1;rounded=0;exitX=0.5;exitY=0;exitDx=0;exitDy=0;" parent="1" edge="1">
          <mxGeometry width="50" height="50" relative="1" as="geometry">
            <mxPoint x="179.66000000000003" y="200" as="sourcePoint" />
            <mxPoint x="179.66000000000003" y="180" as="targetPoint" />
          </mxGeometry>
        </mxCell>
        <mxCell id="u7gukwI63atf-cLFvjPH-16" value="Admin" style="rounded=1;whiteSpace=wrap;html=1;" parent="1" vertex="1">
          <mxGeometry x="480" y="120" width="120" height="60" as="geometry" />
        </mxCell>
      </root>
    </mxGraphModel>
  </diagram>
  <diagram id="LmUp62T9uiTlNdO9b7Z8" name="MeshSelective">
    <mxGraphModel dx="2036" dy="792" grid="1" gridSize="10" guides="1" tooltips="1" connect="1" arrows="1" fold="1" page="1" pageScale="1" pageWidth="827" pageHeight="1169" math="0" shadow="0">
      <root>
        <mxCell id="0" />
        <mxCell id="1" parent="0" />
        <mxCell id="tflLPfQPJ6h74tn7f9xn-8" value="flux de données lié à la mise à jour de l&#39;interface" style="edgeStyle=none;rounded=0;orthogonalLoop=1;jettySize=auto;html=1;sourcePerimeterSpacing=5;endArrow=classic;endFill=1;targetPerimeterSpacing=5;fillColor=#f8cecc;strokeColor=#b85450;startArrow=none;startFill=0;strokeWidth=2;fontFamily=Verdana;labelPosition=right;verticalLabelPosition=middle;align=left;verticalAlign=middle;spacingRight=0;spacingLeft=40;" edge="1" parent="1">
          <mxGeometry relative="1" as="geometry">
            <mxPoint x="-180" y="550.0000000000001" as="sourcePoint" />
            <mxPoint x="-110" y="550.0000000000001" as="targetPoint" />
          </mxGeometry>
        </mxCell>
        <mxCell id="tflLPfQPJ6h74tn7f9xn-12" value="flux vidéo" style="edgeStyle=none;rounded=0;orthogonalLoop=1;jettySize=auto;html=1;sourcePerimeterSpacing=5;endArrow=classic;endFill=1;targetPerimeterSpacing=5;fillColor=#d5e8d4;strokeColor=#82b366;startArrow=none;startFill=0;strokeWidth=2;fontFamily=Verdana;labelPosition=right;verticalLabelPosition=middle;align=left;verticalAlign=middle;spacingRight=0;spacingLeft=40;" edge="1" parent="1">
          <mxGeometry relative="1" as="geometry">
            <mxPoint x="-180" y="571.0000000000002" as="sourcePoint" />
            <mxPoint x="-110" y="571.0000000000002" as="targetPoint" />
          </mxGeometry>
        </mxCell>
        <mxCell id="tflLPfQPJ6h74tn7f9xn-13" value="flux audio" style="edgeStyle=none;rounded=0;orthogonalLoop=1;jettySize=auto;html=1;sourcePerimeterSpacing=5;endArrow=classic;endFill=1;targetPerimeterSpacing=5;fillColor=#dae8fc;strokeColor=#6c8ebf;startArrow=none;startFill=0;strokeWidth=2;fontFamily=Verdana;labelPosition=right;verticalLabelPosition=middle;align=left;verticalAlign=middle;spacingRight=0;spacingLeft=40;" edge="1" parent="1">
          <mxGeometry relative="1" as="geometry">
            <mxPoint x="-180" y="591.0000000000002" as="sourcePoint" />
            <mxPoint x="-110" y="591.0000000000002" as="targetPoint" />
          </mxGeometry>
        </mxCell>
        <mxCell id="tflLPfQPJ6h74tn7f9xn-43" value="" style="group" vertex="1" connectable="0" parent="1">
          <mxGeometry x="-490" y="230" width="370" height="292" as="geometry" />
        </mxCell>
        <mxCell id="tflLPfQPJ6h74tn7f9xn-7" style="edgeStyle=none;rounded=0;sketch=0;orthogonalLoop=1;jettySize=auto;html=1;entryX=0;entryY=0.5;entryDx=0;entryDy=0;startArrow=classic;startFill=0;endArrow=classic;endFill=0;targetPerimeterSpacing=5;strokeColor=#B85450;strokeWidth=2;fontStyle=4" edge="1" parent="tflLPfQPJ6h74tn7f9xn-43">
          <mxGeometry relative="1" as="geometry">
            <mxPoint x="350" y="241" as="sourcePoint" />
            <mxPoint x="350" y="241" as="targetPoint" />
          </mxGeometry>
        </mxCell>
        <mxCell id="tflLPfQPJ6h74tn7f9xn-37" value="&lt;h3&gt;&lt;br&gt;&lt;/h3&gt;" style="rounded=0;whiteSpace=wrap;html=1;" vertex="1" parent="tflLPfQPJ6h74tn7f9xn-43">
          <mxGeometry y="10" width="370" height="282" as="geometry" />
        </mxCell>
        <mxCell id="tflLPfQPJ6h74tn7f9xn-1" value="Client 1" style="shape=image;verticalLabelPosition=bottom;verticalAlign=top;imageAspect=0;aspect=fixed;image=data:image/svg+xml,PHN2ZyB4bWxucz0iaHR0cDovL3d3dy53My5vcmcvMjAwMC9zdmciIHZlcnNpb249IjEiIHZpZXdCb3g9IjAgMCA0OCA0OCIgZW5hYmxlLWJhY2tncm91bmQ9Im5ldyAwIDAgNDggNDgiPiYjeGE7ICAgIDxwb2x5Z29uIGZpbGw9IiNGRjk4MDAiIHBvaW50cz0iMjQsMzcgMTksMzEgMTksMjUgMjksMjUgMjksMzEiLz4mI3hhOyAgICA8ZyBmaWxsPSIjRkZBNzI2Ij4mI3hhOyAgICAgICAgPGNpcmNsZSBjeD0iMzMiIGN5PSIxOSIgcj0iMiIvPiYjeGE7ICAgICAgICA8Y2lyY2xlIGN4PSIxNSIgY3k9IjE5IiByPSIyIi8+JiN4YTsgICAgPC9nPiYjeGE7ICAgIDxwYXRoIGZpbGw9IiNGRkI3NEQiIGQ9Ik0zMywxM2MwLTcuNi0xOC01LTE4LDBjMCwxLjEsMCw1LjksMCw3YzAsNSw0LDksOSw5czktNCw5LTlDMzMsMTguOSwzMywxNC4xLDMzLDEzeiIvPiYjeGE7ICAgIDxwYXRoIGZpbGw9IiM0MjQyNDIiIGQ9Ik0yNCw0Yy02LjEsMC0xMCw0LjktMTAsMTFjMCwwLjgsMCwyLjMsMCwyLjNsMiwxLjd2LTVsMTItNGw0LDR2NWwyLTEuN2MwLDAsMC0xLjUsMC0yLjNjMC00LTEtOC02LTlsLTEtMiBIMjR6Ii8+JiN4YTsgICAgPGcgZmlsbD0iIzc4NDcxOSI+JiN4YTsgICAgICAgIDxjaXJjbGUgY3g9IjI4IiBjeT0iMTkiIHI9IjEiLz4mI3hhOyAgICAgICAgPGNpcmNsZSBjeD0iMjAiIGN5PSIxOSIgcj0iMSIvPiYjeGE7ICAgIDwvZz4mI3hhOyAgICA8cG9seWdvbiBmaWxsPSIjZmZmIiBwb2ludHM9IjI0LDQzIDE5LDMxIDI0LDMyIDI5LDMxIi8+JiN4YTsgICAgPHBvbHlnb24gZmlsbD0iI0QzMkYyRiIgcG9pbnRzPSIyMywzNSAyMi4zLDM5LjUgMjQsNDMuNSAyNS43LDM5LjUgMjUsMzUgMjYsMzQgMjQsMzIgMjIsMzQiLz4mI3hhOyAgICA8cGF0aCBmaWxsPSIjNTQ2RTdBIiBkPSJNMjksMzFMMjksMzFsLTUsMTJsLTUtMTJjMCwwLTExLDItMTEsMTNoMzJDNDAsMzMsMjksMzEsMjksMzF6Ii8+JiN4YTs8L3N2Zz4=;labelBackgroundColor=#ffffff;labelPosition=center;align=center;fontFamily=Verdana;" vertex="1" parent="tflLPfQPJ6h74tn7f9xn-43">
          <mxGeometry x="20" y="217" width="48" height="48" as="geometry" />
        </mxCell>
        <mxCell id="tflLPfQPJ6h74tn7f9xn-2" value="Client 3" style="shape=image;verticalLabelPosition=top;verticalAlign=bottom;imageAspect=0;aspect=fixed;image=data:image/svg+xml,PHN2ZyB4bWxucz0iaHR0cDovL3d3dy53My5vcmcvMjAwMC9zdmciIHZlcnNpb249IjEiIHZpZXdCb3g9IjAgMCA0OCA0OCIgZW5hYmxlLWJhY2tncm91bmQ9Im5ldyAwIDAgNDggNDgiPiYjeGE7ICAgIDxwb2x5Z29uIGZpbGw9IiNGRjk4MDAiIHBvaW50cz0iMjQsMzcgMTksMzEgMTksMjUgMjksMjUgMjksMzEiLz4mI3hhOyAgICA8ZyBmaWxsPSIjRkZBNzI2Ij4mI3hhOyAgICAgICAgPGNpcmNsZSBjeD0iMzMiIGN5PSIxOSIgcj0iMiIvPiYjeGE7ICAgICAgICA8Y2lyY2xlIGN4PSIxNSIgY3k9IjE5IiByPSIyIi8+JiN4YTsgICAgPC9nPiYjeGE7ICAgIDxwYXRoIGZpbGw9IiNGRkI3NEQiIGQ9Ik0zMywxM2MwLTcuNi0xOC01LTE4LDBjMCwxLjEsMCw1LjksMCw3YzAsNSw0LDksOSw5czktNCw5LTlDMzMsMTguOSwzMywxNC4xLDMzLDEzeiIvPiYjeGE7ICAgIDxwYXRoIGZpbGw9IiM0MjQyNDIiIGQ9Ik0yNCw0Yy02LjEsMC0xMCw0LjktMTAsMTFjMCwwLjgsMCwyLjMsMCwyLjNsMiwxLjd2LTVsMTItNGw0LDR2NWwyLTEuN2MwLDAsMC0xLjUsMC0yLjNjMC00LTEtOC02LTlsLTEtMiBIMjR6Ii8+JiN4YTsgICAgPGcgZmlsbD0iIzc4NDcxOSI+JiN4YTsgICAgICAgIDxjaXJjbGUgY3g9IjI4IiBjeT0iMTkiIHI9IjEiLz4mI3hhOyAgICAgICAgPGNpcmNsZSBjeD0iMjAiIGN5PSIxOSIgcj0iMSIvPiYjeGE7ICAgIDwvZz4mI3hhOyAgICA8cG9seWdvbiBmaWxsPSIjZmZmIiBwb2ludHM9IjI0LDQzIDE5LDMxIDI0LDMyIDI5LDMxIi8+JiN4YTsgICAgPHBvbHlnb24gZmlsbD0iI0QzMkYyRiIgcG9pbnRzPSIyMywzNSAyMi4zLDM5LjUgMjQsNDMuNSAyNS43LDM5LjUgMjUsMzUgMjYsMzQgMjQsMzIgMjIsMzQiLz4mI3hhOyAgICA8cGF0aCBmaWxsPSIjNTQ2RTdBIiBkPSJNMjksMzFMMjksMzFsLTUsMTJsLTUtMTJjMCwwLTExLDItMTEsMTNoMzJDNDAsMzMsMjksMzEsMjksMzF6Ii8+JiN4YTs8L3N2Zz4=;labelBackgroundColor=#ffffff;labelPosition=center;align=center;fontFamily=Verdana;" vertex="1" parent="tflLPfQPJ6h74tn7f9xn-43">
          <mxGeometry x="156" y="72" width="48" height="48" as="geometry" />
        </mxCell>
        <mxCell id="tflLPfQPJ6h74tn7f9xn-3" value="Client 2" style="shape=image;verticalLabelPosition=bottom;verticalAlign=top;imageAspect=0;aspect=fixed;image=data:image/svg+xml,PHN2ZyB4bWxucz0iaHR0cDovL3d3dy53My5vcmcvMjAwMC9zdmciIHZlcnNpb249IjEiIHZpZXdCb3g9IjAgMCA0OCA0OCIgZW5hYmxlLWJhY2tncm91bmQ9Im5ldyAwIDAgNDggNDgiPiYjeGE7ICAgIDxwb2x5Z29uIGZpbGw9IiNGRjk4MDAiIHBvaW50cz0iMjQsMzcgMTksMzEgMTksMjUgMjksMjUgMjksMzEiLz4mI3hhOyAgICA8ZyBmaWxsPSIjRkZBNzI2Ij4mI3hhOyAgICAgICAgPGNpcmNsZSBjeD0iMzMiIGN5PSIxOSIgcj0iMiIvPiYjeGE7ICAgICAgICA8Y2lyY2xlIGN4PSIxNSIgY3k9IjE5IiByPSIyIi8+JiN4YTsgICAgPC9nPiYjeGE7ICAgIDxwYXRoIGZpbGw9IiNGRkI3NEQiIGQ9Ik0zMywxM2MwLTcuNi0xOC01LTE4LDBjMCwxLjEsMCw1LjksMCw3YzAsNSw0LDksOSw5czktNCw5LTlDMzMsMTguOSwzMywxNC4xLDMzLDEzeiIvPiYjeGE7ICAgIDxwYXRoIGZpbGw9IiM0MjQyNDIiIGQ9Ik0yNCw0Yy02LjEsMC0xMCw0LjktMTAsMTFjMCwwLjgsMCwyLjMsMCwyLjNsMiwxLjd2LTVsMTItNGw0LDR2NWwyLTEuN2MwLDAsMC0xLjUsMC0yLjNjMC00LTEtOC02LTlsLTEtMiBIMjR6Ii8+JiN4YTsgICAgPGcgZmlsbD0iIzc4NDcxOSI+JiN4YTsgICAgICAgIDxjaXJjbGUgY3g9IjI4IiBjeT0iMTkiIHI9IjEiLz4mI3hhOyAgICAgICAgPGNpcmNsZSBjeD0iMjAiIGN5PSIxOSIgcj0iMSIvPiYjeGE7ICAgIDwvZz4mI3hhOyAgICA8cG9seWdvbiBmaWxsPSIjZmZmIiBwb2ludHM9IjI0LDQzIDE5LDMxIDI0LDMyIDI5LDMxIi8+JiN4YTsgICAgPHBvbHlnb24gZmlsbD0iI0QzMkYyRiIgcG9pbnRzPSIyMywzNSAyMi4zLDM5LjUgMjQsNDMuNSAyNS43LDM5LjUgMjUsMzUgMjYsMzQgMjQsMzIgMjIsMzQiLz4mI3hhOyAgICA8cGF0aCBmaWxsPSIjNTQ2RTdBIiBkPSJNMjksMzFMMjksMzFsLTUsMTJsLTUtMTJjMCwwLTExLDItMTEsMTNoMzJDNDAsMzMsMjksMzEsMjksMzF6Ii8+JiN4YTs8L3N2Zz4=;labelBackgroundColor=#ffffff;align=center;labelPosition=center;fontFamily=Verdana;" vertex="1" parent="tflLPfQPJ6h74tn7f9xn-43">
          <mxGeometry x="300" y="217" width="48" height="48" as="geometry" />
        </mxCell>
        <mxCell id="tflLPfQPJ6h74tn7f9xn-4" style="rounded=0;orthogonalLoop=1;jettySize=auto;html=1;sourcePerimeterSpacing=5;endArrow=none;endFill=0;targetPerimeterSpacing=5;fillColor=#f8cecc;strokeColor=#B85450;strokeWidth=3;sketch=0;startArrow=classic;startFill=1;entryX=1;entryY=1;entryDx=0;entryDy=0;exitX=0;exitY=0;exitDx=0;exitDy=0;" edge="1" parent="tflLPfQPJ6h74tn7f9xn-43" source="tflLPfQPJ6h74tn7f9xn-3" target="tflLPfQPJ6h74tn7f9xn-2">
          <mxGeometry relative="1" as="geometry">
            <mxPoint x="140" y="395.2655601659751" as="sourcePoint" />
            <mxPoint x="352" y="251" as="targetPoint" />
          </mxGeometry>
        </mxCell>
        <mxCell id="tflLPfQPJ6h74tn7f9xn-5" style="rounded=0;orthogonalLoop=1;jettySize=auto;html=1;sourcePerimeterSpacing=5;endArrow=none;endFill=0;targetPerimeterSpacing=5;fillColor=#f8cecc;strokeColor=#B85450;strokeWidth=3;sketch=0;startArrow=classic;startFill=1;exitX=1;exitY=0;exitDx=0;exitDy=0;entryX=0;entryY=1;entryDx=0;entryDy=0;" edge="1" parent="tflLPfQPJ6h74tn7f9xn-43" source="tflLPfQPJ6h74tn7f9xn-1" target="tflLPfQPJ6h74tn7f9xn-2">
          <mxGeometry relative="1" as="geometry">
            <mxPoint x="204" y="426" as="sourcePoint" />
            <mxPoint x="160" y="121" as="targetPoint" />
          </mxGeometry>
        </mxCell>
        <mxCell id="tflLPfQPJ6h74tn7f9xn-6" style="rounded=0;orthogonalLoop=1;jettySize=auto;html=1;sourcePerimeterSpacing=5;endArrow=classic;endFill=1;targetPerimeterSpacing=5;fillColor=#f8cecc;strokeColor=#B85450;strokeWidth=3;sketch=0;startArrow=none;startFill=0;entryX=0;entryY=0.5;entryDx=0;entryDy=0;exitX=1;exitY=0.5;exitDx=0;exitDy=0;" edge="1" parent="tflLPfQPJ6h74tn7f9xn-43" source="tflLPfQPJ6h74tn7f9xn-1" target="tflLPfQPJ6h74tn7f9xn-3">
          <mxGeometry relative="1" as="geometry">
            <mxPoint x="6" y="227" as="sourcePoint" />
            <mxPoint x="180" y="67" as="targetPoint" />
          </mxGeometry>
        </mxCell>
        <mxCell id="tflLPfQPJ6h74tn7f9xn-9" style="rounded=0;orthogonalLoop=1;jettySize=auto;html=1;sourcePerimeterSpacing=5;endArrow=none;endFill=0;targetPerimeterSpacing=5;fillColor=#f8cecc;strokeColor=#B85450;strokeWidth=3;sketch=0;startArrow=classic;startFill=1;entryX=0;entryY=0.5;entryDx=0;entryDy=0;exitX=1;exitY=0.5;exitDx=0;exitDy=0;" edge="1" parent="tflLPfQPJ6h74tn7f9xn-43">
          <mxGeometry relative="1" as="geometry">
            <mxPoint x="68" y="261.0000000000001" as="sourcePoint" />
            <mxPoint x="300" y="261.0000000000001" as="targetPoint" />
          </mxGeometry>
        </mxCell>
        <mxCell id="tflLPfQPJ6h74tn7f9xn-10" style="rounded=0;orthogonalLoop=1;jettySize=auto;html=1;sourcePerimeterSpacing=5;endArrow=classic;endFill=1;targetPerimeterSpacing=5;fillColor=#f8cecc;strokeColor=#B85450;strokeWidth=3;sketch=0;startArrow=none;startFill=0;exitX=0;exitY=0;exitDx=0;exitDy=0;" edge="1" parent="tflLPfQPJ6h74tn7f9xn-43">
          <mxGeometry relative="1" as="geometry">
            <mxPoint x="316" y="208" as="sourcePoint" />
            <mxPoint x="210" y="101" as="targetPoint" />
          </mxGeometry>
        </mxCell>
        <mxCell id="tflLPfQPJ6h74tn7f9xn-11" style="rounded=0;orthogonalLoop=1;jettySize=auto;html=1;sourcePerimeterSpacing=5;endArrow=classic;endFill=1;targetPerimeterSpacing=5;fillColor=#f8cecc;strokeColor=#B85450;strokeWidth=3;sketch=0;startArrow=none;startFill=0;" edge="1" parent="tflLPfQPJ6h74tn7f9xn-43">
          <mxGeometry relative="1" as="geometry">
            <mxPoint x="50" y="211" as="sourcePoint" />
            <mxPoint x="150" y="101" as="targetPoint" />
          </mxGeometry>
        </mxCell>
        <mxCell id="tflLPfQPJ6h74tn7f9xn-42" value="&lt;h3 style=&quot;color: rgb(0, 0, 0); font-family: Helvetica; font-style: normal; font-variant-ligatures: normal; font-variant-caps: normal; letter-spacing: normal; orphans: 2; text-align: center; text-indent: 0px; text-transform: none; widows: 2; word-spacing: 0px; -webkit-text-stroke-width: 0px; background-color: rgb(248, 249, 250); text-decoration-thickness: initial; text-decoration-style: initial; text-decoration-color: initial;&quot;&gt;&lt;font face=&quot;Verdana&quot;&gt;Visualisation des flux de données&lt;/font&gt;&lt;/h3&gt;" style="text;whiteSpace=wrap;html=1;fontFamily=Verdana;" vertex="1" parent="tflLPfQPJ6h74tn7f9xn-43">
          <mxGeometry x="40" width="290" height="60" as="geometry" />
        </mxCell>
        <mxCell id="tflLPfQPJ6h74tn7f9xn-44" value="" style="group" vertex="1" connectable="0" parent="1">
          <mxGeometry x="-110" y="230" width="370" height="292" as="geometry" />
        </mxCell>
        <mxCell id="tflLPfQPJ6h74tn7f9xn-45" style="edgeStyle=none;rounded=0;sketch=0;orthogonalLoop=1;jettySize=auto;html=1;entryX=0;entryY=0.5;entryDx=0;entryDy=0;startArrow=classic;startFill=0;endArrow=classic;endFill=0;targetPerimeterSpacing=5;strokeColor=#B85450;strokeWidth=2;fontStyle=4" edge="1" parent="tflLPfQPJ6h74tn7f9xn-44">
          <mxGeometry relative="1" as="geometry">
            <mxPoint x="350" y="241" as="sourcePoint" />
            <mxPoint x="350" y="241" as="targetPoint" />
          </mxGeometry>
        </mxCell>
        <mxCell id="tflLPfQPJ6h74tn7f9xn-46" value="&lt;h3&gt;&lt;br&gt;&lt;/h3&gt;" style="rounded=0;whiteSpace=wrap;html=1;" vertex="1" parent="tflLPfQPJ6h74tn7f9xn-44">
          <mxGeometry y="10" width="370" height="282" as="geometry" />
        </mxCell>
        <mxCell id="tflLPfQPJ6h74tn7f9xn-47" value="Client 1" style="shape=image;verticalLabelPosition=bottom;verticalAlign=top;imageAspect=0;aspect=fixed;image=data:image/svg+xml,PHN2ZyB4bWxucz0iaHR0cDovL3d3dy53My5vcmcvMjAwMC9zdmciIHZlcnNpb249IjEiIHZpZXdCb3g9IjAgMCA0OCA0OCIgZW5hYmxlLWJhY2tncm91bmQ9Im5ldyAwIDAgNDggNDgiPiYjeGE7ICAgIDxwb2x5Z29uIGZpbGw9IiNGRjk4MDAiIHBvaW50cz0iMjQsMzcgMTksMzEgMTksMjUgMjksMjUgMjksMzEiLz4mI3hhOyAgICA8ZyBmaWxsPSIjRkZBNzI2Ij4mI3hhOyAgICAgICAgPGNpcmNsZSBjeD0iMzMiIGN5PSIxOSIgcj0iMiIvPiYjeGE7ICAgICAgICA8Y2lyY2xlIGN4PSIxNSIgY3k9IjE5IiByPSIyIi8+JiN4YTsgICAgPC9nPiYjeGE7ICAgIDxwYXRoIGZpbGw9IiNGRkI3NEQiIGQ9Ik0zMywxM2MwLTcuNi0xOC01LTE4LDBjMCwxLjEsMCw1LjksMCw3YzAsNSw0LDksOSw5czktNCw5LTlDMzMsMTguOSwzMywxNC4xLDMzLDEzeiIvPiYjeGE7ICAgIDxwYXRoIGZpbGw9IiM0MjQyNDIiIGQ9Ik0yNCw0Yy02LjEsMC0xMCw0LjktMTAsMTFjMCwwLjgsMCwyLjMsMCwyLjNsMiwxLjd2LTVsMTItNGw0LDR2NWwyLTEuN2MwLDAsMC0xLjUsMC0yLjNjMC00LTEtOC02LTlsLTEtMiBIMjR6Ii8+JiN4YTsgICAgPGcgZmlsbD0iIzc4NDcxOSI+JiN4YTsgICAgICAgIDxjaXJjbGUgY3g9IjI4IiBjeT0iMTkiIHI9IjEiLz4mI3hhOyAgICAgICAgPGNpcmNsZSBjeD0iMjAiIGN5PSIxOSIgcj0iMSIvPiYjeGE7ICAgIDwvZz4mI3hhOyAgICA8cG9seWdvbiBmaWxsPSIjZmZmIiBwb2ludHM9IjI0LDQzIDE5LDMxIDI0LDMyIDI5LDMxIi8+JiN4YTsgICAgPHBvbHlnb24gZmlsbD0iI0QzMkYyRiIgcG9pbnRzPSIyMywzNSAyMi4zLDM5LjUgMjQsNDMuNSAyNS43LDM5LjUgMjUsMzUgMjYsMzQgMjQsMzIgMjIsMzQiLz4mI3hhOyAgICA8cGF0aCBmaWxsPSIjNTQ2RTdBIiBkPSJNMjksMzFMMjksMzFsLTUsMTJsLTUtMTJjMCwwLTExLDItMTEsMTNoMzJDNDAsMzMsMjksMzEsMjksMzF6Ii8+JiN4YTs8L3N2Zz4=;labelBackgroundColor=#ffffff;labelPosition=center;align=center;fontFamily=Verdana;" vertex="1" parent="tflLPfQPJ6h74tn7f9xn-44">
          <mxGeometry x="20" y="217" width="48" height="48" as="geometry" />
        </mxCell>
        <mxCell id="tflLPfQPJ6h74tn7f9xn-48" value="Client 3" style="shape=image;verticalLabelPosition=top;verticalAlign=bottom;imageAspect=0;aspect=fixed;image=data:image/svg+xml,PHN2ZyB4bWxucz0iaHR0cDovL3d3dy53My5vcmcvMjAwMC9zdmciIHZlcnNpb249IjEiIHZpZXdCb3g9IjAgMCA0OCA0OCIgZW5hYmxlLWJhY2tncm91bmQ9Im5ldyAwIDAgNDggNDgiPiYjeGE7ICAgIDxwb2x5Z29uIGZpbGw9IiNGRjk4MDAiIHBvaW50cz0iMjQsMzcgMTksMzEgMTksMjUgMjksMjUgMjksMzEiLz4mI3hhOyAgICA8ZyBmaWxsPSIjRkZBNzI2Ij4mI3hhOyAgICAgICAgPGNpcmNsZSBjeD0iMzMiIGN5PSIxOSIgcj0iMiIvPiYjeGE7ICAgICAgICA8Y2lyY2xlIGN4PSIxNSIgY3k9IjE5IiByPSIyIi8+JiN4YTsgICAgPC9nPiYjeGE7ICAgIDxwYXRoIGZpbGw9IiNGRkI3NEQiIGQ9Ik0zMywxM2MwLTcuNi0xOC01LTE4LDBjMCwxLjEsMCw1LjksMCw3YzAsNSw0LDksOSw5czktNCw5LTlDMzMsMTguOSwzMywxNC4xLDMzLDEzeiIvPiYjeGE7ICAgIDxwYXRoIGZpbGw9IiM0MjQyNDIiIGQ9Ik0yNCw0Yy02LjEsMC0xMCw0LjktMTAsMTFjMCwwLjgsMCwyLjMsMCwyLjNsMiwxLjd2LTVsMTItNGw0LDR2NWwyLTEuN2MwLDAsMC0xLjUsMC0yLjNjMC00LTEtOC02LTlsLTEtMiBIMjR6Ii8+JiN4YTsgICAgPGcgZmlsbD0iIzc4NDcxOSI+JiN4YTsgICAgICAgIDxjaXJjbGUgY3g9IjI4IiBjeT0iMTkiIHI9IjEiLz4mI3hhOyAgICAgICAgPGNpcmNsZSBjeD0iMjAiIGN5PSIxOSIgcj0iMSIvPiYjeGE7ICAgIDwvZz4mI3hhOyAgICA8cG9seWdvbiBmaWxsPSIjZmZmIiBwb2ludHM9IjI0LDQzIDE5LDMxIDI0LDMyIDI5LDMxIi8+JiN4YTsgICAgPHBvbHlnb24gZmlsbD0iI0QzMkYyRiIgcG9pbnRzPSIyMywzNSAyMi4zLDM5LjUgMjQsNDMuNSAyNS43LDM5LjUgMjUsMzUgMjYsMzQgMjQsMzIgMjIsMzQiLz4mI3hhOyAgICA8cGF0aCBmaWxsPSIjNTQ2RTdBIiBkPSJNMjksMzFMMjksMzFsLTUsMTJsLTUtMTJjMCwwLTExLDItMTEsMTNoMzJDNDAsMzMsMjksMzEsMjksMzF6Ii8+JiN4YTs8L3N2Zz4=;labelBackgroundColor=#ffffff;labelPosition=center;align=center;fontFamily=Verdana;" vertex="1" parent="tflLPfQPJ6h74tn7f9xn-44">
          <mxGeometry x="156" y="72" width="48" height="48" as="geometry" />
        </mxCell>
        <mxCell id="tflLPfQPJ6h74tn7f9xn-49" value="Client 2" style="shape=image;verticalLabelPosition=bottom;verticalAlign=top;imageAspect=0;aspect=fixed;image=data:image/svg+xml,PHN2ZyB4bWxucz0iaHR0cDovL3d3dy53My5vcmcvMjAwMC9zdmciIHZlcnNpb249IjEiIHZpZXdCb3g9IjAgMCA0OCA0OCIgZW5hYmxlLWJhY2tncm91bmQ9Im5ldyAwIDAgNDggNDgiPiYjeGE7ICAgIDxwb2x5Z29uIGZpbGw9IiNGRjk4MDAiIHBvaW50cz0iMjQsMzcgMTksMzEgMTksMjUgMjksMjUgMjksMzEiLz4mI3hhOyAgICA8ZyBmaWxsPSIjRkZBNzI2Ij4mI3hhOyAgICAgICAgPGNpcmNsZSBjeD0iMzMiIGN5PSIxOSIgcj0iMiIvPiYjeGE7ICAgICAgICA8Y2lyY2xlIGN4PSIxNSIgY3k9IjE5IiByPSIyIi8+JiN4YTsgICAgPC9nPiYjeGE7ICAgIDxwYXRoIGZpbGw9IiNGRkI3NEQiIGQ9Ik0zMywxM2MwLTcuNi0xOC01LTE4LDBjMCwxLjEsMCw1LjksMCw3YzAsNSw0LDksOSw5czktNCw5LTlDMzMsMTguOSwzMywxNC4xLDMzLDEzeiIvPiYjeGE7ICAgIDxwYXRoIGZpbGw9IiM0MjQyNDIiIGQ9Ik0yNCw0Yy02LjEsMC0xMCw0LjktMTAsMTFjMCwwLjgsMCwyLjMsMCwyLjNsMiwxLjd2LTVsMTItNGw0LDR2NWwyLTEuN2MwLDAsMC0xLjUsMC0yLjNjMC00LTEtOC02LTlsLTEtMiBIMjR6Ii8+JiN4YTsgICAgPGcgZmlsbD0iIzc4NDcxOSI+JiN4YTsgICAgICAgIDxjaXJjbGUgY3g9IjI4IiBjeT0iMTkiIHI9IjEiLz4mI3hhOyAgICAgICAgPGNpcmNsZSBjeD0iMjAiIGN5PSIxOSIgcj0iMSIvPiYjeGE7ICAgIDwvZz4mI3hhOyAgICA8cG9seWdvbiBmaWxsPSIjZmZmIiBwb2ludHM9IjI0LDQzIDE5LDMxIDI0LDMyIDI5LDMxIi8+JiN4YTsgICAgPHBvbHlnb24gZmlsbD0iI0QzMkYyRiIgcG9pbnRzPSIyMywzNSAyMi4zLDM5LjUgMjQsNDMuNSAyNS43LDM5LjUgMjUsMzUgMjYsMzQgMjQsMzIgMjIsMzQiLz4mI3hhOyAgICA8cGF0aCBmaWxsPSIjNTQ2RTdBIiBkPSJNMjksMzFMMjksMzFsLTUsMTJsLTUtMTJjMCwwLTExLDItMTEsMTNoMzJDNDAsMzMsMjksMzEsMjksMzF6Ii8+JiN4YTs8L3N2Zz4=;labelBackgroundColor=#ffffff;align=center;labelPosition=center;fontFamily=Verdana;" vertex="1" parent="tflLPfQPJ6h74tn7f9xn-44">
          <mxGeometry x="300" y="217" width="48" height="48" as="geometry" />
        </mxCell>
        <mxCell id="tflLPfQPJ6h74tn7f9xn-52" style="rounded=0;orthogonalLoop=1;jettySize=auto;html=1;sourcePerimeterSpacing=5;endArrow=classic;endFill=1;targetPerimeterSpacing=5;fillColor=#d5e8d4;strokeColor=#82b366;strokeWidth=3;sketch=0;startArrow=none;startFill=0;entryX=0;entryY=0.5;entryDx=0;entryDy=0;exitX=1;exitY=0.5;exitDx=0;exitDy=0;" edge="1" parent="tflLPfQPJ6h74tn7f9xn-44" source="tflLPfQPJ6h74tn7f9xn-47" target="tflLPfQPJ6h74tn7f9xn-49">
          <mxGeometry relative="1" as="geometry">
            <mxPoint x="6" y="227" as="sourcePoint" />
            <mxPoint x="180" y="67" as="targetPoint" />
          </mxGeometry>
        </mxCell>
        <mxCell id="tflLPfQPJ6h74tn7f9xn-56" value="&lt;h3 style=&quot;color: rgb(0, 0, 0); font-family: Helvetica; font-style: normal; font-variant-ligatures: normal; font-variant-caps: normal; letter-spacing: normal; orphans: 2; text-align: center; text-indent: 0px; text-transform: none; widows: 2; word-spacing: 0px; -webkit-text-stroke-width: 0px; background-color: rgb(248, 249, 250); text-decoration-thickness: initial; text-decoration-style: initial; text-decoration-color: initial;&quot;&gt;&lt;font face=&quot;Verdana&quot;&gt;Visualisation des flux vidéo&lt;/font&gt;&lt;/h3&gt;" style="text;whiteSpace=wrap;html=1;fontFamily=Verdana;" vertex="1" parent="tflLPfQPJ6h74tn7f9xn-44">
          <mxGeometry x="40" width="290" height="60" as="geometry" />
        </mxCell>
        <mxCell id="tflLPfQPJ6h74tn7f9xn-57" value="" style="group" vertex="1" connectable="0" parent="1">
          <mxGeometry x="270" y="230" width="370" height="292" as="geometry" />
        </mxCell>
        <mxCell id="tflLPfQPJ6h74tn7f9xn-58" style="edgeStyle=none;rounded=0;sketch=0;orthogonalLoop=1;jettySize=auto;html=1;entryX=0;entryY=0.5;entryDx=0;entryDy=0;startArrow=classic;startFill=0;endArrow=classic;endFill=0;targetPerimeterSpacing=5;strokeColor=#B85450;strokeWidth=2;fontStyle=4" edge="1" parent="tflLPfQPJ6h74tn7f9xn-57">
          <mxGeometry relative="1" as="geometry">
            <mxPoint x="350" y="241" as="sourcePoint" />
            <mxPoint x="350" y="241" as="targetPoint" />
          </mxGeometry>
        </mxCell>
        <mxCell id="tflLPfQPJ6h74tn7f9xn-59" value="&lt;h3&gt;&lt;br&gt;&lt;/h3&gt;" style="rounded=0;whiteSpace=wrap;html=1;" vertex="1" parent="tflLPfQPJ6h74tn7f9xn-57">
          <mxGeometry y="10" width="370" height="282" as="geometry" />
        </mxCell>
        <mxCell id="tflLPfQPJ6h74tn7f9xn-60" value="Client 1" style="shape=image;verticalLabelPosition=bottom;verticalAlign=top;imageAspect=0;aspect=fixed;image=data:image/svg+xml,PHN2ZyB4bWxucz0iaHR0cDovL3d3dy53My5vcmcvMjAwMC9zdmciIHZlcnNpb249IjEiIHZpZXdCb3g9IjAgMCA0OCA0OCIgZW5hYmxlLWJhY2tncm91bmQ9Im5ldyAwIDAgNDggNDgiPiYjeGE7ICAgIDxwb2x5Z29uIGZpbGw9IiNGRjk4MDAiIHBvaW50cz0iMjQsMzcgMTksMzEgMTksMjUgMjksMjUgMjksMzEiLz4mI3hhOyAgICA8ZyBmaWxsPSIjRkZBNzI2Ij4mI3hhOyAgICAgICAgPGNpcmNsZSBjeD0iMzMiIGN5PSIxOSIgcj0iMiIvPiYjeGE7ICAgICAgICA8Y2lyY2xlIGN4PSIxNSIgY3k9IjE5IiByPSIyIi8+JiN4YTsgICAgPC9nPiYjeGE7ICAgIDxwYXRoIGZpbGw9IiNGRkI3NEQiIGQ9Ik0zMywxM2MwLTcuNi0xOC01LTE4LDBjMCwxLjEsMCw1LjksMCw3YzAsNSw0LDksOSw5czktNCw5LTlDMzMsMTguOSwzMywxNC4xLDMzLDEzeiIvPiYjeGE7ICAgIDxwYXRoIGZpbGw9IiM0MjQyNDIiIGQ9Ik0yNCw0Yy02LjEsMC0xMCw0LjktMTAsMTFjMCwwLjgsMCwyLjMsMCwyLjNsMiwxLjd2LTVsMTItNGw0LDR2NWwyLTEuN2MwLDAsMC0xLjUsMC0yLjNjMC00LTEtOC02LTlsLTEtMiBIMjR6Ii8+JiN4YTsgICAgPGcgZmlsbD0iIzc4NDcxOSI+JiN4YTsgICAgICAgIDxjaXJjbGUgY3g9IjI4IiBjeT0iMTkiIHI9IjEiLz4mI3hhOyAgICAgICAgPGNpcmNsZSBjeD0iMjAiIGN5PSIxOSIgcj0iMSIvPiYjeGE7ICAgIDwvZz4mI3hhOyAgICA8cG9seWdvbiBmaWxsPSIjZmZmIiBwb2ludHM9IjI0LDQzIDE5LDMxIDI0LDMyIDI5LDMxIi8+JiN4YTsgICAgPHBvbHlnb24gZmlsbD0iI0QzMkYyRiIgcG9pbnRzPSIyMywzNSAyMi4zLDM5LjUgMjQsNDMuNSAyNS43LDM5LjUgMjUsMzUgMjYsMzQgMjQsMzIgMjIsMzQiLz4mI3hhOyAgICA8cGF0aCBmaWxsPSIjNTQ2RTdBIiBkPSJNMjksMzFMMjksMzFsLTUsMTJsLTUtMTJjMCwwLTExLDItMTEsMTNoMzJDNDAsMzMsMjksMzEsMjksMzF6Ii8+JiN4YTs8L3N2Zz4=;labelBackgroundColor=#ffffff;labelPosition=center;align=center;fontFamily=Verdana;" vertex="1" parent="tflLPfQPJ6h74tn7f9xn-57">
          <mxGeometry x="20" y="217" width="48" height="48" as="geometry" />
        </mxCell>
        <mxCell id="tflLPfQPJ6h74tn7f9xn-61" value="Client 3" style="shape=image;verticalLabelPosition=top;verticalAlign=bottom;imageAspect=0;aspect=fixed;image=data:image/svg+xml,PHN2ZyB4bWxucz0iaHR0cDovL3d3dy53My5vcmcvMjAwMC9zdmciIHZlcnNpb249IjEiIHZpZXdCb3g9IjAgMCA0OCA0OCIgZW5hYmxlLWJhY2tncm91bmQ9Im5ldyAwIDAgNDggNDgiPiYjeGE7ICAgIDxwb2x5Z29uIGZpbGw9IiNGRjk4MDAiIHBvaW50cz0iMjQsMzcgMTksMzEgMTksMjUgMjksMjUgMjksMzEiLz4mI3hhOyAgICA8ZyBmaWxsPSIjRkZBNzI2Ij4mI3hhOyAgICAgICAgPGNpcmNsZSBjeD0iMzMiIGN5PSIxOSIgcj0iMiIvPiYjeGE7ICAgICAgICA8Y2lyY2xlIGN4PSIxNSIgY3k9IjE5IiByPSIyIi8+JiN4YTsgICAgPC9nPiYjeGE7ICAgIDxwYXRoIGZpbGw9IiNGRkI3NEQiIGQ9Ik0zMywxM2MwLTcuNi0xOC01LTE4LDBjMCwxLjEsMCw1LjksMCw3YzAsNSw0LDksOSw5czktNCw5LTlDMzMsMTguOSwzMywxNC4xLDMzLDEzeiIvPiYjeGE7ICAgIDxwYXRoIGZpbGw9IiM0MjQyNDIiIGQ9Ik0yNCw0Yy02LjEsMC0xMCw0LjktMTAsMTFjMCwwLjgsMCwyLjMsMCwyLjNsMiwxLjd2LTVsMTItNGw0LDR2NWwyLTEuN2MwLDAsMC0xLjUsMC0yLjNjMC00LTEtOC02LTlsLTEtMiBIMjR6Ii8+JiN4YTsgICAgPGcgZmlsbD0iIzc4NDcxOSI+JiN4YTsgICAgICAgIDxjaXJjbGUgY3g9IjI4IiBjeT0iMTkiIHI9IjEiLz4mI3hhOyAgICAgICAgPGNpcmNsZSBjeD0iMjAiIGN5PSIxOSIgcj0iMSIvPiYjeGE7ICAgIDwvZz4mI3hhOyAgICA8cG9seWdvbiBmaWxsPSIjZmZmIiBwb2ludHM9IjI0LDQzIDE5LDMxIDI0LDMyIDI5LDMxIi8+JiN4YTsgICAgPHBvbHlnb24gZmlsbD0iI0QzMkYyRiIgcG9pbnRzPSIyMywzNSAyMi4zLDM5LjUgMjQsNDMuNSAyNS43LDM5LjUgMjUsMzUgMjYsMzQgMjQsMzIgMjIsMzQiLz4mI3hhOyAgICA8cGF0aCBmaWxsPSIjNTQ2RTdBIiBkPSJNMjksMzFMMjksMzFsLTUsMTJsLTUtMTJjMCwwLTExLDItMTEsMTNoMzJDNDAsMzMsMjksMzEsMjksMzF6Ii8+JiN4YTs8L3N2Zz4=;labelBackgroundColor=#ffffff;labelPosition=center;align=center;fontFamily=Verdana;" vertex="1" parent="tflLPfQPJ6h74tn7f9xn-57">
          <mxGeometry x="156" y="72" width="48" height="48" as="geometry" />
        </mxCell>
        <mxCell id="tflLPfQPJ6h74tn7f9xn-62" value="Client 2" style="shape=image;verticalLabelPosition=bottom;verticalAlign=top;imageAspect=0;aspect=fixed;image=data:image/svg+xml,PHN2ZyB4bWxucz0iaHR0cDovL3d3dy53My5vcmcvMjAwMC9zdmciIHZlcnNpb249IjEiIHZpZXdCb3g9IjAgMCA0OCA0OCIgZW5hYmxlLWJhY2tncm91bmQ9Im5ldyAwIDAgNDggNDgiPiYjeGE7ICAgIDxwb2x5Z29uIGZpbGw9IiNGRjk4MDAiIHBvaW50cz0iMjQsMzcgMTksMzEgMTksMjUgMjksMjUgMjksMzEiLz4mI3hhOyAgICA8ZyBmaWxsPSIjRkZBNzI2Ij4mI3hhOyAgICAgICAgPGNpcmNsZSBjeD0iMzMiIGN5PSIxOSIgcj0iMiIvPiYjeGE7ICAgICAgICA8Y2lyY2xlIGN4PSIxNSIgY3k9IjE5IiByPSIyIi8+JiN4YTsgICAgPC9nPiYjeGE7ICAgIDxwYXRoIGZpbGw9IiNGRkI3NEQiIGQ9Ik0zMywxM2MwLTcuNi0xOC01LTE4LDBjMCwxLjEsMCw1LjksMCw3YzAsNSw0LDksOSw5czktNCw5LTlDMzMsMTguOSwzMywxNC4xLDMzLDEzeiIvPiYjeGE7ICAgIDxwYXRoIGZpbGw9IiM0MjQyNDIiIGQ9Ik0yNCw0Yy02LjEsMC0xMCw0LjktMTAsMTFjMCwwLjgsMCwyLjMsMCwyLjNsMiwxLjd2LTVsMTItNGw0LDR2NWwyLTEuN2MwLDAsMC0xLjUsMC0yLjNjMC00LTEtOC02LTlsLTEtMiBIMjR6Ii8+JiN4YTsgICAgPGcgZmlsbD0iIzc4NDcxOSI+JiN4YTsgICAgICAgIDxjaXJjbGUgY3g9IjI4IiBjeT0iMTkiIHI9IjEiLz4mI3hhOyAgICAgICAgPGNpcmNsZSBjeD0iMjAiIGN5PSIxOSIgcj0iMSIvPiYjeGE7ICAgIDwvZz4mI3hhOyAgICA8cG9seWdvbiBmaWxsPSIjZmZmIiBwb2ludHM9IjI0LDQzIDE5LDMxIDI0LDMyIDI5LDMxIi8+JiN4YTsgICAgPHBvbHlnb24gZmlsbD0iI0QzMkYyRiIgcG9pbnRzPSIyMywzNSAyMi4zLDM5LjUgMjQsNDMuNSAyNS43LDM5LjUgMjUsMzUgMjYsMzQgMjQsMzIgMjIsMzQiLz4mI3hhOyAgICA8cGF0aCBmaWxsPSIjNTQ2RTdBIiBkPSJNMjksMzFMMjksMzFsLTUsMTJsLTUtMTJjMCwwLTExLDItMTEsMTNoMzJDNDAsMzMsMjksMzEsMjksMzF6Ii8+JiN4YTs8L3N2Zz4=;labelBackgroundColor=#ffffff;align=center;labelPosition=center;fontFamily=Verdana;" vertex="1" parent="tflLPfQPJ6h74tn7f9xn-57">
          <mxGeometry x="300" y="217" width="48" height="48" as="geometry" />
        </mxCell>
        <mxCell id="tflLPfQPJ6h74tn7f9xn-65" style="rounded=0;orthogonalLoop=1;jettySize=auto;html=1;sourcePerimeterSpacing=5;endArrow=classic;endFill=1;targetPerimeterSpacing=5;fillColor=#dae8fc;strokeColor=#6c8ebf;strokeWidth=3;sketch=0;startArrow=none;startFill=0;entryX=0;entryY=0.5;entryDx=0;entryDy=0;exitX=1;exitY=0.5;exitDx=0;exitDy=0;" edge="1" parent="tflLPfQPJ6h74tn7f9xn-57" source="tflLPfQPJ6h74tn7f9xn-60" target="tflLPfQPJ6h74tn7f9xn-62">
          <mxGeometry relative="1" as="geometry">
            <mxPoint x="6" y="227" as="sourcePoint" />
            <mxPoint x="180" y="67" as="targetPoint" />
          </mxGeometry>
        </mxCell>
        <mxCell id="tflLPfQPJ6h74tn7f9xn-66" style="rounded=0;orthogonalLoop=1;jettySize=auto;html=1;sourcePerimeterSpacing=5;endArrow=none;endFill=0;targetPerimeterSpacing=5;fillColor=#dae8fc;strokeColor=#6c8ebf;strokeWidth=3;sketch=0;startArrow=classic;startFill=1;entryX=0;entryY=0.5;entryDx=0;entryDy=0;exitX=1;exitY=0.5;exitDx=0;exitDy=0;" edge="1" parent="tflLPfQPJ6h74tn7f9xn-57">
          <mxGeometry relative="1" as="geometry">
            <mxPoint x="68" y="261.0000000000001" as="sourcePoint" />
            <mxPoint x="300" y="261.0000000000001" as="targetPoint" />
          </mxGeometry>
        </mxCell>
        <mxCell id="tflLPfQPJ6h74tn7f9xn-69" value="&lt;h3 style=&quot;color: rgb(0, 0, 0); font-family: Helvetica; font-style: normal; font-variant-ligatures: normal; font-variant-caps: normal; letter-spacing: normal; orphans: 2; text-align: center; text-indent: 0px; text-transform: none; widows: 2; word-spacing: 0px; -webkit-text-stroke-width: 0px; background-color: rgb(248, 249, 250); text-decoration-thickness: initial; text-decoration-style: initial; text-decoration-color: initial;&quot;&gt;&lt;font face=&quot;Verdana&quot;&gt;Visualisation des flux audio&lt;/font&gt;&lt;/h3&gt;" style="text;whiteSpace=wrap;html=1;fontFamily=Verdana;" vertex="1" parent="tflLPfQPJ6h74tn7f9xn-57">
          <mxGeometry x="40" width="290" height="60" as="geometry" />
        </mxCell>
      </root>
    </mxGraphModel>
  </diagram>
  <diagram id="0pMKioGkH1tioiqouUQj" name="Page-9">
    <mxGraphModel dx="281" dy="184" grid="1" gridSize="10" guides="1" tooltips="1" connect="1" arrows="1" fold="1" page="1" pageScale="1" pageWidth="827" pageHeight="1169" math="0" shadow="0">
      <root>
        <mxCell id="0" />
        <mxCell id="1" parent="0" />
        <mxCell id="txzLlnjCm-BLQMOhdWCU-14" value="Coûts" style="text;html=1;align=center;verticalAlign=middle;resizable=0;points=[];autosize=1;strokeColor=none;fillColor=none;rotation=-90;" vertex="1" parent="1">
          <mxGeometry x="204" y="250" width="50" height="20" as="geometry" />
        </mxCell>
        <mxCell id="txzLlnjCm-BLQMOhdWCU-39" value="Probabilité" style="text;html=1;align=center;verticalAlign=middle;resizable=0;points=[];autosize=1;strokeColor=none;fillColor=none;rotation=0;" vertex="1" parent="1">
          <mxGeometry x="295" y="320" width="70" height="20" as="geometry" />
        </mxCell>
        <mxCell id="txzLlnjCm-BLQMOhdWCU-65" value="" style="group" vertex="1" connectable="0" parent="1">
          <mxGeometry x="240" y="200" width="180" height="120" as="geometry" />
        </mxCell>
        <mxCell id="txzLlnjCm-BLQMOhdWCU-1" value="" style="shape=table;html=1;whiteSpace=wrap;startSize=0;container=1;collapsible=0;childLayout=tableLayout;strokeWidth=1;sketch=0;shadow=0;rounded=0;perimeterSpacing=0;swimlaneFillColor=none;" vertex="1" parent="txzLlnjCm-BLQMOhdWCU-65">
          <mxGeometry width="180" height="120" as="geometry" />
        </mxCell>
        <mxCell id="txzLlnjCm-BLQMOhdWCU-2" value="" style="shape=tableRow;horizontal=0;startSize=0;swimlaneHead=0;swimlaneBody=0;top=0;left=0;bottom=0;right=0;collapsible=0;dropTarget=0;fillColor=none;points=[[0,0.5],[1,0.5]];portConstraint=eastwest;" vertex="1" parent="txzLlnjCm-BLQMOhdWCU-1">
          <mxGeometry width="180" height="40" as="geometry" />
        </mxCell>
        <mxCell id="txzLlnjCm-BLQMOhdWCU-3" value="" style="shape=partialRectangle;html=1;whiteSpace=wrap;connectable=0;fillColor=#fff2cc;top=0;left=0;bottom=0;right=0;overflow=hidden;strokeColor=#d6b656;strokeWidth=0;" vertex="1" parent="txzLlnjCm-BLQMOhdWCU-2">
          <mxGeometry width="60" height="40" as="geometry">
            <mxRectangle width="60" height="40" as="alternateBounds" />
          </mxGeometry>
        </mxCell>
        <mxCell id="txzLlnjCm-BLQMOhdWCU-4" value="" style="shape=partialRectangle;html=1;whiteSpace=wrap;connectable=0;fillColor=#f8cecc;top=0;left=0;bottom=0;right=0;overflow=hidden;strokeColor=#b85450;strokeWidth=0;" vertex="1" parent="txzLlnjCm-BLQMOhdWCU-2">
          <mxGeometry x="60" width="60" height="40" as="geometry">
            <mxRectangle width="60" height="40" as="alternateBounds" />
          </mxGeometry>
        </mxCell>
        <mxCell id="txzLlnjCm-BLQMOhdWCU-5" value="" style="shape=partialRectangle;html=1;whiteSpace=wrap;connectable=0;fillColor=#f8cecc;top=0;left=0;bottom=0;right=0;overflow=hidden;strokeColor=#b85450;strokeWidth=0;" vertex="1" parent="txzLlnjCm-BLQMOhdWCU-2">
          <mxGeometry x="120" width="60" height="40" as="geometry">
            <mxRectangle width="60" height="40" as="alternateBounds" />
          </mxGeometry>
        </mxCell>
        <mxCell id="txzLlnjCm-BLQMOhdWCU-6" value="" style="shape=tableRow;horizontal=0;startSize=0;swimlaneHead=0;swimlaneBody=0;top=0;left=0;bottom=0;right=0;collapsible=0;dropTarget=0;fillColor=none;points=[[0,0.5],[1,0.5]];portConstraint=eastwest;" vertex="1" parent="txzLlnjCm-BLQMOhdWCU-1">
          <mxGeometry y="40" width="180" height="40" as="geometry" />
        </mxCell>
        <mxCell id="txzLlnjCm-BLQMOhdWCU-7" value="" style="shape=partialRectangle;html=1;whiteSpace=wrap;connectable=0;fillColor=#d5e8d4;top=0;left=0;bottom=0;right=0;overflow=hidden;strokeColor=#82b366;strokeWidth=0;" vertex="1" parent="txzLlnjCm-BLQMOhdWCU-6">
          <mxGeometry width="60" height="40" as="geometry">
            <mxRectangle width="60" height="40" as="alternateBounds" />
          </mxGeometry>
        </mxCell>
        <mxCell id="txzLlnjCm-BLQMOhdWCU-8" value="" style="shape=partialRectangle;html=1;whiteSpace=wrap;connectable=0;fillColor=#fff2cc;top=0;left=0;bottom=0;right=0;overflow=hidden;strokeColor=#d6b656;strokeWidth=0;perimeterSpacing=0;dashed=1;" vertex="1" parent="txzLlnjCm-BLQMOhdWCU-6">
          <mxGeometry x="60" width="60" height="40" as="geometry">
            <mxRectangle width="60" height="40" as="alternateBounds" />
          </mxGeometry>
        </mxCell>
        <mxCell id="txzLlnjCm-BLQMOhdWCU-9" value="" style="shape=partialRectangle;html=1;whiteSpace=wrap;connectable=0;fillColor=#f8cecc;top=0;left=0;bottom=0;right=0;overflow=hidden;strokeColor=#b85450;strokeWidth=0;" vertex="1" parent="txzLlnjCm-BLQMOhdWCU-6">
          <mxGeometry x="120" width="60" height="40" as="geometry">
            <mxRectangle width="60" height="40" as="alternateBounds" />
          </mxGeometry>
        </mxCell>
        <mxCell id="txzLlnjCm-BLQMOhdWCU-10" value="" style="shape=tableRow;horizontal=0;startSize=0;swimlaneHead=0;swimlaneBody=0;top=0;left=0;bottom=0;right=0;collapsible=0;dropTarget=0;fillColor=none;points=[[0,0.5],[1,0.5]];portConstraint=eastwest;" vertex="1" parent="txzLlnjCm-BLQMOhdWCU-1">
          <mxGeometry y="80" width="180" height="40" as="geometry" />
        </mxCell>
        <mxCell id="txzLlnjCm-BLQMOhdWCU-11" value="" style="shape=partialRectangle;html=1;whiteSpace=wrap;connectable=0;fillColor=#d5e8d4;top=0;left=0;bottom=0;right=0;overflow=hidden;strokeColor=#82b366;strokeWidth=0;" vertex="1" parent="txzLlnjCm-BLQMOhdWCU-10">
          <mxGeometry width="60" height="40" as="geometry">
            <mxRectangle width="60" height="40" as="alternateBounds" />
          </mxGeometry>
        </mxCell>
        <mxCell id="txzLlnjCm-BLQMOhdWCU-12" value="" style="shape=partialRectangle;html=1;whiteSpace=wrap;connectable=0;fillColor=#d5e8d4;top=0;left=0;bottom=0;right=0;overflow=hidden;strokeColor=#82b366;strokeWidth=0;" vertex="1" parent="txzLlnjCm-BLQMOhdWCU-10">
          <mxGeometry x="60" width="60" height="40" as="geometry">
            <mxRectangle width="60" height="40" as="alternateBounds" />
          </mxGeometry>
        </mxCell>
        <mxCell id="txzLlnjCm-BLQMOhdWCU-48" value="9" style="ellipse;whiteSpace=wrap;html=1;aspect=fixed;rounded=0;shadow=0;sketch=0;fontSize=6;strokeColor=#6c8ebf;strokeWidth=1;fillColor=#dae8fc;" vertex="1" parent="txzLlnjCm-BLQMOhdWCU-12">
          <mxGeometry x="24" y="14" width="12" height="12" as="geometry" />
        </mxCell>
        <mxCell id="txzLlnjCm-BLQMOhdWCU-46" value="7" style="ellipse;whiteSpace=wrap;html=1;aspect=fixed;rounded=0;shadow=0;sketch=0;fontSize=6;strokeColor=#6c8ebf;strokeWidth=1;fillColor=#dae8fc;" vertex="1" parent="txzLlnjCm-BLQMOhdWCU-12">
          <mxGeometry x="10" y="14" width="12" height="12" as="geometry" />
        </mxCell>
        <mxCell id="txzLlnjCm-BLQMOhdWCU-53" value="14" style="ellipse;whiteSpace=wrap;html=1;aspect=fixed;rounded=0;shadow=0;sketch=0;fontSize=6;strokeColor=#6c8ebf;strokeWidth=1;fillColor=#dae8fc;" vertex="1" parent="txzLlnjCm-BLQMOhdWCU-12">
          <mxGeometry x="38" y="14" width="12" height="12" as="geometry" />
        </mxCell>
        <mxCell id="txzLlnjCm-BLQMOhdWCU-13" value="" style="shape=partialRectangle;html=1;whiteSpace=wrap;connectable=0;fillColor=#fff2cc;top=0;left=0;bottom=0;right=0;overflow=hidden;pointerEvents=1;strokeColor=#d6b656;strokeWidth=0;" vertex="1" parent="txzLlnjCm-BLQMOhdWCU-10">
          <mxGeometry x="120" width="60" height="40" as="geometry">
            <mxRectangle width="60" height="40" as="alternateBounds" />
          </mxGeometry>
        </mxCell>
        <mxCell id="txzLlnjCm-BLQMOhdWCU-64" value="" style="group" vertex="1" connectable="0" parent="txzLlnjCm-BLQMOhdWCU-65">
          <mxGeometry x="2" y="14" width="155" height="92" as="geometry" />
        </mxCell>
        <mxCell id="txzLlnjCm-BLQMOhdWCU-44" value="5" style="ellipse;whiteSpace=wrap;html=1;aspect=fixed;rounded=0;shadow=0;sketch=0;fontSize=6;strokeColor=#6c8ebf;strokeWidth=1;fillColor=#dae8fc;" vertex="1" parent="txzLlnjCm-BLQMOhdWCU-64">
          <mxGeometry x="143" y="80" width="12" height="12" as="geometry" />
        </mxCell>
        <mxCell id="txzLlnjCm-BLQMOhdWCU-63" value="" style="group" vertex="1" connectable="0" parent="txzLlnjCm-BLQMOhdWCU-64">
          <mxGeometry width="155" height="52" as="geometry" />
        </mxCell>
        <mxCell id="txzLlnjCm-BLQMOhdWCU-47" value="8" style="ellipse;whiteSpace=wrap;html=1;aspect=fixed;rounded=0;shadow=0;sketch=0;fontSize=6;strokeColor=#6c8ebf;strokeWidth=1;fillColor=#dae8fc;" vertex="1" parent="txzLlnjCm-BLQMOhdWCU-63">
          <mxGeometry x="143" y="40" width="12" height="12" as="geometry" />
        </mxCell>
        <mxCell id="txzLlnjCm-BLQMOhdWCU-62" value="" style="group" vertex="1" connectable="0" parent="txzLlnjCm-BLQMOhdWCU-63">
          <mxGeometry width="155" height="52" as="geometry" />
        </mxCell>
        <mxCell id="txzLlnjCm-BLQMOhdWCU-50" value="11" style="ellipse;whiteSpace=wrap;html=1;aspect=fixed;rounded=0;shadow=0;sketch=0;fontSize=6;strokeColor=#6c8ebf;strokeWidth=1;fillColor=#dae8fc;" vertex="1" parent="txzLlnjCm-BLQMOhdWCU-62">
          <mxGeometry x="143" width="12" height="12" as="geometry" />
        </mxCell>
        <mxCell id="txzLlnjCm-BLQMOhdWCU-61" value="" style="group" vertex="1" connectable="0" parent="txzLlnjCm-BLQMOhdWCU-62">
          <mxGeometry width="101" height="52" as="geometry" />
        </mxCell>
        <mxCell id="txzLlnjCm-BLQMOhdWCU-49" value="10" style="ellipse;whiteSpace=wrap;html=1;aspect=fixed;rounded=0;shadow=0;sketch=0;fontSize=6;strokeColor=#6c8ebf;strokeWidth=1;fillColor=#dae8fc;" vertex="1" parent="txzLlnjCm-BLQMOhdWCU-61">
          <mxGeometry x="82" width="12" height="12" as="geometry" />
        </mxCell>
        <mxCell id="txzLlnjCm-BLQMOhdWCU-60" value="" style="group" vertex="1" connectable="0" parent="txzLlnjCm-BLQMOhdWCU-61">
          <mxGeometry width="101" height="52" as="geometry" />
        </mxCell>
        <mxCell id="txzLlnjCm-BLQMOhdWCU-42" value="3" style="ellipse;whiteSpace=wrap;html=1;aspect=fixed;rounded=0;shadow=0;sketch=0;fontSize=6;strokeColor=#6c8ebf;strokeWidth=1;fillColor=#dae8fc;" vertex="1" parent="txzLlnjCm-BLQMOhdWCU-60">
          <mxGeometry width="12" height="12" as="geometry" />
        </mxCell>
        <mxCell id="txzLlnjCm-BLQMOhdWCU-45" value="6" style="ellipse;whiteSpace=wrap;html=1;aspect=fixed;rounded=0;shadow=0;sketch=0;fontSize=6;strokeColor=#6c8ebf;strokeWidth=1;fillColor=#dae8fc;" vertex="1" parent="txzLlnjCm-BLQMOhdWCU-60">
          <mxGeometry x="14" width="12" height="12" as="geometry" />
        </mxCell>
        <mxCell id="txzLlnjCm-BLQMOhdWCU-51" value="12" style="ellipse;whiteSpace=wrap;html=1;aspect=fixed;rounded=0;shadow=0;sketch=0;fontSize=6;strokeColor=#6c8ebf;strokeWidth=1;fillColor=#dae8fc;" vertex="1" parent="txzLlnjCm-BLQMOhdWCU-60">
          <mxGeometry x="28" width="12" height="12" as="geometry" />
        </mxCell>
        <mxCell id="txzLlnjCm-BLQMOhdWCU-54" value="14" style="ellipse;whiteSpace=wrap;html=1;aspect=fixed;rounded=0;shadow=0;sketch=0;fontSize=6;strokeColor=#6c8ebf;strokeWidth=1;fillColor=#dae8fc;" vertex="1" parent="txzLlnjCm-BLQMOhdWCU-60">
          <mxGeometry x="42" width="12" height="12" as="geometry" />
        </mxCell>
        <mxCell id="txzLlnjCm-BLQMOhdWCU-59" value="" style="group" vertex="1" connectable="0" parent="txzLlnjCm-BLQMOhdWCU-60">
          <mxGeometry x="21" y="40" width="80" height="12" as="geometry" />
        </mxCell>
        <mxCell id="txzLlnjCm-BLQMOhdWCU-41" value="2" style="ellipse;whiteSpace=wrap;html=1;aspect=fixed;rounded=0;shadow=0;sketch=0;fontSize=6;strokeColor=#6c8ebf;strokeWidth=1;fillColor=#dae8fc;" vertex="1" parent="txzLlnjCm-BLQMOhdWCU-59">
          <mxGeometry x="54" width="12" height="12" as="geometry" />
        </mxCell>
        <mxCell id="txzLlnjCm-BLQMOhdWCU-43" value="4" style="ellipse;whiteSpace=wrap;html=1;aspect=fixed;rounded=0;shadow=0;sketch=0;fontSize=6;strokeColor=#6c8ebf;strokeWidth=1;fillColor=#dae8fc;" vertex="1" parent="txzLlnjCm-BLQMOhdWCU-59">
          <mxGeometry x="68" width="12" height="12" as="geometry" />
        </mxCell>
        <mxCell id="txzLlnjCm-BLQMOhdWCU-52" value="13" style="ellipse;whiteSpace=wrap;html=1;aspect=fixed;rounded=0;shadow=0;sketch=0;fontSize=6;strokeColor=#6c8ebf;strokeWidth=1;fillColor=#dae8fc;" vertex="1" parent="txzLlnjCm-BLQMOhdWCU-59">
          <mxGeometry width="12" height="12" as="geometry" />
        </mxCell>
      </root>
    </mxGraphModel>
  </diagram>
  <diagram id="qv2uF12RruMuLxWQfvC7" name="Page-10">
    <mxGraphModel dx="1008" dy="660" grid="1" gridSize="10" guides="1" tooltips="1" connect="1" arrows="1" fold="1" page="1" pageScale="1" pageWidth="827" pageHeight="1169" math="0" shadow="0">
      <root>
        <mxCell id="0" />
        <mxCell id="1" parent="0" />
        <mxCell id="OCVbJgjzwTML6c4NwQRk-1" value="" style="shape=image;verticalLabelPosition=bottom;labelBackgroundColor=default;verticalAlign=top;aspect=fixed;imageAspect=0;image=data:image/png,iVBORw0KGgoAAAANSUhEUgAACL0AAASvCAYAAADmRRr2AAAAAXNSR0IArs4c6QAAAARnQU1BAACxjwv8YQUAAAAJcEhZcwAADsMAAA7DAcdvqGQAAGC8SURBVHhe7N3rj2Tpfdj3p7qq+jIzuzt7neXuNndJ8S6REiWLZKhwJcuyYctxEgkIEidgnFfOGwvwC78xwASGbTgvYiABkj/AgQC/CpIABiIECGSLkKibZVLmrkQuKXJ2e2dn57pz6+7p7qou1+9sPbNnavo607PTv+7PR3h4Tp06dememQcgz1fP6SwtLY0KAAAAAAAAAAAcQp1O5872rnHu3DnRCwAAAAAAAAAAh9Z0+NLsnz9/XvQCAAAAAAAAAMChVUOXUMOXzrvvvit6AQAAAAAAAADg0LqzuksNXmJcvHhR9AIAAAAAAAAAwKFUg5dwV/xy+fJl0QsAAAAAAAAAAIdOO3gJd0UvV69eFb0AAAAAAAAAAPDITUcu0+6KXq5duyZ6AQAAAAAAAADgkdstegl3wpcbN26IXgAAAAAAAACOudHIpWPgYOwlXLkf0+/buXXrlpkLAAAAAAAA4BjZLXARwAD7tVvo8jBCmM7y8rLZCgAAAAAAAOAYaMcs02GL0AU4KPesyNJ6fJDxi+gFAAAAAAAA4IjbKnaJbXu/au8D7MdWcUts2/tVe383253bWVlZMWMBAAAAAAAAHEHTMUt77HQM4H6045b22O5YaO/vl+gFAAAAAAAA4AhqRyzTY3Nzc8v9ej7A/agBSw1bZmZmttxvj3r+XrXP7ayurpqxAAAAAAAAAI6QdsASo4YtsW2P+nx9rr6mvQXYzXS8Mh24xOP2qMfq86Fu90P0AgAAAAAAAHBETAcrNWyJ7XA4vLNtH/vzW/3y45VeeWetV64NuuX25kxxERnYr0hW5mc2y+nesLwwNygfOzEonz21Ubrd7p3Ape63j8W2ef19xC+iFwAAAAAAAIAjImKW9oiwpcYt7ehlZWOz/N57c+XbNxfK6ub7F5wBDtrCzGb54mOr5ReeXCsn+h/ELrGt+zV+aY+9Er0AAAAAAAAAHAFbBS81dqljMBiUb1+fLb/93kmxC/Chifjll59cLl98Yr30er070Us7frmf8EX0AgAAAAAAAJBcRC4hQpd28BKRS+zHNsb/e3GhfHv5ZHMuwIftiyeXy68+t9qELzEidqkRTA1fYhv2Er6IXgAAAAAAAAASq8FLjV3awUvdxvh/Lj5W/mxlvjkX4FH53Inb5T9/7uad8CWCl3b4UuOXsFv4Yr0qAAAAAAAAgOQieKmjRi91hZeNjY3yW5dOCF6AQyHmopiTYm6KOao9Z7Xnsr0QvQAAAAAAAAAkVS8M19ilXjxur/DynRtzbmkEHCoxJ8XcVOepOm/Veaw9t+1E9AIAAAAAAACQWFwUrqNeOK7Ry/L6sPzra6cmZwIcHjE3xRzVjl5itOe03YheAAAAAAAAABKqF4TrxeG6QkJd7SUuJP/BjRPl9qjbnAdwmMTcFHNUjV7ac1g7eqnbrYheAAAAAAAAAJKqF4Zj1NilBi8x/tRtjYBDLOaoOl/V+asdvcTYycxuJwAAAAAAAABwuExf522vjlAvHH9/Zc4qL8ChFnNUzFV13oo5rM5nbdu1LVZ6AQAAAAAAAEgoLgK3R71QXC8ev7U2NzkT4PCKuarOW3Uem57ftiN6AQAAAAAAAEhq+sJw+6LxxeH85CyAwyvmqjpvxRw2Pa/tRPQCAAAAAAAAkFhcFG6vjFAvHl8buLURcPjFXFXnrfY8FtvdiF4AAAAAAAAAkqoXiKcvFMdYG4legMMv5qqt5rA6dtJEL7udBAAAAAAAAMDhUK/vtrcx6sXiOxeNm2fhYD0932kGHJSYq7acw8ajeX5q22alFwAAAAAAAIAjol4o3uriMDyov/VKv/xPXzlR/sHPLDT7cFDud+4SvQAAAAAAAAAk1b5Q3L5gXLdwUP67z8yVv/XKbLMfK73EvvCFg9Keu6bHTmZ2OwEAAAAAAACAw2Wn67yuAXPQInj56vO9yaMPCF84SPczr1npBQAAAAAAAOAIiIvC9cKw8IWDsl3wUglfOAjtuWs/85foBQAAAAAAAAC4x27BSyV84VERvQAAAAAAAAAAd4mIpR28XLk9akb1rXcHk733CV94FEQvAAAAAAAAAMAdEbtExFJF7PIvvrdWvn9tODkSxzbLP/yDlcmj9wlf+LCJXgAAAAAAAACARgQvcVujaqvgpYrnhC88SqIXAAAAAAAAAGBfwUslfOFREr0AAAAAAAAAwDH39Hxn38FLtVX48tXn+817wsMkegEAAAAAAACAY+6Z+Q/ygf0EL9V0+CJ44cMgegEAAAAAAACAYy4Clwhd/tXZ9fLPv7O6r+ClquFLvEe8VzyGh0n0AgAAAAAAAACUb707KP/q7MYDxSrx2niPeC942EQvAAAAAAAAAACkI3oBAAAAAAAAACAd0QsAAAAAAAAAAOmIXgAAAAAAAAAASEf0AgAAAAAAAABAOqIXAAAAAAAAAADSEb0AAAAAAAAAAJCO6AUAAAAAAAAA2NXvvzuY7JXyxrXNyR48OqIXAAAAAAAAAGBX3782LP/wD1bK3/03y80+PGqiFwAAAAAAAIAjqDPZwkG6cns02YOD8SBzlegFAAAAAAAA4AiaLR/cigbgsHqQuUr0AgAAAAAAAHAEdDqdZtT90z23nwEOv5ir2nNX3d+Lmf2cDAAAAAAAAMCjt9N13vrcM52VZgtwmNW5ai/z2jQrvQAAAAAAAAAkFReCp0c9/mJP9AIcfjFXteeu6bET0QsAAAAAAADAEdG+UPzx/q0yVwaTZwAOn5ijYq5qz1370UQv+30RAAAAAAAAAI9Gvb7b3saYmZm5axvjc7PXmnMADqOYo3aaw8L0ts1KLwAAAAAAAABJ1QvDdbQvFsf4mdmrVnsBDqWYm2KOas9Z03NYjJ2IXgAAAAAAAAASm75QHPt1zM2MypdnL07OBDg8Ym6KOao9Z7XnsdjuRvQCAAAAAAAAkFS9QFxHt9u95wLyZ2avl892r0xeAfDoxZwUc1PMUe05K+aw9pwWYyeiFwAAAAAAAICEpi8Mty8aT8cv//H8hfIT3euTVwI8OjEXxZzUnqOm563p+W07Mzs9CQAAAAAAAMDhM32dt32huF48nr6I/Jfn3rbiC/BIxRwUc1Gdl6bnq5jD6nNt27UtVnoBAAAAAAAASCouBNfRvoDc6/WaUR/Xi8i/MPdu+Vr/XJkrg8k7ADx8MefE3BNzUJ2Pdpqv2nPbTjqrq6ujyT4AAAAAAAAAiYxGo2Zsbm42YzAY3BkbGxtlfX292cbj4XDYjDhvo3TLd9afKt8bPFXWSm/ybgAHK2KXz/Sulp+ZvVr6ZXhP7NLv98vs7GyzrfFLjBrG7Ba+iF4AAAAAAAAAkorgJdToZavwpY4avtTz6mvPDh8vb28slCvlZLmx2S/rpVdcRAb2K9KU2TIoj89slKfLcnmpv1pe6d54/7nOB7ctagcvdWwVvMSor92O6AUAAAAAAAAgsbraS13xJcKWGri0g5fYtld7qeFLjV/qFuBB1VClrtTSDl5i1NClRi81hIltnFdfV99nO6IXAAAAAAAAgMTa0UqNWdrhS2xr9FKP1fClvkb4AhyUGqrU2KVua/BSY5e6sst08FJfU99jJ6IXAAAAAAAAgORqrNIOWWrwEvs1fKmjRi91xGvqqNr7ADtpxymxX0eNWGr0UkOXOuJ4O3ipr6nvsxvRCwAAAAAAAMAR0A5XYtTwpT1q8FLHVtFLjKq9D7CVdpxSY5c62sFLHTVyaY8avLTHXoheAAAAAAAAAI6I6XilRi3tyGW76KVu6/sA7EcNVWLbXrVlOnppP67P19Cljr0SvQAAAAAAAAAcEdPRSjtoaUcv7WN1P7Z1hLoF2E0NVdrhSo1ZatzS3m8fi219bXu7F6IXAAAAAAAAgCOmHa7EaMcv7VGfr8/V17S3ALuZDlZq0FJHPG6Peqw+H+p2P0QvAAAAAAAAAEdQO16ZHu3gpb1fzwe4H+2AJUY7bGnvt0c9/36IXgAAAAAAAACOqHbAUsOWOnY6BnA/2hFLe2x3LLT390v0AgAAAAAAAHDEtUOWdtyy3T7A/agBSztsmd6v2vv3S/QCAAAAAAAAcExsFblU7cfCF2C/dgpa4nE9dhCxSzUz2QIAAAAAAABwjBzkhWeA7TzMucZKLwAAAAAAAABH3FaruMR2u32A+9FezWW7/aq9f79ELwAAAAAAAABHVDtgmQ5bthr1OYD7MR26TI/2c1V7f79ELwAAAAAAAABH0HTEEtvNzc1mu9V+PScGwP1oBy0zMzN3Hm+1H6a3+yV6AQAAAAAAADhiarhSI5YYEbbU0KXux4gL0N1u986F6NgC3I/2HDMcDu/MMXXUOabu1xHqdj9ELwAAAAAAAABHSFxwrtvpwKVeiI7jEbr0+/3m4jPAwxBzzsbGRjPvRNRSA7v2eJDwRfQCAAAAAAAAcES0g5e42BzbutpC3cZF5bm5ObEL8KGJuWdtba2Zk2LuqfFLbGNOqvFL2E/4YhYDAAAAAAAAOALawUsdEbrEGAwGzYgLzAsLC4IX4EMVc07MPTEH1fmozk/tOSvU7V6YyQAAAAAAAACOiHrhuK7s0g5e4lZGscILwKMSc1DMRdPhS12Zaj/BSxC9AAAAAAAAACRXLxbX4KVGL/WisuAFOCxq+NKeo+q81Z7L9kL0AgAAAAAAAJBY++JwjV7iInIdcVuR+fn5yRkAj17MSTE3teeqGr1UewlfRC8AAAAAAAAAycXF4Rq8TEcvCwsLk7MADo+Ym9pzVZ2/6ny2F6IXAAAAAAAAgKTqheF28FJH3DZkdna2WU0B4LCJuSnmqJirpuev9ty2E7MbAAAAAAAAQGLti8Mx2isnuK0RcJjFHNWes+o8Fup2J6IXAAAAAAAAgOTqheK6QkJcPO71elZ5AQ61mKNirqrBS53DYuyFGQ4AAAAAAAAgoXphuI56W5C6YkJcSAY47Gr0EqPOY9Pz23ZELwAAAAAAAADJ1QvD9YJxjH6/P3kW4PCKuao9d+0WurSJXgAAAAAAAAASqxeI64iLxrFiQrfbnZwBcHjFXFVXeZmez3YjegEAAAAAAABIrF4crheM61b0AmQQc9VWc1iM3YheAAAAAAAAAJKpF4O32saIi8YAWUyHLtttp4leAAAAAAAAAI6AesG4DoAs7nf+Er0AAAAAAAAAJDZ9sXg/F4wBDov7mctELwAAAAAAAAAJ7XRBeC8XiwEOi/udz0QvAAAAAAAAAEdEXBwWvAAZ3c/8JXoBAAAAAAAAACAd0QsAAAAAAAAAAOl0VldXrW0FAAAAAAAAkEi9DUiM4XBYBoNB2djYKOvr62Vtba3ZLi4uTs6Ge/VufquU4fLk0b2Gj31l/J+j0r35h+8f2Er3VBmc+nLpbFws3ZXvTg7ea9Q/U4Ynf2q8Z10Otra0tFRmZ2fL3Nxcs+33+6XX65Vut1s6nc6dMU30AgAAAAAAAJCM6IUHNX/unzexynbWXvj7479f4/PO/6+TI/cazT5fbn/kN0p35fUye+lfTo7ea3jyC2X9mb9dSqc7OQJ3u9/oRUYFAAAAAAAAAEA6ohcAAAAAAAAAANIRvQAAAAAAAAAAkI7oBQAAAAAAAACAdEQvAAAAAAAAAACkI3oBAAAAAAAAACCdzurq6miyDwAAAAAAAEACo9HozhgOh2UwGJSNjY2yvr5e1tbWmu3i4uLkbLhX78bvls7m8uTRvQanvlxGZab0b/3+5MgWuqfKxqkvlc76pdJb/e7k4L1G/TNlcOLzpXS6kyNwt6WlpTI7O1vm5uaabb/fL71er3S73dLpdO6MaVZ6AQAAAAAAAIDjJgKC0Q6jOWVz6+cmY1T3y93Hp8coPqtjPQ4OnpVeAAAAAAAAAJKx0gsPav7c/1w6G5cmj+619sLfL6PSKfPv/C+TI/cazT5fbn/kN0p35fUye+lfTo7ea3jyC2X9mb9drPTCdqz0AgAAAAAAAADAsSF6AQAAAAAAAAAgHdELAAAAAAAAAADpiF4AAAAAAAAAAEhH9AIAAAAAAAAAQDqiFwAAAAAAAAAA0umsrq6OJvsAAAAAAAAAJDAaje6M4XBYBoNB2djYKOvr62Vtba3ZLi4uTs6Ge/VufLN0Nlcmj+41OPWVMup0S//m702ObGHmVNl47Muls36p9Fb//eTgvUb9M2Vw4guljN8PtrK0tFRmZ2fL3Nxcs+33+6XX65Vut1s6nc6dMU30AgAAAAAAAJCM6IUHNtqM/3h/fzsRGYz/ju0sQoQY8X47aIIFN6Nha/cbvfgbBQAAAAAAAADHTWdmPLo7j0gKtjp+14hzOlPHthjyBB4Cf6sAAAAAAAAAAEhH9AIAAAAAAAAAQDqiFwAAAAAAAAAA0hG9AAAAAAAAAACQjugFAAAAAAAAAIB0RC8AAAAAAAAAAKQjegEAAAAAAAAAIB3RCwAAAAAAAAAA6YheAAAAAAAAAABIR/QCAAAAAAAAAEA6ohcAAAAAAAAAANIRvQAAAAAAAAAAkI7oBQAAAAAAAACAdEQvAAAAAAAAAACkI3oBAAAAAAAAACAd0QsAAAAAAAAAAOmIXgAAAAAAAAAASEf0AgAAAAAAAABAOqIXAAAAAAAAAADSEb0AAAAAAAAAAJCO6AUAAAAAAAAAgHRELwAAAAAAAAAApCN6AQAAAAAAAAAgnZnRaDTZBQAAAAAAAACAHKz0AgAAAAAAAABAOqIXAAAAAAAAAADSEb0AAAAAAAAAAJCO6AUAAAAAAAAAgHSa6GU0GjUPAAAAAAAAAAAgAyu9AAAAAAAAAACQjugFAAAAAAAAAIB0ZtzaCAAAAAAAAACAbKz0AgAAAAAAAABAOqIXAAAAAAAAAADSEb0AAAAAAAAAAJBOZ3l5edTpdEoMAAAAAAAAAA6/0Wh0ZwyHwzIYDMrGxkZZX18va2trzXZxcXFyNofN0s3RZI9HafExncRhsbS0VGZnZ8vc3Fyz7ff7pdfrlW632/Qs23UtVnoBAAAAAAAAACAd0QsAAAAAAAAAAOmIXgAAAAAAAAAASEf0AgAAAAAAAABAOqIXAAAAAAAAAADSEb0AAAAAAAAAAJCO6AUAAAAAAAAAgHRELwAAAAAAAAAApCN6AQAAAAAAAAAgHdELAAAAAAAAAADpiF4AAAAAAAAAAEhH9AIAAAAAAAAAQDqiFwAAAAAAAAAA0hG9AAAAAAAAAACQjugFAAAAAAAAAIB0RC8AAAAAAAAAAKQjegEAAAAAAAAAIB3RCwAAAAAAAAAA6YheAAAAAAAAAABIR/QCAAAAAAAAAEA6ohcAAAAAAAAAANIRvQAAAAAAAAAAkI7oBQAAAAAAAACAdEQvAAAAAAAAAACkI3oBAAAAAAAAACAd0QsAAAAAAAAAsDfD5dJZO7ftKINrkxPh4essLy+POp1OiQEAAAAAAADA4Tcaje6M4XBYBoNB2djYKOvr62Vtba3ZLi4uTs7msFm6OZrs5TNz67ulf+O3J4/uNTzxk2XwxC+V0ulNjhxei4/pJA6LpaWlMjs7W+bm5pptv98vvV6vdLvdpmfZrmux0gsAAAAAAAAAAOmIXgAAAAAAAAAASEf0AgAAAAAAAABAOqIXAAAAAAAAAADSEb0AAAAAAAAAAJCO6AUAAAAAAAAAgHRELwAAAAAAAADAnox6C2U4+5Ftx6j7xORMePg6y8vLo06nU2IAAAAAAAAAcPiNRqM7YzgclsFgUDY2Nsr6+npZW1trtouLi5OzOWyWbo4mewmNNt8fO4n+oNOdPDi8Fh/TSRwWS0tLZXZ2tszNzTXbfr9fer1e6Xa7Tc+yXddipRcAAAAAAAAAYG86M6XM9HYeCYIXjgbRCwAAAAAAAAAA6YheAAAAAAAAAABIR/QCAAAAAAAAAEA6ohcAAAAAAAAAANIRvQAAAAAAAAAAkI7oBQAAAAAAAACAdEQvAAAAAAAAAACkI3oBAAAAAAAAACAd0QsAAAAAAAAAAOmIXgAAAAAAAAAASEf0AgAAAAAAAABAOqIXAAAAAAAAAADSEb0AAAAAAAAAAJCO6AUAAAAAAAAAgHRELwAAAAAAAAAApCN6AQAAAAAAAAAgnc7y8vKo0+mUGAAAAAAAAAAcfqPR6M4YDodlMBiUjY2Nsr6+XtbW1prt4uLi5GyAw21paanMzs6Wubm5Ztvv90uv1yvdbrfpWbbrWqz0AgAAAAAAAABAOqIXAAAAAAAAAADSEb0AAAAAAAAAsC9xy5G4Bcn8/Hw5ceJEOXXq1F0jjsVzcU6cC/AwiF4AAAAAAAAA2FWn0yn9fr8sLCw0Ucvc3FzzOKKWeK494lg8F+fEufGaeBzPARwU0QsAAAAAAAAAO6qxS6ze0uv1Jkf3Ll4Tr63xC8BBEL0AAAAAAAAAsKWZmZlmtZYIVg7iNkXxHvFe8Z7x3gAPwiwCAAAAAAAAwD0iUIk4ZXZ2dnLk4MR7xnsfREgDHF+iFwAAAAAAAADuUoOX+7mV0V7FewtfgAchegEAAAAAAADgjrjtUKzE8mHEKPEZ8VludQTcDzMHAAAAAAAAAHf0+/2HusLLtPis+EyA/RK9AAAAAAAAANCIACVWXvmwxWd+mKENcDSIXgAAAAAAAABoPMoVV6z2AuxXZ3l5edTpdEoMAAAAAAAAAA6/0Wh0ZwyHwzIYDMrGxkZZX18va2trzXZxcXFy9u7ifSI6WVhYmBzZ2ptnz5Xf/M3/+85+ePXVny8vv/JSefUXv9Q8fhCrq6vNz+H6NRwvS0tLzYpPc3NzzbbeZq3b7TbzwXZdi+gFAAAAAAAAIJmDjF7q+5w4cWLH1Va++Tt/VP7ar3x98uheL7/8Yvn63/n18uqrX7orgIk45s03z+0piomfYWVlZdsL3MDRdL/Ri9sbAQAAAAAAABxzcWF5t9sLvXn27cne1iJs+af/+H9rwphPf+KXm+18/9Pl0598fz+imd3Ed4jvArAXohcAAAAAAACAY6qu8jIzc7CXjiOAmY5cdotmqvgu9XsB7ET0AgAAAAAAAHBMRViyubl54NHLg4jvEt9J9ALsRvQCAAAAAAAAcAzVqCQCk16v1+wfBvFd4jsF4QuwE9ELAAAAAAAAwDFVV1Q5jCu91PCFw6kzvFXmLv6Lbcfslf+zlNFgcjY8HKIXAAAAAAAAgGMmQpc6hsPhob29UR0cQqNBmVn5s+3H6hvjc4RLPFyiFwAAAAAAAIBjqAYlh3FFlXb0ArAd0QsAAAAAAADAMVVvIxSrvRwW8V3q9wLYiegFAAAAAAAA4Bhqr/QyGAwmRx+9+C7xnaz0AuxG9AIAAAAAAABwzLSDktiura01+3vx6i9+qXzjf/yNZnz9v/31ZsSx3bz8ykuTvZ3Fd2l/t7oPMK2zvLw86nQ6JQYAAAAAAAAAh1+NQWLE7YBidZSNjY2yvr7eRCOxXVxcnJx9t/br4jW3b98u8/Pz5cyZM5Mztvab/8f/Vf7pP/nfy/d/+NuTI3d78+y58s3f+cPyzW/+8fuP33y7vPzyS+XlV14sX//6rzXbvbhw4cKd79Tv90u3222uZ7umfbh0BtfK/Nv/bPLoXqPe6XL7hX9Qyszs5Ahsb2lpqczOzpa5ublmG//2e73eXf/+t5oDRC8AAAAAAAAAyRxk9LK6uto8fuWVV3a8brxb9HIQ4nucPXu2+R4LCwuil0NM9MJBut/oxe2NAAAAAAAAAI65CF9u3LgxefToxHeI70IC3ZNl7dn/Ztux8dSvTU6Eh0f0AgAAAAAAAHCM1RUUrl+/Pjny6MR32G5FBw6XUadfNk98ftsxXPj0+C9Xb3I2PByiFwAAAAAAAIBjpB2U1MAkxrVr1x5p+BKfHd+h/Z2q9j6HSGdm9wEPkb9hAAAAAAAAAMdMOyqp+8PhsFy8eLGMRqPm+IcpPjM+O77DVt8NYCuiFwAAAAAAAIBjqAYlMzMzpdvtNuPKlSvl/PnzkzPu9uovfrl843/4e5NHBys+Mz67fo/4ToIXYDeiFwAAAAAAAIBjKuKSOmpw8s4775TLly9PzvjAy6+8WL7+d3598ujgxGfFZ7aDlzoAdmKWAAAAAAAAADiG2iu99Hq9JjiJ7draWnnzzTeblVcetviM+Kz4zPZ3iO9kpRdgN6IXAAAAAAAAgGOmBiU1eqmxSYx+v1+Wl5fL2bNny6VLlyavOHjx3vEZ8VnxmfXz62ov7e8IsBXRCwAAAAAAAMAxFXFJjV4iPKkj4pObN2+WN954o7z11luTsw9OvGe8d3xGDW3qqNFLDICdmCUAAAAAAAAAjqDhcDjZ21pdQaVGL9PxSTxeX19v4pTXXnutXL58uTn/QcR7xHvFe8Z7b/WZNXoJVnmBo2+3uWonohcAAAAAAACAI6J9O6DBYNBsdxLn1lVVaoAyOztb5ubmmm08jufOnz/fxCqvv/76fd3yKF4Tr433iPeK99zqs+I71O8jeIHjoc5V7flrrzrLy8uj+3khAAAAAAAAAI/GaDRqtpubm80qCXHReGNjoxlra2vNKiqPPfZYeeKJJ5rzdhLvFe9T3yNef/v27WbEfn3f+Jy6IsPp06eb947POHnyZFlYWGiClRDvs7q6WpaXl5vbF12/fr1cu3ateS5WcWnfSimCl/n5+WbEfjt8cQ0bjoeYI2KuqBFcnR/2svKT6AUAAAAAAAAgmXb00g5WarQSIy4anzlzpjlvJ/FeW4UvNX6JgCZGPBfRS/3M+h3qdlq9Bh3bunpLvY1SXNyOUWOXrYIX17DheLhw4UIz77TngvZ8sFP04vZGAAAAAAAAAEdADUXqiNVW6sosO6nnt6OUevG5vQpL+xZEMeoKDDuN+n4x4rV1JYf2+8Zov1/9PsDRF3NUzFX13/1+//2LXgAAAAAAAACSqReFt9rGqPHIjRs3muO7ab+uRirtOCVuXxQj9usqLTWCaYcwddTj7XOn3ydGDV5iCF7g+Ik5qs497X//222nub0RAAAAAAAAQELt2xLFagn11kRxK6K4NVFs47mXXnqpiUr2or7f9Hu2RxyrtzqKMX2bo/ZF6li9ZXq1l/aIY+0VY1y3huMj5pG33367+bcfYVxEcDWma88NOzUtohcAAAAAAACAhGr0EmM6UKnhS+yfPHmyPPfcc5NX7a6+Zw1f6nvX928HLzHivPqaUK8/x8XqGr3U8KVezK4XtPdyURs4mi5evFiWl5ebeaEdvLSjlzo3bDc/iF4AAAAAAAAAEqqhSQ1U2mFKRC91xLGnnnqqPPnkk5NX7q793jVsaYcu8Z71WPvc0L5IXaOWduRSj+3lgjZwNL333nvl6tWrzdxQb4HWXuUlRjuI226OEL0AAAAAAAAAJFVjkxqg1PClHb3U1VnOnDlTHn/88ckrd1cjlvr+2436Her57YvUcdF6u1GvUbtWDcfLjRs3yoULF5qwJSKXdvRSg5cax9W5ZDuiFwAAAAAAAICk2sFJXYWlRi7T0UuMZ599dl8rvoR20NKOXOp+qNuqXn+ObfvCdezX4/Uc4PiIFV4uXbp0J25pRy/1cV0Rqs4TO80VohcAAAAAAACApNoxSowavtToJYKXOuJYPBervTzzzDPNBeb9aAcuW+1Pa1+Hnt4HjpeYfy5fvtys8hJBSw1c6qjRSw1e6opQYac5Q/QCAAAAAAAAkFgNT2K0o5cY09FLDV/iYvLp06ebcb/xS7VT9NLmmjQcPzHnXLt2rRkR5tXgZTp6qcdq9FI7lt3mDdELAAAAAAAAQGI1Oont9Gov7fClHb3EqLcneuyxx8rCwkI5ceLEnQvP+zUdvrj+DMdTnWdWVlbK6upquXnzZjMfRGhXg5Y6z2wXvMS5dQ7ZbS4RvQAAAAAAAAAkF9FJHfVWR+3IpR291GP1vBq/1PcBeBDtYKXepqhGLzVwqdFL+1g9rzYse+lYRC8AAAAAAAAAR8B0+FJXdKmRy3T00g5f2q+t2vsAO2k3J7VBidEOXqajl/q4Prff4CWIXgAAAAAAAACOgBqp1HilHb7U0Q5e6piOXmJU7X2ArbR7k9qf1NEOXupohy51tIOX+j57IXoBAAAAAAAAOCJqpBLbGrPUsKW9bQcvsY3zpgfAftT2pD1q0DIduLS3cV6NXur77JXoBQAAAAAAAOAIqcFKjVcibGmPGrtMj3p++/UAe9EOVuqIkGV61NilPer59fX7IXoBAAAAAAAAOGLa4Uod7bhlu9iljvpagL1oRyvTYzpwmY5dYtTX7pfoBQAAAAAAAOAImo5XYtuOXKb36zkxAO5Huz9phy1b7Yfp7X6JXgAAAAAAAACOqHbA0g5a6v70qM8B3I92xLLVaD9Xtff3S/QCAAAAAAAAcMS1Q5Z23LJV6NLeB9iPrWKWdpOy1fMPQvQCAAAAAAAAcExMBy1iF+Bh2CluOcg+RfQCAAAAAAAAcMzsFrgIYID92q07eRhdiugFAAAAAAAAAKELcGA+rAZF9AIAAAAAAAAAQDozky0AAAAAAAAAAKQhegEAAAAAAAAAIB3RCwAAAAAAAAAA6YheAAAAAAAAAABIR/QCAAAAAAAAAEA6ohcAAAAAAAAAANIRvQAAAAAAAAAAkI7oBQAAAAAAAACAdEQvAAAAAAAAAACkI3oBAAAAAAAAACAd0QsAAAAAAAAAAOmIXgAAAAAAAAAASEf0AgAAAAAAAABAOqIXAAAAAAAAAADSEb0AAAAAAAAAAJCO6AUAAAAAAAAAgHRELwAAAAAAAAAApCN6AQAAAAAAAAAgHdELAAAAAAAAAADpiF4AAAAAAAAAAEhH9AIAAAAAAAAAQDqiFwAAAAAAAAAA0hG9AAAAAAAAAACQjugFAAAAAAAAAIB0RC8AAAAAAAAAAKQjegEAAAAAAAAAIB3RCwAAAAAAAAAA6YheAAAAAAAAAABIR/QCAAAAAAAAAEA6ohcAAAAAAAAAANIRvQAAAAAAAAAAkI7oBQAAAAAAAACAdEQvAAAAAAAAAACkI3oBAAAAAAAAACAd0QsAAAAAAAAAAOmIXgAAAAAAAAAASEf0AgAAAAAAAABAOqIXAAAAAAAAAADSEb0AAAAAAAAAAJCO6AUAAAAAAAAAgHRELwAAAAAAAAAApCN6AQAAAAAAAAAgHdELAAAAAAAAAADpiF4AAAAAAAAAAEhH9AIAAAAAAAAAQDqiFwAAAAAAAAAA0hG9AAAAAAAAAACQjugFAAAAAAAAAIB0RC8AAAAAAAAAAKQjegEAAAAAAAAAIB3RCwAAAAAAAAAA6YheAAAAAAAAAABIR/QCAAAAAAAAAEA6ohcAAAAAAAAAANIRvQAAAAAAAAAAkI7oBQAAAAAAAACAdEQvAAAAAAAAAACkI3oBAAAAAAAAACAd0QsAAAAAAAAAAOmIXgAAAAAAAAAASEf0AgAAAAAAAABAOqIXAAAAAAAAAADSEb0AAAAAAAAAAJCO6AUAAAAAAAAAgHRELwAAAAAAAAAApCN6AQAAAAAAAAAgHdELAAAAAAAAAADpiF4AAAAAAAAAAEhH9AIAAAAAAAAAQDqiFwAAAAAAAAAA0hG9AAAAAAAAAACQjugFAAAAAAAAAIB0RC8AAAAAAAAAAKQjegEAAAAAAAAAIB3RCwAAAAAAAAAA6YheAAAAAAAAAABIR/QCAAAAAAAAAEA6ohcAAAAAAAAAANIRvQAAAAAAAAAAkI7oBQAAAAAAAACAdEQvAAAAAAAAAACkI3oBAAAAAAAAACAd0QsAAAAAAAAAAOmIXgAAAAAAAAAASEf0AgAAAAAAAABAOqIXAAAAAAAAAADSEb0AAAAAAAAAAJCO6AUAAAAAAAAAgHRELwAAAAAAAAAApCN6AQAAAAAAAAAgHdELAAAAAAAAAADpiF4AAAAAAAAAAEhH9AIAAAAAAAAAQDqiFwAAAAAAAAAA0hG9AAAAAAAAAACQjugFAAAAAAAAAIB0RC8AAAAAAAAAAKQjegEAAAAAAAAAIB3RCwAAAAAAAAAA6YheAAAAAAAAAABIR/QCAAAAAAAAAEA6ohcAAAAAAAAAANIRvQAAAAAAAAAAkI7oBQAAAAAAAACAdEQvAAAAAAAAAACkI3oBAAAAAAAAACAd0QsAAAAAAAAAAOmIXgAAAAAAAAAASEf0AgAAAAAAAABAOqIXAAAAAAAAAADSEb0AAAAAAAAAAJCO6AUAAAAAAAAAgHRELwAAAAAAAAAApCN6AQAAAAAAAAAgHdELAAAAAAAAAADpiF4AAAAAAAAAAEhH9AIAAAAAAAAAQDqiFwAAAAAAAAAA0hG9AAAAAAAAAACQjugFAAAAAAAAAIB0RC8AAAAAAAAAAKQjegEAAAAAAAAAIB3RCwAAAAAAAAAA6YheAAAAAAAAAABIR/QCAAAAAAAAAEA6ohcAAAAAAAAAANIRvQAAAAAAAAAAkI7oBQAAAAAAAACAdEQvAAAAAAAAAACkI3oBAAAAAAAAACAd0QsAAAAAAAAAAOmIXgAAAAAAAAAASEf0AgAAAAAAAABAOqIXAAAAAAAAAADSEb0AAAAAAAAAAJCO6AUAAAAAAAAAgHRELwAAAAAAAAAApCN6AQAAAAAAAAAgHdELAAAAAAAAAADpiF4AAAAAAAAAAEhH9AIAAAAAAAAAQDqiFwAAAAAAAAAA0hG9AAAAAAAAAACQjugFAAAAAAAAAIB0RC8AAAAAAAAAAKQjegEAAAAAAAAAIB3RCwAAAAAAAAAA6YheAAAAAAAAAABIR/QCAAAAAAAAAEA6ohcAAAAAAAAAANIRvQAAAAAAAAAAkI7oBQAAAAAAAACAdEQvAAAAAAAAAACkI3oBAAAAAAAAACAd0QsAAAAAAAAAAOmIXgAAAAAAAAAASEf0AgAAAAAAAABAOqIXAAAAAAAAAADSEb0AAAAAAAAAAJCO6AUAAAAAAAAAgHRELwAAAAAAAAAApCN6AQAAAAAAAAAgHdELAAAAAAAAAADpiF4AAAAAAAAAAEhH9AIAAAAAAAAAQDqiFwAAAAAAAAAA0hG9AAAAAAAAAACQjugFAAAAAAAAAIB0RC8AAAAAAAAAAKQjegEAAAAAAAAAIB3RCwAAAAAAAAAA6YheAAAAAAAAAABIR/QCAAAAAAAAAEA6ohcAAAAAAAAAANIRvQAAAAAAAAAAkI7oBQAAAAAAAACAdEQvAAAAAAAAAACkI3oBAAAAAAAAACAd0QsAAAAAAAAAAOmIXgAAAAAAAAAASGem0+lMdgEAAAAAAAAAIAcrvQAAAAAAAAAAkI7oBQAAAAAAAACAdJroxS2OAAAAAAAAAADIxEovAAAAAAAAAACkI3oBAAAAAAAAACAd0QsAAAAAAAAAAOmIXgAAAAAAAAAASGem0+lMdgEAAAAAAAAAIAcrvQAAAAAAAAAAkI7oBQAAAAAAAACAdEQvAAAAAAAAAACkI3oBAAAAAAAAACAd0QsAAAAAAAAAAOmIXgAAAAAAAAAASEf0AgAAAAAAAABAOqIXAAAAAAAAAADSEb0AAAAAAAAAAJCO6AUAAAAAAAAAgHRELwAAAAAAAAAApCN6AQAAAAAAAAAgHdELAAAAAAAAAADpiF4AAAAAAAAAAEhH9AIAAAAAAAAAQDqiFwAAAAAAAAAA0hG9AAAAAAAAAACQjugFAAAAAAAAAIB0RC8AAAAAAAAAAKQjegEAAAAAAAAAIB3RCwAAAAAAAAAA6YheAAAAAAAAAABIR/QCAAAAAAAAAEA6ohcAAAAAAAAAANIRvQAAAAAAAAAAkI7oBQAAAAAAAACAdEQvAAAAAAAAAACkI3oBAAAAAAAAACAd0QsAAAAAAAAAAOmIXgAAAAAAAAAASEf0AgAAAAAAAABAOqIXAAAAAAAAAADSEb0AAAAAAAAAAJCO6AUAAAAAAAAAgHRELwAAAAAAAAAApCN6AQAAAAAAAAAgHdELAAAAAAAAAADpiF4AAAAAAAAAAEhH9AIAAAAAAAAAQDqiFwAAAAAAAAAA0hG9AAAAAAAAAACQjugFAAAAAAAAAIB0RC8AAAAAAAAAAKQjegEAAAAAAAAAIB3RCwAAAAAAAAAA6YheAAAAAAAAAABIR/QCAAAAAAAAAEA6ohcAAAAAAAAAANIRvQAAAAAAAAAAkI7oBQAAAAAAAACAdEQvAAAAAAAAAACkI3oBAAAAAAAAACAd0QsAAAAAAAAAAOmIXgAAAAAAAAAASEf0AgAAAAAAAABAOqIXAAAAAAAAAADSEb0AAAAAAAAAAJCO6AUAAAAAAAAAgHRELwAAAAAAAAAApCN6AQAAAAAAAAAgHdELAAAAAAAAAADpiF4AAAAAAAAAAEhH9AIAAAAAAAAAQDqiFwAAAAAAAAAA0hG9AAAAAAAAAACQjugFAAAAAAAAAIB0RC8AAAAAAAAAAKQjegEAAAAAAAAAIB3RCwAAAAAAAAAA6YheAAAAAAAAAABIR/QCAAAAAAAAAEA6ohcAAAAAAAAAANIRvQAAAAAAAAAAkI7oBQAAAAAAAACAdEQvAAAAAAAAAACkI3oBAAAAAAAAACAd0QsAAAAAAAAAAOmIXgAAAAAAAAAASEf0AgAAAAAAAABAOqIXAAAAAAAAAADSEb0AAAAAAAAAAJCO6AUAAAAAAAAAgHRELwAAAAAAAAAApCN6AQAAAAAAAAAgHdELAAAAAAAAAADpiF4AAAAAAAAAAEhH9AIAAAAAAAAAQDqiFwAAAAAAAAAA0hG9AAAAAAAAAACQjugFAAAAAAAAAIB0RC8AAAAAAAAAAKQjegEAAAAAAAAAIB3RCwAAAAAAAAAA6YheAAAAAAAAAABIR/QCAAAAAAAAAEA6ohcAAAAAAAAAANIRvQAAAAAAAAAAkI7oBQAAAAAAAACAdEQvAAAAAAAAAACkI3oBAAAAAAAAACAd0QsAAAAAAAAAAOmIXgAAAAAAAAAASEf0AgAAAAAAAABAOqIXAAAAAAAAAADSEb0AAAAAAAAAAJCO6AUAAAAAAAAAgHRELwAAAAAAAAAApCN6AQAAAAAAAAAgHdELAAAAAAAAAADpiF4AAAAAAAAAAEhH9AIAAAAAAAAAQDqiFwAAAAAAAAAA0hG9AAAAAAAAAACQjugFAAAAAAAAAIB0RC8AAAAAAAAAAKQjegEAAAAAAAAAIB3RCwAAAAAAAAAA6YheAAAAAAAAAABIR/QCAAAAAAAAAEA6ohcAAAAAAAAAANIRvQAAAAAAAAAAkI7oBQAAAAAAAACAdEQvAAAAAAAAAACkI3oBAAAAAAAAACAd0QsAAAAAAAAAAOmIXgAAAAAAAAAASEf0AgAAAAAAAABAOqIXAAAAAAAAAADSEb0AAAAAAAAAAJCO6AUAAAAAAAAAgHRELwAAAAAAAAAApCN6AQAAAAAAAAAgHdELAAAAAAAAAADpiF4AAAAAAAAAAEhH9AIAAAAAAAAAQDqiFwAAAAAAAAAA0hG9AAAAAAAAAACQjugFAAAAAAAAAIB0RC8AAAAAAAAAAKQjegEAAAAAAAAAIB3RCwAAAAAAAAAA6YheAAAAAAAAAABIR/QCAAAAAAAAAEA6ohcAAAAAAAAAANIRvQAAAAAAAAAAkI7oBQAAAAAAAACAdEQvAAAAAAAAAACkI3oBAAAAAAAAACAd0QsAAAAAAAAAAOmIXgAAAAAAAAAASEf0AgAAAAAAAABAOqIXAAAAAAAAAADSEb0AAAAAAAAAAJCO6AUAAAAAAAAAgHRELwAAAAAAAAAApCN6AQAAAAAAAAAgHdELAAAAAAAAAADpiF4AAAAAAAAAAEhH9AIAAAAAAAAAQDqiFwAAAAAAAAAA0hG9AAAAAAAAAACQjugFAAAAAAAAAIB0RC8AAAAAAAAAAKQjegEAAAAAAAAAIB3RCwAAAAAAAAAA6YheAAAAAAAAAABIR/QCAAAAAAAAAEA6ohcAAAAAAAAAANIRvQAAAAAAAAAAkI7oBQAAAAAAAACAdEQvAAAAAAAAAACkI3oBAAAAAAAAACAd0QsAAAAAAAAAAOmIXgAAAAAAAAAASEf0AgAAAAAAAABAOqIXAAAAAAAAAADSEb0AAAAAAAAAAJCO6AUAAAAAAAAAgHRELwAAAAAAAAAApCN6AQAAAAAAAAAgHdELAAAAAAAAAADpiF4AAAAAAAAAAEhH9AIAAAAAAAAAQDqiFwAAAAAAAAAA0hG9AAAAAAAAAACQjugFAAAAAAAAAIB0RC8AAAAAAAAAAKQjegEAAAAAAAAAIB3RCwAAAAAAAAAA6YheAAAAAAAAAABIR/QCAAAAAAAAAEA6ohcAAAAAAAAAANIRvQAAAAAAAAAAkI7oBQAAAAAAAACAdEQvAAAAAAAAAACkI3oBAAAAAAAAACAd0QsAAAAAAAAAAOmIXgAAAAAAAAAASEf0AgAAAAAAAABAOqIXAAAAAAAAAADSEb0AAAAAAAAAAJCO6AUAAAAAAAAAgHRELwAAAAAAAAAApCN6AQAAAAAAAAAgHdELAAAAAAAAAADpiF4AAAAAAAAAAEhH9AIAAAAAAAAAQDqiFwAAAAAAAAAA0hG9AAAAAAAAAACQjugFAAAAAAAAAIB0RC8AAAAAAAAAAKQjegEAAAAAAAAAIB3RCwAAAAAAAAAA6YheAAAAAAAAAABIR/QCAAAAAAAAAEA6ohcAAAAAAAAAANIRvQAAAAAAAAAAkI7oBQAAAAAAAACAdDqrq6ujyT4AAADs0fi/So42398CB6TzwejEFgAAAICdiF4AAADYv8H1MrPyRinrFyYHgAfWPVlG8y+X0dxiKTP9yUEAAAAAtiN6AQAAYN86a+fKzJXfKp3l1ydHgAc16j9dRqe/VkaPf6mMZhYmRwEAAADYzsxkCwAAAAAAAAAAaYheAAAAAAAAAABIR/QCAAAAAAAAAEA6ohcAAAAAAAAAANIRvQAAAAAAAAAAkI7oBQAAAAAAAACAdEQvAAAAAAAAAACkI3oBAAAAAAAAACAd0QsAAAAAAAAAAOmIXgAAAAAAAAAASEf0AgAAAAAAAABAOqIXAAAAAAAAAADSEb0AAAAAAAAAAJCO6AUAAAAAAAAAgHRELwAAAAAAAAAApCN6AQAAAAAAAAAgHdELAAAAAAAAAADpiF4AAAAAAAAAAEhH9AIAAAAAAAAAQDqiFwAAAAAAAAAA0hG9AAAAAAAAAACQjugFAAAAAAAAAIB0RC8AAAAAAAAAAKQjegEAAAAAAAAAIB3RCwAAAAAAAAAA6YheAAAAAAAAAABIR/QCAAAAAAAAAEA6ohcAAAAAAAAAANIRvQAAAAAAAAAAkI7oBQAAAAAAAACAdEQvAAAAAAAAAACkI3oBAAAAAAAAACAd0QsAAAAAAAAAAOmIXgAAAAAAAAAASEf0AgAAAAAAAABAOqIXAAAAAAAAAADSEb0AAAAAAAAAAJCO6AUAAAAAAAAAgHRELwAAAAAAAAAApCN6AQAAAAAAAAAgHdELAAAAAAAAAADpiF4AAAAAAAAAAEhH9AIAAAAAAAAAQDqiFwAAAAAAAAAA0hG9AAAAAAAAAACQjugFAAAAAAAAAIB0RC8AAAAAAAAAAKQjegEAAAAAAAAAIB3RCwAAAAAAAAAA6YheAAAAAAAAAABIR/QCAAAAAAAAAEA6ohcAAAAAAAAAANIRvQAAAAAAAAAAkI7oBQAAAAAAAACAdEQvAAAAAAAAAACkI3oBAAAAAAAAACAd0QsAAAAAAAAAAOmIXgAAAAAAAAAASEf0AgAAAAAAAABAOqIXAAAAAAAAAADSEb0AAAAAAAAAAJCO6AUAAAAAAAAAgHRELwAAAAAAAAAApCN6AQAAAAAAAAAgHdELAAAAAAAAAADpiF4AAAAAAAAAAEhH9AIAAAAAAAAAQDqiFwAAAAAAAAAA0hG9AAAAAAAAAACQjugFAAAAAAAAAIB0RC8AAAAAAAAAAKQjegEAAAAAAAAAIB3RCwAAAAAAAAAA6YheAAAAAAAAAABIR/QCAAAAAAAAAEA6ohcAAAAAAAAAANIRvQAAAAAAAAAAkI7oBQAAAAAAAACAdEQvAAAAAAAAAACkI3oBAAAAAAAAACAd0QsAAAAAAAAAAOmIXgAAAAAAAAAASEf0AgAAAAAAAABAOqIXAAAAAAAAAADSEb0AAAAAAAAAAJCO6AUAAAAAAAAAgHRELwAAAAAAAAAApCN6AQAAAAAAAAAgHdELAAAAAAAAAADpiF4AAAAAAAAAAEhH9AIAAAAAAAAAQDqiFwAAAAAAAAAA0hG9AAAAAAAAAACQjugFAAAAAAAAAIB0RC8AAAAAAAAAAKQjegEAAAAAAAAAIB3RCwAAAAAAAAAA6YheAAAAgIdmNCpluDkqm7HzCMTHbsbnj0d5NF8BAAAAgIdE9AIAAAA8FIPhZnn38kr599+/Us6eu1k2BpuTZz4cEdtcfu92+e4PrpQfvnW93F4fTp4BAAAA4CgQvQAAAHAsxIofdezV/bzmw7Lf77bf8w/C+sZm+dHS9fLbf/h2+e4bV8raHqKTg/yeEd28feFm+Td/9E75k9cvleXVjckzAAAAABwFohcAAACOlIglYkWRCCwieogRscPFqyvl3MXlcuX67XJ7bfj+7W62ESuExDlXx+e+M37NhSsr5ebKevNe0zHGaHwg4o5YRWQw3Po947Pi+8QYjt8jvl+8f7xuu7ijed/JeXF+nBZjOP6MlduDcvnaannn0vJ4e7usjh/H8enb98R7x3deub1RLr+3Wt6+cKtcuDz+WZbHP0u85z3n7/Nn2eZ32Hzu+P1XVgfl2s315vd47cZauXFrffzZG2V1bfx9W6+N8+NnjOfid31+/HNdu7nWfEb7zyl+xvh9xJj+7HhUn1+d/G5vj38v18efeWX8O3qv+fyNZsTvb7ufDwAAAIA8Oqurq/5XHgAAAPals3auzFz5rdJZfn1y5PCIoGLp/K1y9fpaOXWi3wQer/3wann73VtNzPHEqdnyqVdOl5/5zDNl8flTZW62O3nl+/HFrZWN8uO3bzSv+fG5m+XmrfXS782UF547UX7yE0+Vz/7Ek+WpJ+ZLd6bTvCbO/9H4/Ag2XnnxsfKRZ0+Umc77z4V4zwg4/mLpRhOCxDkRovxo/PjEQq98evxdHjs5Ozn7A/G9431vrQzKx8avOfP0ibJ8e6N5n7hd0Jvv3GyikpPjnzGe//ynnio/sfhEObnQL/HxEYBEbPK9H18r3/vRe028E+fPzs6Mv+PJ5mf53CeeLE+Pf5aZyc+yHD/LuRvl+s315nu+8NzJe36W6/GzjL/X+sawfGL8ec8+tTB59gMRsLw1/n6/++/eLd/6zvnm1kbPPDk//lmfLKcfnyuf+fjp8rOffbY5FvFJfM8/H3/H1964Us5fWmmClifH58Xv5vOffrq8dOZk6Y3/DOJ7/eDN6+X6rbXmZ/3oR06VXvf9/3+eCF3id3Luwq3mz+fxU/3y+g+ulm/+yTvj7XvN7zg+N577+OLj5Wc/92zzZ9r++R61Uf/pMjr9tTJ6/EtlNHPv7xUAAACAu3W/8Y1v/KPJPgAAAOxJZ3izdFZ/WDoblyZHDo9byxvlT79/pXzr2+820cjZd26VcxeWy2AwKsPBZrlwZbX84Oz1JqCIACIijAhYapzyJ392qfx/v/dWee0HV5tVQ+K5WDUkopGIKuLYE4/NNbFJxCKxgsgfffdiE208fXq+PP/MVEgxfuNYveRb33l3/PpbzfMResTjt8aPn3tqofkendZrIo45O/6sb/7b8+Xye7fLR58/VTrjz/rO9y43t+p5Y/z9IzqJ16ysbpSld5ebnzG+T3yHuX63WVXl2+Pzf/dPzjfxTnxmPF/jkAhR+t2Zcmb8fRbmes3nxqosfzz+Wf7sL94rT52euyfgGf8w5eLV1ea7x+sjnnn2yXvjjAhuYnWVN85eK3/x1vVmP6KVhfnene/44nMny9xct4lc4s/q9/7d+fHveKXEAi6j8f+9d2O9vHX+VvP7jZDn9Ph3HivfvPHja+Xfvnax3Br/3GeeXmiei5/trXdvld/543fKXyxdb46fOjE7Pnaz+V2dv7xS4qeIc2dmSvPnFyHN46dm7/q9P3LdE6XMv1zK3Ivjf2T9yUEAAAAAtiN6AQAAYN8Oc/QSUcobb14rf/zaxWZlk5/73LPl137l4+U/+ysfK7/8lZfKT33y6bK2EedcbwKMWC3kxHyvWSHmtTeulv//999uIpdfffXl8l//zU+W/+SXXim/+PMvlJ/46BPNLXpi5ZQIZD7yzIlmpZa4dVKzIsw2K73EfXfiFjsR4ER484mXnyjPPXWiWTElYpUIQV46c6r0+x/cgfjmykZ5/YfvNaulfPLl081n//Ct603A0ut2yn/6lz9W/su//onyN7720fLVLz5fnn1yvglZ3jp/s1nJJlZfaW4XdGuj2f9rX/1o+bXxz//Xx+d/7ec+Ul44c7KJTS5dXW2ilzgnvvPy+PcVMUsEMy/HSi/P3r3SS6g/y8b4dxSrrWwVvXTH3/GZ8fFYTeb5p080j3/pSy+W//6/+MnyK199qXz6Y6fHv7t+ExnFn9N3/vxyefmFx8p/9aufLL/+Vz/efN+f+8lny2y/26zsEudFyPLceDx+crZZ/SZW44k/h1gtJn5fEetEJPP5Tz1dvvz5M80qNZ985XTzM8RP8KUvPFf+7vjz48/1pz75VBO+HKrgJYheAAAAAPblg/9FDQAAAI6IiFbqrYS+/NPPNbcxilsUxa2M4lZAv/CzzzfHIvq4cm2tbG7GLXbWmtVa4tZDEbnEOU+dfv/WP7ESymc+drr8la+81KxQEiFGRCZx7n5FZhG3XYrIY36+26zocmH8PSLgCHFrn1gZ5dy7t8qpk7NNfLJ6e1C+f/Za9DPlKz/9fPnCp55uopGINuK2PT/9mWfK1/7SR5pb/cTqKrGKTayM8uUvPFf+6n+0WD758hNlvlnNZfyzzPeb2wZFkBLf//yl5SZg+bDFZ8fqORHzxMovr/6lF8Z/Xo+P/5y6ze88VsD5yhfOlC98+ulmtZsImSLkieNf/Owzzc8Xscwf/OmFZuWXiGA+8dEnys//1HPNCi4AAAAAHH2iFwAAAI6cuL3Pi2dOlk+9fLo89XjcOmjyxFi3O9PcTihWDdkcjcry7Y0mprjy3moTV8Qte+pKJG0RlDw/fi7CjIhQ3n73VllbH06e3Z8IcGIlkrhtUQQuP1q6fue9/kN79/oj5XkecPiZPbJnYIEFAzY4AezEYDd2bMdtpKhNpKpSoiqVqnxppaaf+j/4Q/+eVmqrVlV6itJYaiPHVnzCjg22OYPBLLDssrMndvvez+6ihXIMxuLG12UNM8zOzPs+79gfsH7cz0zz2Seaz75webZOKRnbuK5cnJgtn30+Xbo7W6Wnu6N8Nj5djp2ZvHaLeKezo6P09XbW7YDivSEimbmFq2ViarbGLTEJJrb8OTferseLrY5iO6jfJd65X3H8s+fbzXWfqRNdYouiE2enrq0ptiuKqTK9zXrj+4nJNFemF+o2SREsfXv/luY6tsrPXjtWfv6rkzUkeuGZzTWKedgGuAAAAADwYIheAAAAeOTEdjoRQQwOdJeurusLiAgiYougCE/C4uJiudrcpmcW6rZHg33dZSCmqNSfXq+nec9AX1edxnL5ytxdTUiJ8KTeVia5hDiH2Kbn8W1DpbOjVbfliVglIpy4P356qp7f7h1D9VwisokgJ7ZWiu2X/vE/P73u9k8/P1J++cbpul1ShCxzzTridurslfKL10+Vv/u3T8rf//sn5R/+a/n1//LfR8vr756twc1SnNiac7uday+7y9ffztWrS2Vqer6cHW+Xdz46X/71tWP/b13//IujdfujuCYRxUTAE2Lyztd2DtdpOWfOT5fPm2sTWy3FFJ6YEgMAAADAV4PoBQAAgK+8VvNPxBIdrVYNT9YGKjfT0fxpOmKVGyeK3Oxt8VxstRSTTeJ+VU9PR9mxdaDsGBssFy7N1OkuV9oL5fTnEXG0y+aNfTXiiICn1Rwr7ru6OusEmti+58bb2GhfeXbfaHn+G5vrdkERyfzvW5+VX/76dN1GKCKaCG3itRED9a3run0gcovFxNSVmWYtcX9fmkPH8WNdMeklYqMb17R+aDkMqtsc7R2trwkLi4vl8tR8mZpeqGuK10XsE7c7fXcAAAAAPDpELwAAAHzldXS2ytBATHjpKpevzJeLl2fK4uL19UT8bnp2oVyanK1bHW1cv6709HTWUCZus3OLpd1eqBNM1rp6dTnQ+PzCTJ0msyreE1svxbSS+eY9Hx+fKMdPT5ZjzS0Otmv7UBkZ6q1hyFB/d90O6cDejeWH33ui/NWPnyp//WdPX3f7aXP7ix/tK9//zo6yqTm3mPISn/l48/nx87/5yTevvfYvm9f94UvbayizVl1Lc7yYeBPneuNaYtpKTLg5f7F93VruZPVT1n5aRDgbhnvr+l86MFb+/I+/du381t5++uOny0/+ZE95cf+WGsLEZJqJybly8PB4DYWe2r2h7N4xXD48crG8+9F4c17zK0cAAAAA4FEnegEAAOArL6a2bNrQV7aPDdStdH776aUat0T4Unf/aX6ZmVkoR09driFJbDm0Y+tgnVAS4UuNZabmytHTk/V+9X2xDdKlybny0dFL5ZMTE3WSy1q9vZ31mBF/HDszWd48eK4cb+43ru8tux4baj6/ozm3jubc1pVtm/vrBJiDhy+US7EV0ppzi6krcdyIUeIYcdz27EJ9fniwu0YzdbRKI963uq1QBD5rxfFiLZPN80dPTZaJNWuJ+4mp2XLo6ET5+Fizluk7Ry8xCSeCoqXFcm06zPI5L28VtXVTfw1Z4liHms+MkGZ10k6sK6bjXGjWGhFSbNcUz8f6PjpyqRyOoGfbUPnTP9pdfvDKjtLbnPvr750tHzbfXby2Hr/5p7treZrM3PxijXmWP3v5BgAAAEBuna+++urfrjwGAACAu9K6Olla7Y9La/7zlWceHjOzV+u0lAhEIkx5fNtg6ey8/u98XGnPlyMnJ2v8ERNVIijp7e4srVarnPxsqkYVEXXENJKII8YvzZS3Pxwvr715uk5teeGZzWX/ntHS19tV4qMjqIgg5sipyfr63p6uMrdwtZw5N11+88H58sZ758q58XZ5bPNA2b93Yw1sQkxW6epsNceaLx98crF82By3qznmc09tKnt3r68TZSIcifOIc4vJJh9+erFOW6kxSfMZEahEhPLr5hjHz0yVwf7uMjLYW9d2rPl9/DzCktjOKKKTcxdmyjsfjddA5OLETNnz+EjZ88T65ak1Ha0yX9cy2azlcllcjLV01vfFtkuxljjO2fPtes327x0tm1fWcjNxLSKU+eTE5XrOG4d7m/W16jlFmDPY31WP8enJiRoTxXWM6xETZeKav3tovF67mOwSWzZFABQB0f/85kz97D/41rayb9f6MlQnwJT6vU9MztatoWLNcX2vzCzUCTpx/Qf7l69DXJsIauJaRxDz0OjsL2XdE81F3978R7a8lRMAAAAAtyZ6AQAA4J491NHL3NUah4xfmi07tw6UnbeIXiKQiMkiu7YPl62bBmpYMjzQUyedxBSUg4culPc/vlDeOXS+vHHwXHnv8IUambz87Fh5+cBY2TC8rgYpEWL0N++JgCKCmXcOjddpLBGWvNc8jm2NRoZ66nZIoxvWla8/PlIDjlVxbjFF5fCxifLpics1QPnu89vK6Ehf/fzV1yxvv9Rdzl1o13P54PDFGoXEdJi3fnu+OU67fu7uZj0bhnvKut4ISpbKiTNT5WCzjtgOKM4pJqHERJiFhcUaucT2Ql9/YqROrYmJN/3rltcS2yPFdkHx3tW1xLFHBnvqOuJYsZbVgOdmWs1l74zwZHqhHDp6qZ5vHP/UuSs1GIpJLzHFJuKUIycvN8c7X4/3drOeN98/V95v1hkTa7aPDdZgKCa+/Ortz8r5S+3ywjNbyoF9m5p1dpaers7mu+uusUx8rxHujI321+8y1jg9e7VGNbGGCIviNfGvRGwDFVHPQ0P0AgAAAHBPRC8AAADcs4c5eomJH7GTT8QZsf3NxpF1NXxYK14ToUX8bOfWwframKQS4UtMCYlwJAKYqfZ8nUoSYcQze0bLD17ZWZ7/5payfrj3WpASIhjZMtpXtm9ZjmfiPTG1JJ57+cCW8tKBsfLYlv6ydbS/7BgbrPHKqji32FZocGB5y6Tfe3pTeXLHcOlunltr7bmNDPWW9sxCmbgy16ylVXY1r//et7eXV57bWsaaY3Z0dNQYJKawRHATkU/ENxGQRGTyrW9sLgf2jZZtzfnGNYr3xFSZUNeysb9Zy2A9h2traY79YrOOiH5inRGV1LXUrZNuLq5pxC2xXdO65hrGdkoxYSXW8eTOoRrOxLV4LM7jsaE6bSdeE1sY9TXnv3/PxvL97+wszz29uYZFsY6YOrN31/ry7FOb6jSX5eMsT6SJ7yzuY+2xzoG+5d/H9zzYHGe6WX+7+ey4fk/uGKnfT1zXh4boBQAAAOCetNrtdvzvQAAAALhrrdlTpWP8Z6V15f2VZx5NEccsNr9E33JjOHMrq++pYU3HclzzINTjLDa/NB8fx7jdYVbPKV4SIcrdntLq+5aaW6z/ftYSnxWf09zd9nxjTSvL+sK3Hlr9XuLYD+p7uR9L3aNlaf13y9Lwi2Wp49YTdAAAAABY9hD9dSYAAAB4uEQXEVv+3G3wElbf09V5f5HIndTjNMeIY93pMGvXcS+ntPq+mAJzv2uJt8fx73S+8Zq4dl908BJiDfU63OdaAAAAAHg4iF4AAAAAAAAAAEhH9AIAAAAAAAAAQDqiFwAAAAAAAAAA0hG9AAAAAAAAAACQjugFAAAAAAAAAIB0RC8AAAAAAAAAAKQjegEAAAAAAAAAIB3RCwAAAAAAAAAA6YheAAAAAAAAAABIR/QCAAAAAAAAAEA6ohcAAAAAAAAAANIRvQAAAAAAAAAAkI7oBQAAAAAAAACAdEQvAAAAAAAAAACkI3oBAAAAAAAAACAd0QsAAAAAAAAAAOmIXgAAAAAAAAAASEf0AgAAAAAAAABAOqIXAAAAAAAAAADSEb0AAAAAAAAAAJCO6AUAAAAAAAAAgHRELwAAAAAAAAAApCN6AQAAAAAAAAAgHdELAAAAAAAAAADpiF4AAAAAAAAAAEhH9AIAAAAAAAAAQDqiFwAAAAAAAAAA0hG9AAAAAAAAAACQjugFAAAAAAAAAIB0RC8AAAAAAAAAAKQjegEAAAAAAAAAIB3RCwAAAAAAAAAA6YheAAAAAAAAAABIR/QCAAAAAAAAAEA6ohcAAAAAAAAAANIRvQAAAAAAAAAAkI7oBQAAAAAAAACAdEQvAAAAAAAAAACkI3oBAAAAAAAAACAd0QsAAAAAAAAAAOmIXgAAAAAAAAAASEf0AgAAAAAAAABAOqIXAAAAAAAAAADSEb0AAAAAAAAAAJCO6AUAAAAAAAAAgHRELwAAAAAAAAAApCN6AQAAAAAAAAAgHdELAAAAAAAAAADpiF4AAAAAAAAAAEhH9AIAAAAAAAAAQDqiFwAAAAAAAAAA0hG9AAAAAAAAAACQjugFAAAAAAAAAIB0RC8AAAAAAAAAAKQjegEAAAAAAAAAIB3RCwAAAAAAAAAA6YheAAAAAAAAAABIR/QCAAAAAAAAAEA6ohcAAAAAAAAAANIRvQAAAAAAAAAAkI7oBQAAAAAAAACAdEQvAAAAAAAAAACkI3oBAAAAAAAAACAd0QsAAAAAAAAAAOmIXgAAAAAAAAAASEf0AgAAAAAAAABAOqIXAAAAAAAAAADSEb0AAAAAAAAAAJCO6AUAAAAAAAAAgHRELwAAAAAAAAAApCN6AQAAAAAAAAAgHdELAAAAAAAAAADpiF4AAAAAAAAAAEhH9AIAAAAAAAAAQDqiFwAAAAAAAAAA0hG9AAAAAAAAAACQjugFAAAAAAAAAIB0RC8AAAAAAAAAAKQjegEAAAAAAAAAIB3RCwAAAAAAAAAA6YheAAAAAAAAAABIR/QCAAAAAAAAAEA6ohcAAAAAAAAAANIRvQAAAAAAAAAAkI7oBQAAAAAAAACAdEQvAAAAAAAAAACkI3oBAAAAAAAAACAd0QsAAAAAAAAAAOmIXgAAAAAAAAAASEf0AgAAAAAAAABAOqIXAAAAAAAAAADSEb0AAAAAAAAAAJCO6AUAAAAAAAAAgHRELwAAAAAAAAAApCN6AQAAAAAAAAAgHdELAAAAAAAAAADptNrt9tLKYwAAALgrrdmTpePCf5TWlfdXngHu11LXaFla//tlafjFstTRt/IsAAAAALciegEAAODezZ8vHZNvlTJzfOUJ4L51DZWl/r2l9O8TvQAAAADcBdELAAAA925poZTF2eZ+buUJ4IvQanWWxVZvaXX0rjwDAAAAwK2IXgAAAAAAAAAASKdj5R4AAAAAAAAAANIQvQAAAAAAAAAAkI7oBQAAAAAAAACAdEQvAAAAAAAAAACkI3oBAAAAAAAAACAd0QsAAAAAAAAAAOmIXgAAAAAAAAAASEf0AgAAAAAAAABAOqIXAAAAAAAAAADSEb0AAAAAAAAAAJCO6AUAAAAAAAAAgHRELwAAAAAAAAAApCN6AQAAAAAAAAAgHdELAAAAAAAAAADpiF4AAAAAAAAAAEhH9AIAAAAAAAAAQDqiFwAAAAAAAAAA0hG9AAAAAAAAAACQjugFAAAAAAAAAIB0RC8AAAAAAAAAAKQjegEAAAAAAAAAIB3RCwAAAAAAAAAA6YheAAAAAAAAAABIR/QCAAAAAAAAAEA6ohcAAAAAAAAAANIRvQAAAAAAAAAAkI7oBQAAAAAAAACAdEQvAAAAAAAAAACkI3oBAAAAAAAAACAd0QsAAAAAAAAAAOmIXgAAAAAAAAAASEf0AgAAAAAAAABAOqIXAAAAAAAAAADSEb0AAAAAAAAAAJCO6AUAAAAAAAAAgHRELwAAAAAAAAAApCN6AQAAAAAAAAAgHdELAAAAAAAAAADpiF4AAAAAAAAAAEhH9AIAAAAAAAAAQDqiFwAAAAAAAAAA0hG9AAAAAAAAAACQjugFAAAAAAAAAIB0RC8AAAAAAAAAAKQjegEAAAAAAAAAIB3RCwAAAAAAAAAA6YheAAAAAAAAAABIR/QCAAAAAAAAAEA6ohcAAAAAAAAAANIRvQAAAAAAAAAAkI7oBQAAAAAAAACAdEQvAAAAAAAAAACkI3oBAAAAAAAAACAd0QsAAAAAAAAAAOmIXgAAAAAAAAAASEf0AgAAAAAAAABAOqIXAAAAAAAAAADSEb0AAAAAAAAAAJCO6AUAAAAAAAAAgHRELwAAAAAAAAAApCN6AQAAAAAAAAAgHdELAAAAAAAAAADpiF4AAAAAAAAAAEhH9AIAAAAAAAAAQDqiFwAAAAAAAAAA0hG9AAAAAAAAAACQjugFAAAAAAAAAIB0RC8AAAAAAAAAAKQjegEAAAAAAAAAIB3RCwAAAAAAAAAA6YheAAAAAAAAAABIR/QCAAAAAAAAAEA6ohcAAAAAAAAAANIRvQAAAAAAAAAAkI7oBQAAAAAAAACAdEQvAAAAAAAAAACkI3oBAAAAAAAAACAd0QsAAAAAAAAAAOmIXgAAAAAAAAAASEf0AgAAAAAAAABAOqIXAAAAAAAAAADSEb0AAAAAAAAAAJCO6AUAAAAAAAAAgHRELwAAAAAAAAAApCN6AQAAAAAAAAAgHdELAAAAAAAAAADpiF4AAAAAAAAAAEhH9AIAAAAAAAAAQDqiFwAAAAAAAAAA0hG9AAAAAAAAAACQjugFAAAAAAAAAIB0RC8AAAAAAAAAAKQjegEAAAAAAAAAIB3RCwAAAAAAAAAA6YheAAAAAAAAAABIR/QCAAAAAAAAAEA6ohcAAAAAAAAAANIRvQAAAAAAAAAAkI7oBQAAAAAAAACAdEQvAAAAAAAAAACkI3oBAAAAAAAAACAd0QsAAAAAAAAAAOmIXgAAAAAAAAAASEf0AgAAAAAAAABAOqIXAAAAAAAAAADSEb0AAAAAAAAAAJCO6AUAAAAAAAAAgHRELwAAAAAAAAAApCN6AQAAAAAAAAAgHdELAAAAAAAAAADpiF4AAAAAAAAAAEhH9AIAAAAAAAAAQDqiFwAAAAAAAAAA0hG9AAAAAAAAAACQjugFAAAAAAAAAIB0RC8AAAAAAAAAAKQjegEAAAAAAAAAIB3RCwAAAAAAAAAA6YheAAAAAAAAAABIR/QCAAAAAAAAAEA6ohcAAAAAAAAAANIRvQAAAAAAAAAAkI7oBQAAAAAAAACAdEQvAAAAAAAAAACkI3oBAAAAAAAAACAd0QsAAAAAAAAAAOmIXgAAAAAAAAAASEf0AgAAAAAAAABAOqIXAAAAAAAAAADSEb0AAAAAAAAAAJCO6AUAAAAAAAAAgHRELwAAAAAAAAAApCN6AQAAAAAAAAAgHdELAAAAAAAAAADpiF4AAAAAAAAAAEhH9AIAAAAAAAAAQDqiFwAAAAAAAAAA0hG9AAAAAAAAAACQjugFAAAAAAAAAIB0RC8AAAAAAAAAAKQjegEAAAAAAAAAIB3RCwAAAAAAAAAA6YheAAAAAAAAAABIR/QCAAAAAAAAAEA6ohcAAAAAAAAAANIRvQAAAAAAAAAAkI7oBQAAAAAAAACAdEQvAAAAAAAAAACkI3oBAAAAAAAAACAd0QsAAAAAAAAAAOmIXgAAAAAAAAAASEf0AgAAAAAAAABAOqIXAAAAAAAAAADSEb0AAAAAAAAAAJCO6AUAAAAAAAAAgHRELwAAAAAAAAAApCN6AQAAAAAAAAAgHdELAAAAAAAAAADpiF4AAAAAAAAAAEhH9AIAAAAAAAAAQDqiFwAAAAAAAAAA0hG9AAAAAAAAAACQjugFAAAAAAAAAIB0RC8AAAAAAAAAAKQjegEAAAAAAAAAIB3RCwAAAAAAAAAA6YheAAAAAAAAAABIR/QCAAAAAAAAAEA6ohcAAAAAAAAAANIRvQAAAAAAAAAAkI7oBQAAAAAAAACAdEQvAAAAAAAAAACkI3oBAAAAAAAAACAd0QsAAAAAAAAAAOmIXgAAAAAAAAAASEf0AgAAAAAAAABAOqIXAAAAAAAAAADSEb0AAAAAAAAAAJCO6AUAAAAAAAAAgHRELwAAAAAAAAAApCN6AQAAAAAAAAAgHdELAAAAAAAAAADpiF4AAAAAAAAAAEhH9AIAAAAAAAAAQDqiFwAAAAAAAAAA0hG9AAAAAAAAAACQjugFAAAAAAAAAIB0RC8AAAAAAAAAAKQjegEAAAAAAAAAIB3RCwAAAAAAAAAA6YheAAAAAAAAAABIR/QCAAAAAAAAAEA6ohcAAAAAAAAAANIRvQAAAAAAAAAAkI7oBQAAAAAAAACAdEQvAAAAAAAAAACkI3oBAAAAAAAAACAd0QsAAAAAAAAAAOmIXgAAAAAAAAAASEf0AgAAAAAAAABAOqIXAAAAAAAAAADSEb0AAAAAAAAAAJCO6AUAAAAAAAAAgHRELwAAAAAAAAAApCN6AQAAAAAAAAAgHdELAAAAAAAAAADpiF4AAAAAAAAAAEhH9AIAAAAAAAAAQDqiFwAAAAAAAAAA0hG9AAAAAAAAAACQjugFAAAAAAAAAIB0RC8AAAAAAAAAAKQjegEAAAAAAAAAIB3RCwAAAAAAAAAA6YheAAAAAAAAAABIR/QCAAAAAAAAAEA6ohcAAAAAAAAAANIRvQAAAAAAAAAAkI7oBQAAAAAAAACAdEQvAAAAAAAAAACkI3oBAAAAAAAAACAd0QsAAAAAAAAAAOmIXgAAAAAAAAAASEf0AgAAAAAAAABAOqIXAAAAAAAAAADSEb0AAAAAAAAAAJCO6AUAAAAAAAAAgHRELwAAAAAAAAAApCN6AQAAAAAAAAAgHdELAAAAAAAAAADpiF4AAAAAAAAAAEhH9AIAAAAAAAAAQDqiFwAAAAAAAAAA0hG9AAAAAAAAAACQjugFAAAAAAAAAIB0RC8AAAAAAAAAAKQjegEAAAAAAAAAIB3RCwAAAAAAAAAA6YheAAAAAAAAAABIR/QCAAAAAAAAAEA6ohcAAAAAAAAAANIRvQAAAAAAAAAAkI7oBQAAAAAAAACAdEQvAAAAAAAAAACkI3oBAAAAAAAAACAd0QsAAAAAAAAAAOmIXgAAAAAAAAAASEf0AgAAAAAAAABAOqIXAAAAAAAAAADSEb0AAAAAAAAAAJCO6AUAAAAAAAAAgHRELwAAAAAAAAAApCN6AQAAAAAAAAAgHdELAAAAAAAAAADpiF4AAAAAAAAAAEhH9AIAAAAAAAAAQDqiFwAAAAAAAAAA0hG9AAAAAAAAAACQjugFAAAAAAAAAIB0RC8AAAAAAAAAAKQjegEAAAAAAAAAIB3RCwAAAAAAAAAA6YheAAAAAAAAAABIR/QCAAAAAAAAAEA6ohcAAAAAAAAAANIRvQAAAAAAAAAAkI7oBQAAAAAAAACAdEQvAAAAAAAAAACkI3oBAAAAAAAAACAd0QsAAAAAAAAAAOmIXgAAAAAAAAAASEf0AgAAAAAAAABAOqIXAAAAAAAAAADSEb0AAAAAAAAAAJCO6AUAAAAAAAAAgHRELwAAAAAAAAAApCN6AQAAAAAAAAAgHdELAAAAAAAAAADpiF4AAAAAAAAAAEhH9AIAAAAAAAAAQDqiFwAAAAAAAAAA0hG9AAAAAAAAAACQjugFAAAAAAAAAIB0RC8AAAAAAAAAAKQjegEAAAAAAAAAIB3RCwAAAAAAAAAA6YheAAAAAAAAAABIR/QCAAAAAAAAAEA6ohcAAAAAAAAAANIRvQAAAAAAAAAAkI7oBQAAAAAAAACAdEQvAAAAAAAAAACkI3oBAAAAAAAAACCdVrvdXlp5DAAAwJdoackfx3h0tFqtlUcAAAAA8OUQvQAAAHwJ7hS4CGDI6E6hixAGAAAAgAdJ9AIAAPAArY1ZbgxbhC48Sm4MXNb+XvwCAAAAwIMgegEAAHgAbha7xP3ax6vWPoZsbha3xP3ax6vWPgYAAACA+yV6AQAA+ALdGLOsvd3uOcjqxtBl9Xar58LaxwAAAADwuynl/wD2cvJmsQrIoAAAAABJRU5ErkJggg==;" vertex="1" parent="1">
          <mxGeometry x="60" y="10" width="1787" height="957.81" as="geometry" />
        </mxCell>
        <mxCell id="OCVbJgjzwTML6c4NwQRk-2" value="" style="rounded=0;whiteSpace=wrap;html=1;fillColor=none;strokeWidth=4;strokeColor=#B80404;" vertex="1" parent="1">
          <mxGeometry x="1595" y="74" width="240" height="147" as="geometry" />
        </mxCell>
        <mxCell id="OCVbJgjzwTML6c4NwQRk-3" value="&lt;font style=&quot;font-size: 25px;&quot; face=&quot;Verdana&quot;&gt;Carte&lt;/font&gt;" style="endArrow=classic;html=1;rounded=0;entryX=0;entryY=0.5;entryDx=0;entryDy=0;labelBackgroundColor=none;fontColor=#B80404;strokeColor=#B80404;strokeWidth=4;" edge="1" parent="1" target="OCVbJgjzwTML6c4NwQRk-2">
          <mxGeometry x="-1" y="43" width="50" height="50" relative="1" as="geometry">
            <mxPoint x="1378" y="149" as="sourcePoint" />
            <mxPoint x="1440" y="122.5" as="targetPoint" />
            <mxPoint x="-43" y="39" as="offset" />
          </mxGeometry>
        </mxCell>
        <mxCell id="OCVbJgjzwTML6c4NwQRk-6" value="" style="rounded=0;whiteSpace=wrap;html=1;fillColor=none;strokeWidth=4;strokeColor=#0062B8;" vertex="1" parent="1">
          <mxGeometry x="1680" y="140" width="80" height="40" as="geometry" />
        </mxCell>
        <mxCell id="OCVbJgjzwTML6c4NwQRk-7" value="&lt;font style=&quot;font-size: 25px;&quot; face=&quot;Verdana&quot;&gt;Champ de vision&lt;br&gt;&lt;/font&gt;" style="endArrow=classic;html=1;rounded=0;entryX=0;entryY=1;entryDx=0;entryDy=0;labelBackgroundColor=none;fontColor=#0062B8;strokeColor=#0062B8;strokeWidth=4;" edge="1" parent="1" target="OCVbJgjzwTML6c4NwQRk-6">
          <mxGeometry x="-1" y="110" width="50" height="50" relative="1" as="geometry">
            <mxPoint x="1394" y="179" as="sourcePoint" />
            <mxPoint x="1605" y="157.5" as="targetPoint" />
            <mxPoint x="-110" y="107" as="offset" />
          </mxGeometry>
        </mxCell>
      </root>
    </mxGraphModel>
  </diagram>
</mxfile>
